<?xml version="1.0" encoding="utf-8"?>
<!-- Generator: Adobe Illustrator 25.2.3, SVG Export Plug-In . SVG Version: 6.00 Build 0)  -->
<svg version="1.1" xmlns="http://www.w3.org/2000/svg" xmlns:xlink="http://www.w3.org/1999/xlink" x="0px" y="0px"
	 viewBox="0 0 700 395" style="enable-background:new 0 0 700 395;" xml:space="preserve">
<style type="text/css">
	.st0{fill:#000222;}
	.st1{fill:#FFFFFF;}
</style>
<g id="Layer_1">
	<rect class="st0" width="700" height="395"/>
</g>
<g id="Layer_3">
	<g>
		<path class="st1" d="M273.5,368.6l1.1,4.2c0.2,0.9,0.5,1.8,0.6,2.6h0.1c0.2-0.8,0.5-1.7,0.7-2.6l1.3-4.2h1.3l1.3,4.1
			c0.3,1,0.5,1.9,0.7,2.7h0.1c0.1-0.8,0.4-1.7,0.6-2.7l1.2-4.1h1.5l-2.7,8.2H280l-1.3-3.9c-0.3-0.9-0.5-1.7-0.7-2.7h0
			c-0.2,1-0.5,1.8-0.7,2.7l-1.3,3.9h-1.4l-2.5-8.2H273.5z"/>
		<path class="st1" d="M286.3,368.6l1.1,4.2c0.2,0.9,0.5,1.8,0.6,2.6h0.1c0.2-0.8,0.5-1.7,0.7-2.6l1.3-4.2h1.3l1.3,4.1
			c0.3,1,0.5,1.9,0.7,2.7h0.1c0.1-0.8,0.4-1.7,0.6-2.7l1.2-4.1h1.5l-2.7,8.2h-1.4l-1.3-3.9c-0.3-0.9-0.5-1.7-0.7-2.7h0
			c-0.2,1-0.5,1.8-0.7,2.7l-1.3,3.9h-1.4l-2.5-8.2H286.3z"/>
		<path class="st1" d="M299,368.6l1.1,4.2c0.2,0.9,0.5,1.8,0.6,2.6h0.1c0.2-0.8,0.5-1.7,0.7-2.6l1.3-4.2h1.3l1.3,4.1
			c0.3,1,0.5,1.9,0.7,2.7h0.1c0.1-0.8,0.4-1.7,0.6-2.7l1.2-4.1h1.5l-2.7,8.2h-1.4l-1.3-3.9c-0.3-0.9-0.5-1.7-0.7-2.7h0
			c-0.2,1-0.5,1.8-0.7,2.7l-1.3,3.9h-1.4l-2.5-8.2H299z"/>
		<path class="st1" d="M309.9,375.9c0-0.6,0.4-1.1,1-1.1c0.6,0,1,0.4,1,1.1c0,0.6-0.4,1.1-1,1.1C310.3,377,309.9,376.5,309.9,375.9z
			"/>
		<path class="st1" d="M313.5,375.3c0.4,0.3,1.2,0.6,2,0.6c1.1,0,1.6-0.5,1.6-1.2c0-0.7-0.4-1.1-1.5-1.5c-1.5-0.5-2.2-1.3-2.2-2.3
			c0-1.3,1.1-2.4,2.8-2.4c0.8,0,1.6,0.2,2,0.5l-0.4,1.1c-0.3-0.2-0.9-0.5-1.7-0.5c-0.9,0-1.4,0.5-1.4,1.1c0,0.7,0.5,1,1.6,1.4
			c1.4,0.5,2.2,1.3,2.2,2.5c0,1.4-1.1,2.5-3.1,2.5c-0.9,0-1.7-0.2-2.3-0.6L313.5,375.3z"/>
		<path class="st1" d="M327.4,374.6c0,0.9,0,1.6,0.1,2.2h-1.3l-0.1-1.3h0c-0.4,0.7-1.3,1.5-2.7,1.5c-1.3,0-2.8-0.7-2.8-3.6v-4.8h1.5
			v4.6c0,1.6,0.5,2.6,1.8,2.6c1,0,1.7-0.7,2-1.4c0.1-0.2,0.1-0.5,0.1-0.8v-5h1.5V374.6z"/>
		<path class="st1" d="M329.8,371.1c0-1,0-1.8-0.1-2.6h1.3l0.1,1.6h0.1c0.4-1.1,1.3-1.8,2.3-1.8c0.2,0,0.3,0,0.4,0.1v1.4
			c-0.2,0-0.3-0.1-0.5-0.1c-1.1,0-1.8,0.8-2,1.9c0,0.2-0.1,0.4-0.1,0.7v4.4h-1.5V371.1z"/>
		<path class="st1" d="M339.9,376.8l-0.1-1h-0.1c-0.5,0.6-1.3,1.2-2.5,1.2c-1.7,0-2.5-1.2-2.5-2.4c0-2,1.8-3.1,4.9-3.1v-0.2
			c0-0.7-0.2-1.9-1.9-1.9c-0.8,0-1.6,0.2-2.1,0.6l-0.3-1c0.7-0.4,1.7-0.7,2.7-0.7c2.5,0,3.1,1.7,3.1,3.4v3.1c0,0.7,0,1.4,0.1,2
			H339.9z M339.7,372.6c-1.6,0-3.5,0.3-3.5,1.9c0,1,0.6,1.4,1.4,1.4c1.1,0,1.8-0.7,2-1.4c0.1-0.2,0.1-0.3,0.1-0.5V372.6z"/>
		<path class="st1" d="M343.5,364.7h1.5v5.1h0c0.2-0.4,0.6-0.8,1.1-1.1c0.4-0.3,1-0.4,1.5-0.4c1.1,0,2.9,0.7,2.9,3.5v4.9H349v-4.7
			c0-1.3-0.5-2.4-1.9-2.4c-1,0-1.7,0.7-2,1.5c-0.1,0.2-0.1,0.4-0.1,0.7v5h-1.5V364.7z"/>
		<path class="st1" d="M358.6,375.5L358.6,375.5c-0.5,0.8-1.4,1.5-2.7,1.5c-1.9,0-3.5-1.7-3.5-4.2c0-3.1,2-4.4,3.7-4.4
			c1.3,0,2.1,0.6,2.5,1.4h0l0.1-1.2h1.4c0,0.7-0.1,1.4-0.1,2.3v9.3h-1.5V375.5z M358.6,371.9c0-0.2,0-0.4-0.1-0.6
			c-0.2-0.9-1-1.7-2.1-1.7c-1.5,0-2.5,1.3-2.5,3.2c0,1.6,0.8,3.1,2.4,3.1c1,0,1.8-0.6,2.1-1.6c0.1-0.2,0.1-0.5,0.1-0.7V371.9z"/>
		<path class="st1" d="M369.4,374.6c0,0.9,0,1.6,0.1,2.2h-1.3l-0.1-1.3h0c-0.4,0.7-1.3,1.5-2.7,1.5c-1.3,0-2.8-0.7-2.8-3.6v-4.8h1.5
			v4.6c0,1.6,0.5,2.6,1.8,2.6c1,0,1.7-0.7,2-1.4c0.1-0.2,0.1-0.5,0.1-0.8v-5h1.5V374.6z"/>
		<path class="st1" d="M371.9,371.1c0-1,0-1.8-0.1-2.6h1.3l0.1,1.6h0.1c0.4-1.1,1.3-1.8,2.3-1.8c0.2,0,0.3,0,0.4,0.1v1.4
			c-0.2,0-0.3-0.1-0.5-0.1c-1.1,0-1.8,0.8-2,1.9c0,0.2-0.1,0.4-0.1,0.7v4.4h-1.5V371.1z"/>
		<path class="st1" d="M381.9,376.8l-0.1-1h-0.1c-0.5,0.6-1.3,1.2-2.5,1.2c-1.7,0-2.5-1.2-2.5-2.4c0-2,1.8-3.1,4.9-3.1v-0.2
			c0-0.7-0.2-1.9-1.9-1.9c-0.8,0-1.6,0.2-2.1,0.6l-0.3-1c0.7-0.4,1.7-0.7,2.7-0.7c2.5,0,3.1,1.7,3.1,3.4v3.1c0,0.7,0,1.4,0.1,2
			H381.9z M381.7,372.6c-1.6,0-3.5,0.3-3.5,1.9c0,1,0.6,1.4,1.4,1.4c1.1,0,1.8-0.7,2-1.4c0.1-0.2,0.1-0.3,0.1-0.5V372.6z"/>
		<path class="st1" d="M385.6,370.8c0-0.9,0-1.5-0.1-2.2h1.3l0.1,1.4h0c0.4-0.8,1.4-1.5,2.7-1.5c1.1,0,2.9,0.7,2.9,3.5v4.9h-1.5
			v-4.7c0-1.3-0.5-2.4-1.9-2.4c-1,0-1.8,0.7-2,1.5c-0.1,0.2-0.1,0.4-0.1,0.7v4.9h-1.5V370.8z"/>
		<path class="st1" d="M394.6,375.9c0-0.6,0.4-1.1,1-1.1c0.6,0,1,0.4,1,1.1c0,0.6-0.4,1.1-1,1.1C395,377,394.6,376.5,394.6,375.9z"
			/>
		<path class="st1" d="M404.4,376.5c-0.4,0.2-1.3,0.5-2.4,0.5c-2.5,0-4.1-1.7-4.1-4.2c0-2.5,1.7-4.4,4.4-4.4c0.9,0,1.7,0.2,2.1,0.4
			l-0.3,1.2c-0.4-0.2-0.9-0.4-1.7-0.4c-1.9,0-2.9,1.4-2.9,3.1c0,1.9,1.2,3.1,2.9,3.1c0.8,0,1.4-0.2,1.8-0.4L404.4,376.5z"/>
		<path class="st1" d="M413.5,372.6c0,3-2.1,4.4-4.1,4.4c-2.2,0-3.9-1.6-3.9-4.2c0-2.8,1.8-4.4,4.1-4.4
			C411.9,368.4,413.5,370.1,413.5,372.6z M406.9,372.7c0,1.8,1,3.2,2.5,3.2c1.4,0,2.5-1.3,2.5-3.2c0-1.4-0.7-3.2-2.5-3.2
			S406.9,371.1,406.9,372.7z"/>
		<path class="st1" d="M415.4,370.8c0-0.9,0-1.5-0.1-2.2h1.3l0.1,1.3h0.1c0.5-0.8,1.2-1.5,2.6-1.5c1.1,0,2,0.7,2.3,1.6h0
			c0.3-0.5,0.6-0.8,0.9-1.1c0.5-0.4,1-0.6,1.8-0.6c1.1,0,2.7,0.7,2.7,3.6v4.8h-1.5v-4.7c0-1.6-0.6-2.5-1.8-2.5
			c-0.9,0-1.5,0.6-1.8,1.4c-0.1,0.2-0.1,0.5-0.1,0.7v5.1h-1.5v-4.9c0-1.3-0.6-2.3-1.7-2.3c-0.9,0-1.6,0.7-1.9,1.5
			c-0.1,0.2-0.1,0.5-0.1,0.7v5h-1.5V370.8z"/>
	</g>
</g>
<g id="Layer_4">
	<path class="st1" d="M527.1,115.1c2.6,0,4.2,2.7,4.7,8.2c-0.6,1.6-1.1,2.3-1.7,2.3l-4.1-3.5h-2.3c-1.9,0.9-2.9,2.8-2.9,5.9v11.7
		c-0.7,9-1.7,13.5-3,13.5h-1.2c-5.3-11.4-10.5-17-15.8-17c-2.7-1.7-4.3-3.6-4.7-5.9c0.2-3.5,1.1-5.2,2.9-5.2c3.2,0,9,5.1,17.6,15.2
		h0.6C517.2,123.5,520.5,115.1,527.1,115.1z M399.9,116.3c1.8,0,3,2.2,3.5,6.5l-0.6,9.9l5.3,5.9l0.5,3.5v0.6l-1.2,1.2h-0.5
		c-2.9-2.3-5.1-3.5-6.5-3.5h-1.2c-11.3,11.8-21.9,18.9-31.7,21.1v-1.2c16.7-11.2,26.1-18.6,28.1-22.3v-1.2l-4.1-5.9v-0.6
		C391.7,123,394.4,118.3,399.9,116.3z M567.6,116.3h2.3c1.8,0,3.3,3.1,4.7,9.4L574,128c0,3.3,1.4,7,4.1,11.2l0.5,1.7l-0.5,1.8h-1.8
		l-3.5-2.3c-1.8,0-5.1,2.9-9.9,8.8c-17.4,13.3-29.5,19.9-36.4,19.9c1-1.5,9.6-7.1,25.8-17c10.2-7.7,15.2-12.4,15.2-14.1
		c-4.3-3.1-6.5-6.4-6.5-10C563.2,120.2,565.4,116.3,567.6,116.3z M477.3,118.6v1.8c0,3.2-10.2,10.5-30.5,21.7l-21.7,13.5h-1.2
		l-0.5-2.3c0-3,7.2-8.3,21.7-15.9C464.5,124.9,475.3,118.6,477.3,118.6z M316.6,119.2h0.5c2.1,1.9,5.9,10.9,11.2,27l-0.6,1.7H326
		l-3-2.3l-0.5,0.6v0.5c6.5,54.4,10.8,81.5,12.9,81.5l0.5,0.5h0.6l9.9-1.2c7.5,0,11.8,4.5,12.9,13.5c-1.5,11.7-5.2,17.6-11.1,17.6
		c-4.6,0-10.7-5.1-18.2-15.2h-1.2l-25.2,8.2h-6.5c-4,0-8.7-2.6-14.1-7.7H282c-3.9,6.7-8.6,10-14.1,10c-2.2,0-5.9-2.3-11.1-7
		c-6,5.8-11.7,8.8-17,8.8c-5.3,0-9.6-3.1-12.9-9.4c-8.7,7.5-16.7,11.2-24,11.2c-13.2,0-21.8-10-25.8-29.9h-1.2
		c-5.7,9.7-15.7,19.3-29.9,28.8c-9.5,5.8-18.1,8.8-25.8,8.8c-4.4-0.8-8.3-3.2-11.7-7c-2.3-5.4-3.5-8.9-3.5-10.6v-8.2
		c0-3,2.7-12.4,8.2-28.1c-4.3-5.2-6.4-10.8-6.4-17c2.6-18.8,5.1-28.1,7.6-28.1v1.2c-2.3,8.3-3.7,14.8-4.1,19.3
		c0.1,8.3,2.2,13.8,6.4,16.4c1.8,0,3.2-2.5,4.1-7.6h0.5l1.2,1.2v2.3c0,4.5-2.9,10.3-8.8,17.6c-3.1,9.6-4.7,16.6-4.7,21.1
		c0,10.5,4.5,15.8,13.4,15.8h1.2c10.2,0,24.7-8.6,43.4-25.8l6.5-8.2v-4.7c-4.6-22.1-9.1-36.6-13.5-43.4c-1.9-3.9-2.9-7-2.9-9.4
		c0.3-4.3,0.8-6.4,1.7-6.4c6.2,5.8,10.3,12.6,12.4,20.5c5,11.2,8.9,27.6,11.7,49.3c3.8,13.7,10.6,20.6,20.5,20.6h1.8
		c9,0,17.4-4.5,25.2-13.5l2.3-1.7h1.2l0.6,1.7l-1.2,5.3c0,3.7,2.9,6,8.8,7h1.2c6.5,0,12.9-5.1,19.4-15.2h1.7l-1.2,6.4v1.2
		c1.7,3.5,4.2,5.3,7.7,5.3c4.5,0,9.4-4.9,14.6-14.7h1.8v3.5c0,5.1,5.1,8.2,15.2,9.4c13-2.3,21.2-5.5,24.6-9.4
		c-4.3-27.8-9-62.4-14.1-103.8C314.7,122,315.8,119.2,316.6,119.2z M354.1,119.8h2.3c4.1,8.9,7.6,19.1,10.6,30.5l-0.6,0.6h-1.2
		l-2.9-2.3h-1.2v3.5l9.4,76.2l-0.6,2.3v1.2l0.6,0.5l-0.6,0.6v1.7c0,10.9-1.4,17.1-4.1,18.8c-0.8,0-1.2-0.6-1.2-1.7
		c0-15.3-3.9-52-11.7-110.2c0-4.4-0.6-9.1-1.8-14.1L354.1,119.8z M147.1,122.1h2.3c2.8,1.8,4.1,4.6,4.1,8.2l-0.6,1.8h-1.7l-4.1-3
		h-1.2l-2.3,2.3v0.6c0,10.9-1.6,18.9-4.7,24h-1.2c-3.4-10.2-8.1-15.2-14.1-15.2c-3.1-2.2-4.7-4.3-4.7-6.4c0.3-3.5,1.3-5.3,3-5.3
		c4.3,1.5,10.2,6.8,17.6,15.9h0.5C140.1,133.2,142.4,125.5,147.1,122.1z M564.6,125.6c0.8,3.5,2.7,5.3,5.9,5.3h0.6v-3.5
		c0-2.1-0.8-3.5-2.3-4.1C566.6,123.3,565.2,124.1,564.6,125.6z M250.9,123.3h1.7v0.6l-2.3,10.6c0.6,5.8,1.8,8.8,3.5,8.8h1.2
		c1.6-0.8,2.3-1.7,2.3-2.9h1.2v0.5c0,4.1-1.6,7.2-4.7,9.4c-3.6,0-5.8-3.1-6.4-9.4v-1.7C247.4,136.1,248.6,130.8,250.9,123.3z
		 M395.7,125.6v1.8c0.8,1.9,2.2,2.9,4.1,2.9l0.5-2.9c0-1.6-0.8-2.7-2.3-3.5L395.7,125.6z M202.9,126.8h1.2
		c-2.3,9.9-3.5,16.8-3.5,20.6c0.8,6.3,2,9.4,3.5,9.4h2.3c0.9,0,1.9-1.8,2.9-5.3h0.6l0.5,1.8c0,5.4-1.7,9.5-5.2,12.3h-2.3
		c-3.9-1.1-5.9-5.8-5.9-14.1v-0.5C197,146.6,198.9,138.5,202.9,126.8z M301.9,138l0.6,2.3c0,3.3-7.4,7.6-22.3,12.9
		c-39.5,17.6-66,29.9-79.8,36.9l-0.6-0.5c0-6.3,9.2-12.9,27.6-19.9c24.6-11.7,49.2-22.5,73.9-32.3L301.9,138z M483.7,155h0.6
		l-2.3,8.8v2.9c0,3.3,1.2,5.7,3.5,7h2.3c0.6,0,1.4-1.4,2.3-4.1h0.5l0.6,1.7c-1.5,6.7-3.4,10-5.9,10c-4.3-1.7-6.5-5.4-6.5-11.2
		C480.4,161.1,482,156.1,483.7,155z M409.3,159.7c5.5,3.8,8.2,6.9,8.2,9.4c-1.2,2.5-2.8,4.7-4.7,6.5h-1.2l-6.5-4.7h-1.7
		c-0.6,0-2,2-4.1,5.9l-0.5,0.5h-0.6c-2.7,0-6-2.3-9.9-7c0.2-2.8,2-5.7,5.2-8.8l8.2,4.7c1-0.2,2.8-2.3,5.3-6.5H409.3z M571.1,159.7
		v1.2l-1.8,5.9v5.3c0,3.1,1.4,4.7,4.1,4.7c1.1,0,1.7-0.6,1.7-1.8l0.6-0.5h1.2c0,3.9-1.6,6.8-4.7,8.8h-0.6c-3.5-0.7-5.2-3.7-5.2-9
		S568,164,571.1,159.7z M343,169v1.2l-2.3,12.9c1.4,3.1,2.5,4.7,3.5,4.7l1.8-2.9h0.5l1.2,1.2c-1.6,5.8-3.3,8.8-5.4,8.8
		c-2,0-3.7-2.5-5.2-7.6C337.1,180.5,339.1,174.4,343,169z M442.1,171.4h1.2l12.3,12.9v0.6c0,0.8-1.2,1.2-3.5,1.2l-0.5,1.7
		c6.6,11.1,9.9,18.3,9.9,21.7c0,11.7-5.1,21.1-15.2,28.1c-1.6,2.5-2.3,4.5-2.3,5.9v5.9c0,7.7,4.9,12.9,14.7,15.8l4.1,0.6
		c14.5,0,31.4-11.3,50.4-34V230c0-1-0.8-1.6-2.3-1.7l-15.2,2.3c-8.6-1.1-12.9-4.6-12.9-10.6v-1.8c0-8.4,4.1-14.5,12.4-18.1h2.3
		c5,0,11,4.5,18.1,13.4c1.9,0,8.6-4.1,19.9-12.3h1.8c1,10.5,3.9,15.8,8.8,15.8c0,0.5,2.3,0.9,7,1.2c6.8,0,13.1-6,18.8-18.1l2.3-1.8
		h0.6v1.8l-1.8,5.9v1.7c0,2.1,3.7,4,11.2,5.9h2.3c2,0,3.2-0.6,3.5-1.7v-0.6l-3-6.4c0.8-5.9,1.8-8.8,3-8.8c3.5,3,5.2,7.7,5.2,14.1
		c-1.1,10.2-5.1,15.2-11.7,15.2c-4.9,0-10-2.5-15.2-7.6c-6.3,7.8-13,11.7-20.2,11.7s-12.2-4.9-15-14.7h-1.2
		c-9,6.3-13.4,10-13.4,11.2v1.2c0,10.1-5.5,19.6-16.4,28.7c-14.9,14.1-26.2,21.1-34,21.1l-2.3,0.6h-3c-10.9,0-18.4-5.9-22.3-17.6
		l-0.5-8.8v-0.5l0.5-5.3l-1.2-1.7c-12.2,8.2-24.6,15.4-36.9,21.7c-2.2,2.1-14.8,5.3-37.5,9.4l-5.3,1.2v-1.2
		c1.2-1.3,11.6-6,31.1-14.1c22.2-11.3,42.3-24.2,60.4-38.7l5.3-6.4c0-1.7-4.1-10.3-12.4-25.8l-3.5-10L442.1,171.4z M313.1,172h1.2
		l0.5,2.9c0,2.2-6.8,5.6-20.5,10c-20.5,9.9-31.8,15-34,15.2v-2.3c0-3.3,5.7-6.8,17-10.6C286.9,182.1,298.9,177.1,313.1,172z
		 M419.8,180.2c0,5.1-3.3,12.5-10,22.3c0,0.7,2.6,3,7.7,7c2.3,2.9,3.9,6.4,4.7,10.6c0,11.6-8,19.2-24.1,22.8c-3.6,0-5.9-3.5-7-10.6
		c0-6.2,2-14,5.9-23.5c-10.5-8.9-15.8-14.4-15.8-16.4v-1.7c0-4.3,0.6-6.5,1.7-6.5h1.2l14.1,6.5v1.2l-1.7,2.3v0.5
		c2.4,2.9,4.5,4.5,6.4,4.7c1.1,0,6.4-6.4,15.9-19.3H419.8z M148.3,190.2v0.6l-2.3,12.3c0,2.1,1.2,3.9,3.5,5.3h0.6l2.9-2.3v2.3
		c0,2.4-1.6,4.8-4.7,7h-0.5c-3.5-2.2-5.3-5.1-5.3-8.8C144.4,195.6,146.4,190.2,148.3,190.2z M225.1,191.3v0.6
		c-1.6,5.2-2.3,9.3-2.3,12.3c0.2,5.5,2,8.2,5.2,8.2l2.3-2.9h0.6v0.5c-0.6,6.3-2.6,9.4-5.9,9.4c-3.5-1.7-5.3-4.8-5.3-9.4v-2.3
		C219.8,201.5,221.6,196.1,225.1,191.3z M490.2,216c0.4,1.6,1.5,2.3,3.5,2.3h7.6l1.8-1.2c0-1.9-2.3-3.5-7-4.7
		C492.1,212.7,490.2,213.9,490.2,216z M395.7,227.1c0.5,2.7,2.2,4.1,5.3,4.1c4.5,0,9.4-2.9,14.6-8.8c0-3.1-3.9-6.1-11.7-8.8
		C399.7,214.4,396.9,218.9,395.7,227.1z M341.2,240.6c2.2,3.5,5.1,5.3,8.8,5.3h1.2c0.8,0,1.2-0.6,1.2-1.8c-1.7-3.1-4.6-4.7-8.8-4.7
		h-1.2L341.2,240.6z M581,239.4l0.6,0.6v0.5c-2,8.2-4.1,12.4-6.5,12.4l-7.6-0.6c-2.1,2.3-4.7,3.5-7.7,3.5l-4.7-2.3h-3.5
		c-4.4,1.3-12,6-22.8,14.1l-8.2,1.8c19.2-14.9,31-22.3,35.2-22.3l6.4,2.3c3.3,0,6.3-2.2,8.8-6.5h0.5c0,2.3,1.4,3.5,4.1,3.5h1.2
		c0.8,0,1.8-2.1,2.9-6.4l0.6-0.6H581z M320.1,256.5h0.5l1.2,4.1v1.2c0,6.2-3.7,11.8-11.1,17h-0.6v-1.2c5.1-6.3,7.7-10,7.7-11.2v-1.7
		c0-0.8-0.6-1.2-1.8-1.2l-2.9,1.7h-0.6C313.9,259.4,316.4,256.5,320.1,256.5z M181.1,257.6v2.3c-1.9,3.8-12.1,10.2-30.5,19.3h-1.2
		v-1.2c0-2.7,5.9-7,17.6-12.9C174.4,260.2,179.1,257.6,181.1,257.6z M249.8,261.1c2.7,0,4.1,1.6,4.1,4.7c0,5.2-3.1,9.9-9.4,14.1
		v-0.6c3.9-5.5,5.9-9,5.9-10.6l-1.7-0.5l-4.1,2.3h-0.5C243.9,266.9,245.9,263.8,249.8,261.1z"/>
</g>
</svg>
