<?xml version="1.0" encoding="utf-8"?>
<!-- Generator: Adobe Illustrator 25.2.3, SVG Export Plug-In . SVG Version: 6.00 Build 0)  -->
<svg version="1.1" xmlns="http://www.w3.org/2000/svg" xmlns:xlink="http://www.w3.org/1999/xlink" x="0px" y="0px"
	 viewBox="0 0 700 395" style="enable-background:new 0 0 700 395;" xml:space="preserve">
<style type="text/css">
	.st0{fill:#000222;}
	.st1{fill:#FFFFFF;}
</style>
<g id="Layer_1">
	<rect class="st0" width="700" height="395"/>
</g>
<g id="Layer_3">
	<g>
		<path class="st1" d="M273.5,368.6l1.1,4.2c0.2,0.9,0.5,1.8,0.6,2.6h0.1c0.2-0.8,0.5-1.7,0.7-2.6l1.3-4.2h1.3l1.3,4.1
			c0.3,1,0.5,1.9,0.7,2.7h0.1c0.1-0.8,0.4-1.7,0.6-2.7l1.2-4.1h1.5l-2.7,8.2H280l-1.3-3.9c-0.3-0.9-0.5-1.7-0.7-2.7h0
			c-0.2,1-0.5,1.8-0.7,2.7l-1.3,3.9h-1.4l-2.5-8.2H273.5z"/>
		<path class="st1" d="M286.3,368.6l1.1,4.2c0.2,0.9,0.5,1.8,0.6,2.6h0.1c0.2-0.8,0.5-1.7,0.7-2.6l1.3-4.2h1.3l1.3,4.1
			c0.3,1,0.5,1.9,0.7,2.7h0.1c0.1-0.8,0.4-1.7,0.6-2.7l1.2-4.1h1.5l-2.7,8.2h-1.4l-1.3-3.9c-0.3-0.9-0.5-1.7-0.7-2.7h0
			c-0.2,1-0.5,1.8-0.7,2.7l-1.3,3.9h-1.4l-2.5-8.2H286.3z"/>
		<path class="st1" d="M299,368.6l1.1,4.2c0.2,0.9,0.5,1.8,0.6,2.6h0.1c0.2-0.8,0.5-1.7,0.7-2.6l1.3-4.2h1.3l1.3,4.1
			c0.3,1,0.5,1.9,0.7,2.7h0.1c0.1-0.8,0.4-1.7,0.6-2.7l1.2-4.1h1.5l-2.7,8.2h-1.4l-1.3-3.9c-0.3-0.9-0.5-1.7-0.7-2.7h0
			c-0.2,1-0.5,1.8-0.7,2.7l-1.3,3.9h-1.4l-2.5-8.2H299z"/>
		<path class="st1" d="M309.9,375.9c0-0.6,0.4-1.1,1-1.1c0.6,0,1,0.4,1,1.1c0,0.6-0.4,1.1-1,1.1C310.3,377,309.9,376.5,309.9,375.9z
			"/>
		<path class="st1" d="M313.5,375.3c0.4,0.3,1.2,0.6,2,0.6c1.1,0,1.6-0.5,1.6-1.2c0-0.7-0.4-1.1-1.5-1.5c-1.5-0.5-2.2-1.3-2.2-2.3
			c0-1.3,1.1-2.4,2.8-2.4c0.8,0,1.6,0.2,2,0.5l-0.4,1.1c-0.3-0.2-0.9-0.5-1.7-0.5c-0.9,0-1.4,0.5-1.4,1.1c0,0.7,0.5,1,1.6,1.4
			c1.4,0.5,2.2,1.3,2.2,2.5c0,1.4-1.1,2.5-3.1,2.5c-0.9,0-1.7-0.2-2.3-0.6L313.5,375.3z"/>
		<path class="st1" d="M327.4,374.6c0,0.9,0,1.6,0.1,2.2h-1.3l-0.1-1.3h0c-0.4,0.7-1.3,1.5-2.7,1.5c-1.3,0-2.8-0.7-2.8-3.6v-4.8h1.5
			v4.6c0,1.6,0.5,2.6,1.8,2.6c1,0,1.7-0.7,2-1.4c0.1-0.2,0.1-0.5,0.1-0.8v-5h1.5V374.6z"/>
		<path class="st1" d="M329.8,371.1c0-1,0-1.8-0.1-2.6h1.3l0.1,1.6h0.1c0.4-1.1,1.3-1.8,2.3-1.8c0.2,0,0.3,0,0.4,0.1v1.4
			c-0.2,0-0.3-0.1-0.5-0.1c-1.1,0-1.8,0.8-2,1.9c0,0.2-0.1,0.4-0.1,0.7v4.4h-1.5V371.1z"/>
		<path class="st1" d="M339.9,376.8l-0.1-1h-0.1c-0.5,0.6-1.3,1.2-2.5,1.2c-1.7,0-2.5-1.2-2.5-2.4c0-2,1.8-3.1,4.9-3.1v-0.2
			c0-0.7-0.2-1.9-1.9-1.9c-0.8,0-1.6,0.2-2.1,0.6l-0.3-1c0.7-0.4,1.7-0.7,2.7-0.7c2.5,0,3.1,1.7,3.1,3.4v3.1c0,0.7,0,1.4,0.1,2
			H339.9z M339.7,372.6c-1.6,0-3.5,0.3-3.5,1.9c0,1,0.6,1.4,1.4,1.4c1.1,0,1.8-0.7,2-1.4c0.1-0.2,0.1-0.3,0.1-0.5V372.6z"/>
		<path class="st1" d="M343.5,364.7h1.5v5.1h0c0.2-0.4,0.6-0.8,1.1-1.1c0.4-0.3,1-0.4,1.5-0.4c1.1,0,2.9,0.7,2.9,3.5v4.9H349v-4.7
			c0-1.3-0.5-2.4-1.9-2.4c-1,0-1.7,0.7-2,1.5c-0.1,0.2-0.1,0.4-0.1,0.7v5h-1.5V364.7z"/>
		<path class="st1" d="M358.6,375.5L358.6,375.5c-0.5,0.8-1.4,1.5-2.7,1.5c-1.9,0-3.5-1.7-3.5-4.2c0-3.1,2-4.4,3.7-4.4
			c1.3,0,2.1,0.6,2.5,1.4h0l0.1-1.2h1.4c0,0.7-0.1,1.4-0.1,2.3v9.3h-1.5V375.5z M358.6,371.9c0-0.2,0-0.4-0.1-0.6
			c-0.2-0.9-1-1.7-2.1-1.7c-1.5,0-2.5,1.3-2.5,3.2c0,1.6,0.8,3.1,2.4,3.1c1,0,1.8-0.6,2.1-1.6c0.1-0.2,0.1-0.5,0.1-0.7V371.9z"/>
		<path class="st1" d="M369.4,374.6c0,0.9,0,1.6,0.1,2.2h-1.3l-0.1-1.3h0c-0.4,0.7-1.3,1.5-2.7,1.5c-1.3,0-2.8-0.7-2.8-3.6v-4.8h1.5
			v4.6c0,1.6,0.5,2.6,1.8,2.6c1,0,1.7-0.7,2-1.4c0.1-0.2,0.1-0.5,0.1-0.8v-5h1.5V374.6z"/>
		<path class="st1" d="M371.9,371.1c0-1,0-1.8-0.1-2.6h1.3l0.1,1.6h0.1c0.4-1.1,1.3-1.8,2.3-1.8c0.2,0,0.3,0,0.4,0.1v1.4
			c-0.2,0-0.3-0.1-0.5-0.1c-1.1,0-1.8,0.8-2,1.9c0,0.2-0.1,0.4-0.1,0.7v4.4h-1.5V371.1z"/>
		<path class="st1" d="M381.9,376.8l-0.1-1h-0.1c-0.5,0.6-1.3,1.2-2.5,1.2c-1.7,0-2.5-1.2-2.5-2.4c0-2,1.8-3.1,4.9-3.1v-0.2
			c0-0.7-0.2-1.9-1.9-1.9c-0.8,0-1.6,0.2-2.1,0.6l-0.3-1c0.7-0.4,1.7-0.7,2.7-0.7c2.5,0,3.1,1.7,3.1,3.4v3.1c0,0.7,0,1.4,0.1,2
			H381.9z M381.7,372.6c-1.6,0-3.5,0.3-3.5,1.9c0,1,0.6,1.4,1.4,1.4c1.1,0,1.8-0.7,2-1.4c0.1-0.2,0.1-0.3,0.1-0.5V372.6z"/>
		<path class="st1" d="M385.6,370.8c0-0.9,0-1.5-0.1-2.2h1.3l0.1,1.4h0c0.4-0.8,1.4-1.5,2.7-1.5c1.1,0,2.9,0.7,2.9,3.5v4.9h-1.5
			v-4.7c0-1.3-0.5-2.4-1.9-2.4c-1,0-1.8,0.7-2,1.5c-0.1,0.2-0.1,0.4-0.1,0.7v4.9h-1.5V370.8z"/>
		<path class="st1" d="M394.6,375.9c0-0.6,0.4-1.1,1-1.1c0.6,0,1,0.4,1,1.1c0,0.6-0.4,1.1-1,1.1C395,377,394.6,376.5,394.6,375.9z"
			/>
		<path class="st1" d="M404.4,376.5c-0.4,0.2-1.3,0.5-2.4,0.5c-2.5,0-4.1-1.7-4.1-4.2c0-2.5,1.7-4.4,4.4-4.4c0.9,0,1.7,0.2,2.1,0.4
			l-0.3,1.2c-0.4-0.2-0.9-0.4-1.7-0.4c-1.9,0-2.9,1.4-2.9,3.1c0,1.9,1.2,3.1,2.9,3.1c0.8,0,1.4-0.2,1.8-0.4L404.4,376.5z"/>
		<path class="st1" d="M413.5,372.6c0,3-2.1,4.4-4.1,4.4c-2.2,0-3.9-1.6-3.9-4.2c0-2.8,1.8-4.4,4.1-4.4
			C411.9,368.4,413.5,370.1,413.5,372.6z M406.9,372.7c0,1.8,1,3.2,2.5,3.2c1.4,0,2.5-1.3,2.5-3.2c0-1.4-0.7-3.2-2.5-3.2
			S406.9,371.1,406.9,372.7z"/>
		<path class="st1" d="M415.4,370.8c0-0.9,0-1.5-0.1-2.2h1.3l0.1,1.3h0.1c0.5-0.8,1.2-1.5,2.6-1.5c1.1,0,2,0.7,2.3,1.6h0
			c0.3-0.5,0.6-0.8,0.9-1.1c0.5-0.4,1-0.6,1.8-0.6c1.1,0,2.7,0.7,2.7,3.6v4.8h-1.5v-4.7c0-1.6-0.6-2.5-1.8-2.5
			c-0.9,0-1.5,0.6-1.8,1.4c-0.1,0.2-0.1,0.5-0.1,0.7v5.1h-1.5v-4.9c0-1.3-0.6-2.3-1.7-2.3c-0.9,0-1.6,0.7-1.9,1.5
			c-0.1,0.2-0.1,0.5-0.1,0.7v5h-1.5V370.8z"/>
	</g>
</g>
<g id="Layer_4">
	<path class="st1" d="M316.2,119.3h3.7c4.5,0.6,6.7,2.6,6.7,5.8v1.5c0,7.4-10.4,20.4-31.2,39V165c0-3.8,7.5-13,22.4-27.5l3.1-4.2
		v-1.6c0-1.7-2.4-2.6-7.3-2.6c-7.7,0-24.8,5.4-51.5,16.1c-19,9-28.9,14.9-29.6,17.7c1.3,2,10.2,7.9,26.5,17.7
		c12.5,6.9,27.2,17.8,44.2,32.8c9.7,12.5,19.9,18.7,30.6,18.7c7.6-2,11.4-3.8,11.4-5.2c-1-14.4-4.3-43.7-9.8-87.9
		c0-2.4,1.4-5.1,4.2-8.3c6.6,13.3,9.8,20.9,9.8,22.9l-0.5,1.6h-1l-3.7-3.1h-0.5v4.6c4.5,32.8,6.7,55.8,6.7,69.2
		c-2.2,9-5,13.5-8.3,13.5c-3,2.1-6.5,3.1-10.4,3.1h-1c-8,0-17.7-6.6-29.1-19.8c-9.8-9.1-16.4-14.7-19.8-16.6h-1.5v0.5
		c1.4,4.2,2.1,8.7,2.1,13.5v0.6c0,4.4-4.2,8.9-12.5,13.5c-1.5,8.8-4.1,15.1-7.8,18.7c-15.9,14.6-28.7,21.8-38.5,21.8h-1.5
		c-8,0-13.8-4.2-17.2-12.5c-1.4-4.3-2.1-8.6-2.1-13l0.6-8.3h-0.6c-24.5,17-42.5,25.5-54.1,25.5c-12.4,1.4-20.4,2.6-23.9,3.6
		l-2.1-0.5V269c2.8-2.3,13.7-6.1,32.8-11.4l28.6-14c0.1-0.6,4.3-3.4,12.5-8.3c7.3-5.5,10.9-9.1,10.9-11v-1c0-1.8-2.4-8-7.3-18.7V204
		c0.2-4.5,0.9-6.8,2.1-6.8c3.1,3.8,6.3,5.8,9.4,5.8h3.1c2.5,0,7-3.7,13.5-11h1.5c1.1,0,2.1,2.3,3.1,6.8l-0.5,0.5v0.6
		c0,7.9-0.9,11.9-2.6,11.9h-0.5l-0.6-2.6v-5.8l-1-1h-0.5c-6,6.7-11,10.5-15.1,11.4l-0.5,0.6v4.6c0,6.7-1.4,13.1-4.2,19.3l-1,7.8
		c1.7,12.2,7.2,18.2,16.6,18.2h1c9.5,0,20.9-6.1,34.3-18.2c4.5-4.5,6.7-7.6,6.7-9.4l-1.5-1l-12.5,1c-7.3-1.6-10.9-5.2-10.9-10.9
		v-0.6c2-10,6.3-15,13-15h1c1.7,0,5.8,4.2,12.5,12.5h1.5c6.2-1.4,9.4-3.5,9.4-6.2v-1c-7-10.1-18.8-21.5-35.3-34.3
		c-9.3-7.3-14-11.8-14-13.5v-3.1c0-9.9,8.5-17.9,25.4-23.9c15.7-7.6,34.1-14.4,55.1-20.3L316.2,119.3z M256.5,123.4h0.5
		c0.7,0,1,0.5,1,1.6c-0.1,2.1-12,8.7-35.8,19.8l-0.6-0.6v-0.5C221.6,140.5,233.2,133.8,256.5,123.4z M225.8,124l1,1.5
		c0,2.8-8,7.3-23.9,13.5c-20.1,11.6-30.3,18.3-30.6,20.3v1l3.6,3.6c0,1.9-0.9,2.9-2.6,3.1c-2.8-0.8-4.2-2.6-4.2-5.2
		c0-7.5,8.8-15.1,26.5-22.9C203.4,134.1,213.5,129.1,225.8,124z M366.1,131.7c6.6,12.9,9.9,21.4,9.9,25.5l-0.6,0.5h-1l-3.1-2.6h-0.5
		v3.1l7.8,62.9l-0.5,0.6l0.5,7.3c-1.1,13.9-2.7,20.8-4.6,20.8l-1-1l0.5-9.4L363,139v-1C364,133.8,365.1,131.7,366.1,131.7z
		 M405.6,131.7h0.6c1.7,1,2.6,2.7,2.6,5.2l-0.5,9.4c3.5,2.6,5.2,4.9,5.2,6.7s-0.5,2.9-1.6,3.2h-0.5l-4.7-3.7h-0.5
		c-1.4,0-3.2,1.4-5.2,4.2c-8.4,7.9-16,12.5-22.9,14.1v-1l17.1-13c0.6,0,2.6-1.9,5.8-5.7v-1l-3.1-7.3
		C399.6,135.4,402.2,131.7,405.6,131.7z M515.8,131.7h2.1c2.8,2,4.2,3.9,4.2,5.8c-0.7,2.1-1.4,3.1-2.1,3.1h-0.5
		c-1.8-1.8-3.4-2.6-4.7-2.6h-0.5c-1.5,0-2.6,7.3-3.1,21.8l-1.6,5.8h-1c-4.9-10.1-9.3-15.1-13-15.1c-1,0-2.7-1.5-5.2-4.6v-1
		c0-2.7,0.7-4.3,2.1-4.7h0.5c3.3,0,8.4,4.5,15.1,13.5h0.5C508.5,141.7,511,134.5,515.8,131.7z M555.3,132.8c3.1,0,4.7,5.4,4.7,16.1
		c1.1,0.5,2.1,1.8,3.1,4.2c-0.4,2.1-0.9,3.1-1.6,3.1h-0.5l-3.1-2.1c-1.5,0-5.7,3.6-12.5,10.9c-15.3,9.7-24.6,14.6-28.1,14.6
		l-0.6-0.5v-0.6c14.6-8.5,26.2-16.7,34.9-24.4l1-2.1c-3.5-4-5.2-6.6-5.2-7.8c1.3-7.6,3.4-11.4,6.2-11.4H555.3z M473.2,133.8l1,1.6
		c0,2.7-6.2,7.2-18.7,13.5L427,166.6l-1-1c0-3.3,3.5-6.6,10.4-9.9C445.7,149.2,458,141.9,473.2,133.8z M158.8,136.9v1
		c-1.1,3.5-1.6,6.4-1.6,8.9c0.5,4.5,1.3,6.7,2.6,6.7h1l2.6-2.1l1,1c-1.5,4.5-3.6,6.8-6.2,6.8c-2.8-1.9-4.2-4.6-4.2-7.8V151
		C154,146.1,155.6,141.4,158.8,136.9z M402,139.6v2.1c0.7,1.4,1.7,2.1,3.1,2.1l0.5-0.6V140l-1.5-1.5h-1L402,139.6z M550.7,141.6
		c0,1.3,1.7,2.7,5.2,4.2l0.5-0.6v-2.6c0-1.9-0.7-3.1-2.1-3.7h-1.5C551.4,139.7,550.7,140.6,550.7,141.6z M205.5,151h2.1
		c3.8,2.3,5.7,4.7,5.7,7.3c-1.8,4.5-3.7,6.7-5.7,6.7v0.6c1.2,2.1,2.7,3.1,4.6,3.1c1.4-3.5,3.1-5.2,5.2-5.2h0.6
		c4.2,2.8,6.2,5.1,6.2,6.7c-1.5,3.8-2.9,5.9-4.2,6.2h-1.6c-3.3-2.8-5.4-4.2-6.2-4.2c-1.9,3.5-3.3,5.4-4.2,5.8H206
		c-4.5-2.8-6.7-5.2-6.7-7.3c1.3-3.6,2.7-5.6,4.2-6.2l3.6,0.5v-0.5c-3.5-3.7-5.2-6-5.2-6.8C203.2,153.8,204.5,151.6,205.5,151z
		 M277.3,152.5h1l-2.1,9.4v4.2c1,2.4,2.4,3.7,4.2,3.7c0.7,0,1-0.5,1-1.6l0.5-0.5h0.6l0.5,0.5h0.6c-1.8,5.5-3.3,8.3-4.7,8.3
		c-3.8-1.1-5.7-4.3-5.7-9.8C273.1,164.4,274.5,159.7,277.3,152.5z M479.4,166h0.6c-1.8,3.7-2.6,7.2-2.6,10.4v0.6
		c0,2.6,1.4,4.9,4.2,6.7l3.7-4.2l0.5,0.6v0.5c-0.9,6.2-2.8,9.4-5.7,9.4c-3.5-1.6-5.2-5-5.2-10.4C475.9,172.3,477.4,167.8,479.4,166z
		 M413.9,170.2c4.5,3.2,6.8,5.7,6.8,7.6c0,1.8-1.6,4-4.7,6.5h-0.5l-6.2-4.7h-0.6c-1,0.3-2.4,2.2-4.2,5.8l-0.5,0.5H402
		c-4.2-2.9-6.6-4.9-7.3-6.2v-0.5c1.4-4.5,2.8-6.8,4.2-6.8h0.5l7.3,3.7c0.7,0,2.3-1.9,4.7-5.8H413.9z M556.4,170.7v0.5
		c0,1.9-0.7,3.3-2.1,4.2v-0.5C554.7,172.3,555.4,170.9,556.4,170.7z M324,174.9c3.1,1.7,4.6,3.6,4.6,5.7c-0.3,1.8-1,2.6-2.1,2.6
		c-2.1-1.4-3.6-2.1-4.6-2.1h-0.6c-1,0.3-1.5,1.4-1.5,3.1v4.6c-0.7,10.8-2.1,16.5-4.2,17.2c-4.2-11.1-9.1-16.6-14.6-16.6l-2.6-4.2
		c0-2.2,0.9-3.7,2.6-4.7c3.7,0,8.7,5,15,15.1l0.6-0.6v-2.6C316.8,182.2,319.2,176.3,324,174.9z M553.8,175.4h0.5
		c0,7.3,0.9,11,2.6,11h1l2.6-2.1h0.6v1c0,2.5-1.6,4.9-4.7,7.3c-3.1-0.9-4.6-4-4.6-9.4L553.8,175.4z M442,181.1h1.6
		c6.9,6.2,10.4,10.2,10.4,11.9v0.6l-3.7,0.5v1c5.2,10.2,7.8,15.9,7.8,17.2l0.5,4.2c0,8.3-3.6,15-10.9,20.2
		c-3.5,2.6-5.2,6.1-5.2,10.4c0,9.6,4.9,15.3,14.6,17.2h5.2c8.8,0,21.3-8,37.4-23.9l4.2-5.2v-2.6l-1-1c-5.7,1.4-11.1,2.1-16.1,2.1
		c-5.5,0-8.7-3.6-9.4-10.9v-1.6c0-6.6,4.2-11.6,12.5-15c5.6,1.2,10,4,13,8.3c1.4,2.8,2.6,4.2,3.6,4.2c2.9-0.6,8.6-4.2,17.2-11h0.5
		l2.1,1.6v4.2c0,4.5,3.3,7.6,9.9,9.4h2.6c7,0,12.8-5.2,17.2-15.6l2.1-1.6l1,1l-2.1,6.2c0,2.4,3.3,4.5,9.8,6.2
		c3.5-0.3,5.2-0.8,5.2-1.5V217c0-1.3-0.9-3.2-2.6-5.7l2.1-7.8h1c1.8,0,3.4,4.3,4.6,13c-1.2,8.6-5,13-11.4,13
		c-4.2,0-8.3-2.2-12.5-6.7c-5.7,5.5-9,8.3-9.8,8.3l-7.8,2.1c-8.6-1.6-13-5.4-13-11.4c-0.9-1.1-1.8-1.6-2.6-1.6
		c0,0.6-2.6,2.5-7.8,5.8c-2.8,2.2-4.2,6.1-4.2,11.9c-8.1,15.9-21.6,27.9-40.5,35.9l-9.9,1c-12.1-1.7-18.2-9.5-18.2-23.4V245h-1.6
		c-13.8,9.5-26.5,16.4-37.9,20.8l-30.1,6.2l-0.6-0.5V271c1.1-1.2,9.8-5,26-11.4c17.5-7.9,35.3-19.4,53.6-34.3c3.5-3,5.2-5.1,5.2-6.2
		c-6.7-13.5-11.3-23.7-13.5-30.6v-1L442,181.1z M176.9,186.3c1.9,0,3.7,1.9,5.2,5.7c-0.7,2.1-1.4,3.1-2.1,3.1
		c-2.4-1.7-4.1-2.6-5.2-2.6l-1,2.1c0,20.6-4.9,33.6-14.6,38.9l-6.7,3.7h-1.6v-0.6c11.5-9.7,17.2-15.5,17.2-17.1l0.5-3.7
		c-4.2-9-8.3-13.5-12.5-13.5c-2.4-2.6-3.6-4.5-3.6-5.7c0.5-2.4,1.2-3.7,2.1-3.7c3.4,0,8.4,4.7,15,14.1h1v-0.6l0.6-3.1l-0.6-5.7v-1.6
		C171.9,189.6,174,186.3,176.9,186.3z M421.8,188.4h1v0.5c0,4.5-3,10.6-8.9,18.2c0,1.5,2.6,4.3,7.8,8.3l2.6,7.8
		c0,9.9-6.7,16.9-20.2,20.8c-3.6,0-6.3-2.9-7.8-8.8c0-4.8,1.9-11.9,5.8-21.3c-9.4-8.2-14.1-13.5-14.1-16.1v-1.6
		c0-2.6,0.7-4.2,2.1-4.6c6.5,2.2,11,4.4,13.5,6.7c0,1.1-0.7,1.6-2.1,1.6v1.5c2,2.4,4.4,3.7,7.3,3.7L421.8,188.4z M400.4,228.4
		c0,2.2,0.9,3.7,2.6,4.7h2.6c9-2.5,13.5-5.3,13.5-8.3c-3.7-3.9-7.7-6.4-11.9-7.3C405,219,402.7,222.6,400.4,228.4z M484.1,221.7
		l3.1,1h7.3l1-1v-0.6l-3.7-3.1h-5.2C485,218.7,484.1,219.9,484.1,221.7z M247.1,224.3l2.6,1.6h6.2l1-1c0-1-1.2-2.2-3.6-3.7h-3.7
		C248,222,247.1,223,247.1,224.3z M356.8,236.2h0.6v1h0.5c-2.8,4.7-4.2,9.2-4.2,13.5v0.5c0.5,3.8,1.4,5.8,2.6,5.8h1.5l2.1-1.6
		l0.6,0.6c-0.9,4.5-2.8,6.7-5.8,6.7h-0.5c-2.4-1.9-3.7-4.4-3.7-7.3C350.5,249.7,352.6,243.3,356.8,236.2z M564.2,241.9l0.5,0.6v0.5
		c0,4.7-2.2,8.5-6.7,11.4l-5.2-1l-6.8,3.1c-3.8-1.7-6.4-2.6-7.8-2.6c-2.6,0.8-8.8,4.4-18.7,10.9c-2.8,1.8-5.7,2.8-8.9,3.1v-0.5
		c17.8-12.8,27.8-19.3,30.1-19.3l7.3,2.6c1.8-0.4,4.3-2.3,7.3-5.8h0.6c0,2.1,1.2,3.1,3.6,3.1h0.6c0.6,0,1.7-1.9,3.1-5.7l0.5-0.6
		H564.2z M303.7,243c1.3,0,2.7,3,4.2,8.9l-0.5,1.5h-1.6l-3.1-3.6h-1.5c0,6.3-1.4,13.4-4.2,21.3h-1.6c-3.1-9-7.3-13.5-12.5-13.5
		c-1-1.2-1.5-2.4-1.5-3.6c0-2.7,0.7-4.3,2.1-4.7h1.5c3.4,2.3,7.2,6.3,11.4,12h1C297.5,249,299.6,243,303.7,243z M195.6,261.7l1,1
		c0,2.7-4,5.2-11.9,7.3c-5.9,3.8-10.4,5.8-13.5,5.8l-0.6-0.6C170.7,272,179,267.5,195.6,261.7z"/>
</g>
</svg>
