<?xml version="1.0" encoding="utf-8"?>
<!-- Generator: Adobe Illustrator 25.2.3, SVG Export Plug-In . SVG Version: 6.00 Build 0)  -->
<svg version="1.1" xmlns="http://www.w3.org/2000/svg" xmlns:xlink="http://www.w3.org/1999/xlink" x="0px" y="0px"
	 viewBox="0 0 700 395" style="enable-background:new 0 0 700 395;" xml:space="preserve">
<style type="text/css">
	.st0{fill:#000222;}
	.st1{fill:#FFFFFF;}
</style>
<g id="Layer_1">
	<rect class="st0" width="700" height="395"/>
</g>
<g id="Layer_3">
	<g>
		<path class="st1" d="M273.5,368.6l1.1,4.2c0.2,0.9,0.5,1.8,0.6,2.6h0.1c0.2-0.8,0.5-1.7,0.7-2.6l1.3-4.2h1.3l1.3,4.1
			c0.3,1,0.5,1.9,0.7,2.7h0.1c0.1-0.8,0.4-1.7,0.6-2.7l1.2-4.1h1.5l-2.7,8.2H280l-1.3-3.9c-0.3-0.9-0.5-1.7-0.7-2.7h0
			c-0.2,1-0.5,1.8-0.7,2.7l-1.3,3.9h-1.4l-2.5-8.2H273.5z"/>
		<path class="st1" d="M286.3,368.6l1.1,4.2c0.2,0.9,0.5,1.8,0.6,2.6h0.1c0.2-0.8,0.5-1.7,0.7-2.6l1.3-4.2h1.3l1.3,4.1
			c0.3,1,0.5,1.9,0.7,2.7h0.1c0.1-0.8,0.4-1.7,0.6-2.7l1.2-4.1h1.5l-2.7,8.2h-1.4l-1.3-3.9c-0.3-0.9-0.5-1.7-0.7-2.7h0
			c-0.2,1-0.5,1.8-0.7,2.7l-1.3,3.9h-1.4l-2.5-8.2H286.3z"/>
		<path class="st1" d="M299,368.6l1.1,4.2c0.2,0.9,0.5,1.8,0.6,2.6h0.1c0.2-0.8,0.5-1.7,0.7-2.6l1.3-4.2h1.3l1.3,4.1
			c0.3,1,0.5,1.9,0.7,2.7h0.1c0.1-0.8,0.4-1.7,0.6-2.7l1.2-4.1h1.5l-2.7,8.2h-1.4l-1.3-3.9c-0.3-0.9-0.5-1.7-0.7-2.7h0
			c-0.2,1-0.5,1.8-0.7,2.7l-1.3,3.9h-1.4l-2.5-8.2H299z"/>
		<path class="st1" d="M309.9,375.9c0-0.6,0.4-1.1,1-1.1c0.6,0,1,0.4,1,1.1c0,0.6-0.4,1.1-1,1.1C310.3,377,309.9,376.5,309.9,375.9z
			"/>
		<path class="st1" d="M313.5,375.3c0.4,0.3,1.2,0.6,2,0.6c1.1,0,1.6-0.5,1.6-1.2c0-0.7-0.4-1.1-1.5-1.5c-1.5-0.5-2.2-1.3-2.2-2.3
			c0-1.3,1.1-2.4,2.8-2.4c0.8,0,1.6,0.2,2,0.5l-0.4,1.1c-0.3-0.2-0.9-0.5-1.7-0.5c-0.9,0-1.4,0.5-1.4,1.1c0,0.7,0.5,1,1.6,1.4
			c1.4,0.5,2.2,1.3,2.2,2.5c0,1.4-1.1,2.5-3.1,2.5c-0.9,0-1.7-0.2-2.3-0.6L313.5,375.3z"/>
		<path class="st1" d="M327.4,374.6c0,0.9,0,1.6,0.1,2.2h-1.3l-0.1-1.3h0c-0.4,0.7-1.3,1.5-2.7,1.5c-1.3,0-2.8-0.7-2.8-3.6v-4.8h1.5
			v4.6c0,1.6,0.5,2.6,1.8,2.6c1,0,1.7-0.7,2-1.4c0.1-0.2,0.1-0.5,0.1-0.8v-5h1.5V374.6z"/>
		<path class="st1" d="M329.8,371.1c0-1,0-1.8-0.1-2.6h1.3l0.1,1.6h0.1c0.4-1.1,1.3-1.8,2.3-1.8c0.2,0,0.3,0,0.4,0.1v1.4
			c-0.2,0-0.3-0.1-0.5-0.1c-1.1,0-1.8,0.8-2,1.9c0,0.2-0.1,0.4-0.1,0.7v4.4h-1.5V371.1z"/>
		<path class="st1" d="M339.9,376.8l-0.1-1h-0.1c-0.5,0.6-1.3,1.2-2.5,1.2c-1.7,0-2.5-1.2-2.5-2.4c0-2,1.8-3.1,4.9-3.1v-0.2
			c0-0.7-0.2-1.9-1.9-1.9c-0.8,0-1.6,0.2-2.1,0.6l-0.3-1c0.7-0.4,1.7-0.7,2.7-0.7c2.5,0,3.1,1.7,3.1,3.4v3.1c0,0.7,0,1.4,0.1,2
			H339.9z M339.7,372.6c-1.6,0-3.5,0.3-3.5,1.9c0,1,0.6,1.4,1.4,1.4c1.1,0,1.8-0.7,2-1.4c0.1-0.2,0.1-0.3,0.1-0.5V372.6z"/>
		<path class="st1" d="M343.5,364.7h1.5v5.1h0c0.2-0.4,0.6-0.8,1.1-1.1c0.4-0.3,1-0.4,1.5-0.4c1.1,0,2.9,0.7,2.9,3.5v4.9H349v-4.7
			c0-1.3-0.5-2.4-1.9-2.4c-1,0-1.7,0.7-2,1.5c-0.1,0.2-0.1,0.4-0.1,0.7v5h-1.5V364.7z"/>
		<path class="st1" d="M358.6,375.5L358.6,375.5c-0.5,0.8-1.4,1.5-2.7,1.5c-1.9,0-3.5-1.7-3.5-4.2c0-3.1,2-4.4,3.7-4.4
			c1.3,0,2.1,0.6,2.5,1.4h0l0.1-1.2h1.4c0,0.7-0.1,1.4-0.1,2.3v9.3h-1.5V375.5z M358.6,371.9c0-0.2,0-0.4-0.1-0.6
			c-0.2-0.9-1-1.7-2.1-1.7c-1.5,0-2.5,1.3-2.5,3.2c0,1.6,0.8,3.1,2.4,3.1c1,0,1.8-0.6,2.1-1.6c0.1-0.2,0.1-0.5,0.1-0.7V371.9z"/>
		<path class="st1" d="M369.4,374.6c0,0.9,0,1.6,0.1,2.2h-1.3l-0.1-1.3h0c-0.4,0.7-1.3,1.5-2.7,1.5c-1.3,0-2.8-0.7-2.8-3.6v-4.8h1.5
			v4.6c0,1.6,0.5,2.6,1.8,2.6c1,0,1.7-0.7,2-1.4c0.1-0.2,0.1-0.5,0.1-0.8v-5h1.5V374.6z"/>
		<path class="st1" d="M371.9,371.1c0-1,0-1.8-0.1-2.6h1.3l0.1,1.6h0.1c0.4-1.1,1.3-1.8,2.3-1.8c0.2,0,0.3,0,0.4,0.1v1.4
			c-0.2,0-0.3-0.1-0.5-0.1c-1.1,0-1.8,0.8-2,1.9c0,0.2-0.1,0.4-0.1,0.7v4.4h-1.5V371.1z"/>
		<path class="st1" d="M381.9,376.8l-0.1-1h-0.1c-0.5,0.6-1.3,1.2-2.5,1.2c-1.7,0-2.5-1.2-2.5-2.4c0-2,1.8-3.1,4.9-3.1v-0.2
			c0-0.7-0.2-1.9-1.9-1.9c-0.8,0-1.6,0.2-2.1,0.6l-0.3-1c0.7-0.4,1.7-0.7,2.7-0.7c2.5,0,3.1,1.7,3.1,3.4v3.1c0,0.7,0,1.4,0.1,2
			H381.9z M381.7,372.6c-1.6,0-3.5,0.3-3.5,1.9c0,1,0.6,1.4,1.4,1.4c1.1,0,1.8-0.7,2-1.4c0.1-0.2,0.1-0.3,0.1-0.5V372.6z"/>
		<path class="st1" d="M385.6,370.8c0-0.9,0-1.5-0.1-2.2h1.3l0.1,1.4h0c0.4-0.8,1.4-1.5,2.7-1.5c1.1,0,2.9,0.7,2.9,3.5v4.9h-1.5
			v-4.7c0-1.3-0.5-2.4-1.9-2.4c-1,0-1.8,0.7-2,1.5c-0.1,0.2-0.1,0.4-0.1,0.7v4.9h-1.5V370.8z"/>
		<path class="st1" d="M394.6,375.9c0-0.6,0.4-1.1,1-1.1c0.6,0,1,0.4,1,1.1c0,0.6-0.4,1.1-1,1.1C395,377,394.6,376.5,394.6,375.9z"
			/>
		<path class="st1" d="M404.4,376.5c-0.4,0.2-1.3,0.5-2.4,0.5c-2.5,0-4.1-1.7-4.1-4.2c0-2.5,1.7-4.4,4.4-4.4c0.9,0,1.7,0.2,2.1,0.4
			l-0.3,1.2c-0.4-0.2-0.9-0.4-1.7-0.4c-1.9,0-2.9,1.4-2.9,3.1c0,1.9,1.2,3.1,2.9,3.1c0.8,0,1.4-0.2,1.8-0.4L404.4,376.5z"/>
		<path class="st1" d="M413.5,372.6c0,3-2.1,4.4-4.1,4.4c-2.2,0-3.9-1.6-3.9-4.2c0-2.8,1.8-4.4,4.1-4.4
			C411.9,368.4,413.5,370.1,413.5,372.6z M406.9,372.7c0,1.8,1,3.2,2.5,3.2c1.4,0,2.5-1.3,2.5-3.2c0-1.4-0.7-3.2-2.5-3.2
			S406.9,371.1,406.9,372.7z"/>
		<path class="st1" d="M415.4,370.8c0-0.9,0-1.5-0.1-2.2h1.3l0.1,1.3h0.1c0.5-0.8,1.2-1.5,2.6-1.5c1.1,0,2,0.7,2.3,1.6h0
			c0.3-0.5,0.6-0.8,0.9-1.1c0.5-0.4,1-0.6,1.8-0.6c1.1,0,2.7,0.7,2.7,3.6v4.8h-1.5v-4.7c0-1.6-0.6-2.5-1.8-2.5
			c-0.9,0-1.5,0.6-1.8,1.4c-0.1,0.2-0.1,0.5-0.1,0.7v5.1h-1.5v-4.9c0-1.3-0.6-2.3-1.7-2.3c-0.9,0-1.6,0.7-1.9,1.5
			c-0.1,0.2-0.1,0.5-0.1,0.7v5h-1.5V370.8z"/>
	</g>
</g>
<g id="Layer_4">
	<path class="st1" d="M530.3,113.9c3.4,1.7,5.1,4,5.1,6.7v0.6c0,1.9-0.6,3-1.7,3.3h-0.5c-2.5-2.2-4.2-3.3-5.1-3.3
		c-1.5,0-2.6,1.7-3.3,5l0.6,7.8c0,6-0.9,11.8-2.8,17.3h-0.5c-5.5-11.1-10.9-16.7-16.2-16.7c-3-2.1-4.5-4.2-4.5-6.2
		c0.6-3,1.5-4.5,2.8-4.5c3.2,0,8.7,4.7,16.7,14h0.5c0-12.5,2.2-20.3,6.7-23.4L530.3,113.9z M570.4,115h1.1c2.7,0,4.4,5.8,5.1,17.3
		c2.2,1.3,3.3,2.9,3.3,5l-0.6,2.8l-6.1-2.2c-18.5,16.8-31.9,25.9-40.1,27.3l-2.2,0.6h-0.6v-0.6c0.7-1.1,9.2-6.9,25.6-17.2
		c8.4-6.8,12.7-10.9,12.9-12.3c-3.7-3.8-5.6-6.6-5.6-8.4C564.1,119.1,566.5,115,570.4,115z M409.4,117.3c2.2,0,3.3,1.5,3.3,4.5
		l0.5,0.6l0.6,1.6l-0.6,3.9v3.3c0,1.4,1.5,3.4,4.5,6.1l1.1,2.8c-0.5,1.8-1,2.7-1.6,2.7h-0.6l-5-3.3H411c-1.7,0-5.1,3.2-10,9.5
		c-3.9,2.8-10.2,6.5-18.9,11.1l-1.6-0.6v-0.5c1.7-2,6-5.2,12.8-9.5c8.1-6.2,12.4-10.5,12.9-12.8c-2.4-3.3-3.7-5.7-3.9-7.3
		C402.1,124.3,404.5,120.2,409.4,117.3z M481.8,118.4h1.6v1.7c0,2.8-7.6,8.6-22.8,17.2c-16,10.3-25.1,15.7-27.3,16.2l-0.5-1.7
		c0-3.1,8.2-9.2,24.5-18.4L481.8,118.4z M566.5,125.1c1.5,2.2,3.3,3.3,5.6,3.3h0.5v-2.2c0-2-0.9-3.5-2.7-4.5
		C567.6,121.7,566.5,122.8,566.5,125.1z M338,122.8c3.1,4.2,7,12.5,11.7,25.1l-0.5,1.6h-1.1l-3.3-2.7h-1.1
		c8.2,45.5,12.3,73,12.3,82.5c-1.7,10.4-3.8,15.6-6.2,15.6c-4.7,4.8-10.7,7.2-18,7.2s-13.2-3.7-17.6-11.1l-0.5-0.5h-0.6
		c-20,10.4-37.6,15.6-52.9,15.6h-1.7c-11.6,0-21.4-5.4-29.5-16.2h-1.1c-6.7,11.9-13.6,17.8-20.7,17.8h-2.7c-9.7,0-16.8-8.3-21.2-25
		H182c-0.9,0-1.5,1.5-1.7,4.5c-12.4,15.7-22.5,24.8-30.1,27.3c-7.4,4.1-12.8,6.2-16.1,6.2h-6.7c-13.3,0-21.3-9.3-24-27.9
		c0-5.8,1.9-14.3,5.6-25.6c-2.2-4.3-3.3-8.2-3.3-11.7c0-6.6,1.7-15.9,5.1-27.9h1.6l0.6,2.2c-2.2,7.6-3.3,14.9-3.3,21.8
		c0.5,6.3,1.8,9.4,3.9,9.4h2.8c1.1,0,2.3-2,3.3-6.1h0.5l1.1,1.1v0.5c0,8.6-3.5,12.9-10.6,12.9c-2.2,5.3-3.3,11.6-3.3,18.9
		c0,10.6,5.9,17.7,17.8,21.2h7.8c11.3,0,25.1-8.7,41.2-26.2l4.5-6.7V222l-12.3-88.6c0-5.8,0.9-9.1,2.7-10c1.1,0,2.8,6.9,5.1,20.6
		c3.7,19,8.2,46.3,13.4,82c3.5,13.4,9.4,20.1,17.8,20.1h2.2c7.2,0,14-6.9,20.6-20.7l1.7-1.1h1.6c0,7.9,6.5,14.4,19.5,19.5l7.8,1.1
		h2.7c16.9,0,32.7-4.8,47.4-14.5v-2.8l-1.7-7.8c0-12,3.2-19.8,9.5-23.4l1.6-0.5c5.7,0,9.8,5.6,12.3,16.7c0,6.3-3.3,13.5-10,21.7v1.7
		c0,1.8,3,3.3,8.9,4.5h5.1c7.4,0,12.8-2.8,16.1-8.4l-16.1-101.4C336,125.4,337.1,122.8,338,122.8z M406,126.2v1.1l2.7,2.8h1.1v-3.9
		l-1.6-1.6h-0.6L406,126.2z M365.3,124.5h0.6c2.1,1.9,6,10.2,11.7,25v1.7l-0.5,0.5h-1.1l-2.8-2.2H372v1.1
		c7.8,48.4,11.7,76.3,11.7,83.6v1.1c0,10.4-1.3,16.3-3.9,17.8h-0.5l-0.6-2.7c0-13-5.6-52.2-16.7-117.6
		C363.2,127.6,364.3,124.8,365.3,124.5z M311.3,125.7h2.7c1.7,0.7,3.4,2.4,5.1,5L318,134h-2.8c-1.3-1.1-2.6-1.6-3.9-1.6h-1.1v7.2
		l-0.6,6.7h0.6c-1.3,7.4-2.4,11.1-3.3,11.1h-0.6c-4.5-10.4-9.9-15.6-16.1-15.6c-1.9-1.9-2.8-3.4-2.8-4.5c0-2.2,0.9-4.1,2.8-5.6
		c2.7,0,7.9,4.5,15.6,13.4h1.1v-7.8C306.8,132,308.3,128.1,311.3,125.7z M217.1,129c2.2,0,4.1,2.2,5.6,6.7v1.1l-1.6,1.6h-0.6
		c-2-1.5-3.6-2.2-5-2.2c-0.7,0-1.1,0.6-1.1,1.7c0,10.5-0.9,18.3-2.8,23.4H211l-7.8-11.7c-1.5-1.5-4.3-3-8.4-4.5l-2.7-3.9
		c0.3-3.7,1.3-5.6,2.7-5.6c2.5,0.3,7.5,4.6,15.1,12.8l1.1-1.1v-1.6l-0.6-0.6C211.9,134.4,214.1,129,217.1,129z M149.1,130.1
		c3.7,1.7,5.6,4,5.6,6.7l-0.5,2.2h-0.6c-1.3,0-3-0.7-5-2.2h-1.1l-1.7,1.6v5.1c-0.3,12.1-1.5,18.4-3.3,18.9
		c-6.2-12.3-12-18.4-17.2-18.4c-3-1.8-4.5-3.7-4.5-5.6c1.1-3.3,2.4-5,3.9-5c3,0,8.5,5.4,16.7,16.1h1.1v-3.3
		C142.4,137.3,144.6,131.9,149.1,130.1z M490.1,151.8h0.6c-1.5,3.4-2.2,7-2.2,10.9c0,3.9,1.3,6.6,3.9,8h0.6c0.9,0,1.9-1.5,2.7-4.5
		h0.6l1.1,1.1c-1.3,7.1-3.2,10.6-5.6,10.6c-4.1-2.5-6.2-5.3-6.2-8.4v-3.9C485.7,160.5,487.2,155.8,490.1,151.8z M573.2,154.6h0.5
		l-2.2,8.3v3.9c0,2,0.9,3.5,2.8,4.5h1.1c1.5-0.7,2.2-1.7,2.2-2.8h1.1v2.2c0,2.7-1.5,5.2-4.5,7.3h-1.7c-2.6-1.3-3.9-4.8-3.9-10.6
		C570.5,158.9,572,154.6,573.2,154.6z M417.7,158h1.7c5.2,3.4,7.8,6.1,7.8,8.3c-1.6,4.1-3.1,6.3-4.5,6.7h-1.1l-6.7-5h-0.6
		c-1,0.4-2.3,2.4-3.9,6.1l-2.2,1.1c-4.6-2.4-7.6-4.8-8.9-7.2c1.3-5.2,3.2-7.8,5.6-7.8l7.8,3.9C414.3,161.1,416,159.1,417.7,158z
		 M451.7,168.5h0.5c7.8,7.1,11.7,11.5,11.7,13.4l-3.9,0.6v0.5c0,1.1,2.8,6.7,8.4,16.7l1.1,7.3c0,9.6-4.8,17.8-14.5,24.5l-1.7,8.9
		c0,7.4,3.2,12.8,9.5,16.1l7.8,1.7c14.3,0,30.3-11,47.9-32.9v-2.2l-1.7-1.6h-0.5l-13.4,2.7c-8.9-0.7-13.4-4-13.4-10v-3.3
		c2.5-10.7,6.8-16.1,12.8-16.1c5.2,0,11.1,4.1,17.8,12.3h1.1c2.1,0,7.3-3.3,15.6-10c1.3-1.1,2.7-1.7,3.9-1.7l1.1,1.7v6.7
		c2.4,5.2,6.8,7.8,13.4,7.8c7.4,0,13.7-6.1,18.9-18.4l1.6-1.1l1.1,1.1l-1.6,6.7v1.7c0,1.7,3.3,3.4,10,5h2.2c1.9,0,3-0.5,3.3-1.6
		v-2.2l-2.8-4.5c1-5.6,1.9-8.4,2.8-8.4h0.5c1.8,0,3.5,4.8,5.1,14.5c-1.3,9.3-5.4,14-12.3,14c-3.6,0-7.9-2.4-12.9-7.3h-1.1
		c-5.7,7.8-11.9,11.7-18.5,11.7c-6.6,0-11.4-4.5-14.3-13.4l-0.6-0.6h-0.5c-8.2,5.5-12.3,9.4-12.3,11.7c0,14.3-12.5,29.2-37.4,44.6
		c-6,3-11.6,4.5-16.7,4.5h-0.5c-7.1,0-12.9-4.1-17.3-12.3c-1.1-1.4-2-4.8-2.7-10l0.5-9.5h-0.5c-25.5,17.1-43,25.6-52.4,25.6
		l-22.3,5.6l-0.6-0.5v-0.6c1.2-1.6,9.4-5.3,24.5-11.1c22.9-11.8,43.3-25.3,61.3-40.6l4.5-5.6v-0.6c0-1.5-3.9-9.3-11.7-23.4
		c-0.6-2.8-2-6-3.9-9.4C449.9,171.3,450.8,168.5,451.7,168.5z M213.7,172.5h0.6l1.1,1.1l-2.8,18.4c0,4.4,1.5,7.5,4.5,9.5h1.1
		c0.6,0,1.5-1.5,2.8-4.5h1.1v5c0,3.4-1.7,6.3-5.1,8.9c-5.2-2.6-7.8-7.6-7.8-15C210.8,184.7,212.2,176.9,213.7,172.5z M309.6,172.5
		h0.6c6.3,2.1,9.4,4.7,9.4,7.8c-1.7,4.1-3.2,6.3-4.5,6.7c-2.3,0-5.4-2.2-9.4-6.7v-1.1C306.9,174.7,308.2,172.5,309.6,172.5z
		 M428.3,177.4h1.6c0,4.1-3,11-8.9,20.7v1.1c7.4,5.5,11.1,10.5,11.1,15c0,9.5-4.3,16-12.8,19.5c-2.3,2.6-5.1,3.9-8.4,3.9
		c-5.2,0-7.8-3.9-7.8-11.7c0-6.2,1.7-12.9,5.1-20.1c0-0.8-2.6-3.4-7.8-7.8c-4.9-4.7-7.3-7.8-7.3-9.5v-2.7c0-2.7,0.6-4.2,1.7-4.5
		c9.7,3.4,14.5,5.6,14.5,6.7v0.5c0,0.7-0.6,1.1-1.7,1.1l-0.5,0.6v1.1c2.3,2.6,4.5,3.9,6.7,3.9h0.5
		C414.9,195.3,419.6,189.3,428.3,177.4z M146.9,178.6v1.1l-1.6,9.5v5c1.5,2.6,2.7,3.9,3.3,3.9h0.5l2.8-2.8h0.5
		c-0.3,6.3-2.2,9.5-5.6,9.5c-3.3-2.4-5-5.8-5-10C143.7,184.9,145.3,179.5,146.9,178.6z M274.5,190.8h1.1l-2.2,15.1v5
		c0.9,4.9,2.7,7.3,5.6,7.3c1.2-3.4,2.1-5.1,2.7-5.1l0.6,0.6h0.5c0,5.4-1.9,9.7-5.6,12.8h-1.6c-3.7-2.6-5.6-6.7-5.6-12.3v-1.1
		C270.1,206.1,271.5,198.7,274.5,190.8z M496.8,209.8v0.6c0.5,1.5,2.2,2.2,5.1,2.2h1.1c4.1,0,6.3-0.6,6.7-1.7c0-2.3-3.2-3.6-9.5-3.9
		C498.6,207.5,497.5,208.4,496.8,209.8z M311.8,214.2c0,4.6,1.5,8.5,4.5,11.7c5.9-3.5,8.9-6.6,8.9-9.5c-1.5-5.9-4.5-8.9-8.9-8.9
		C313.3,209.2,311.8,211.4,311.8,214.2z M407.7,220.4v2.7l2.2,2.2h4.5c8.2-3.4,12.3-6.1,12.3-8.2c0-2.1-3.9-5-11.7-8.5h-1.1
		C409.8,213,407.7,216.9,407.7,220.4z M144.1,220.4v0.5l-2.2,10.6c0.4,5.2,1.9,7.8,4.5,7.8l1.6-2.8h1.1l0.6,1.7c0,2.6-1.5,5-4.5,7.2
		c-4.1,0-6.2-3.3-6.2-10v-0.5C139.1,229.5,140.7,224.6,144.1,220.4z M583.2,230.9h0.5l0.6,1.7c-1.6,8.2-4.2,12.3-7.8,12.3l-5.1-1.1
		l-7.2,3.9c-1.2,0-2.9-0.7-5.1-2.2H557c-3.1,0-10.1,4.1-21.2,12.3c-4.1,1.9-7,2.8-8.9,2.8v-0.6c18.1-13.4,27.9-20.1,29.6-20.1
		l2.7-1.1l5.6,2.2h3.3c0.9,0,3-2.1,6.2-6.1h0.5c0,1.5,0.7,2.6,2.2,3.3h2.2c1.1,0,1.9-1.9,2.2-5.6L583.2,230.9z M318,254.3l0.5,0.6
		v2.2c0,1.8-10.4,6.6-31.2,14.5c-0.7,0-1.1-0.6-1.1-1.7c0-2.4,10.4-7.6,31.2-15.6H318z M187,262.1l0.6,2.2c0,2.5-9.3,8.1-27.9,16.7
		V280h-0.6C159.1,276.6,168.4,270.6,187,262.1z M238.8,262.1c5.5,3.5,8.3,6.4,8.3,8.9v1.1l-4.5,5.1c-1.2,0-3.8-1.5-7.8-4.5h-0.5
		c-0.8,0-2.5,1.9-5.1,5.6h-2.2l-7.8-5.6v-1.1c0-2.3,1.5-4.8,4.5-7.3l8.4,3.3h1.1L238.8,262.1z"/>
</g>
</svg>
