<?xml version="1.0" encoding="utf-8"?>
<!-- Generator: Adobe Illustrator 25.2.3, SVG Export Plug-In . SVG Version: 6.00 Build 0)  -->
<svg version="1.1" xmlns="http://www.w3.org/2000/svg" xmlns:xlink="http://www.w3.org/1999/xlink" x="0px" y="0px"
	 viewBox="0 0 700 395" style="enable-background:new 0 0 700 395;" xml:space="preserve">
<style type="text/css">
	.st0{fill:#000222;}
	.st1{fill:#FFFFFF;}
</style>
<g id="Layer_1">
	<rect class="st0" width="700" height="395"/>
</g>
<g id="Layer_3">
	<g>
		<path class="st1" d="M273.5,368.6l1.1,4.2c0.2,0.9,0.5,1.8,0.6,2.6h0.1c0.2-0.8,0.5-1.7,0.7-2.6l1.3-4.2h1.3l1.3,4.1
			c0.3,1,0.5,1.9,0.7,2.7h0.1c0.1-0.8,0.4-1.7,0.6-2.7l1.2-4.1h1.5l-2.7,8.2H280l-1.3-3.9c-0.3-0.9-0.5-1.7-0.7-2.7h0
			c-0.2,1-0.5,1.8-0.7,2.7l-1.3,3.9h-1.4l-2.5-8.2H273.5z"/>
		<path class="st1" d="M286.3,368.6l1.1,4.2c0.2,0.9,0.5,1.8,0.6,2.6h0.1c0.2-0.8,0.5-1.7,0.7-2.6l1.3-4.2h1.3l1.3,4.1
			c0.3,1,0.5,1.9,0.7,2.7h0.1c0.1-0.8,0.4-1.7,0.6-2.7l1.2-4.1h1.5l-2.7,8.2h-1.4l-1.3-3.9c-0.3-0.9-0.5-1.7-0.7-2.7h0
			c-0.2,1-0.5,1.8-0.7,2.7l-1.3,3.9h-1.4l-2.5-8.2H286.3z"/>
		<path class="st1" d="M299,368.6l1.1,4.2c0.2,0.9,0.5,1.8,0.6,2.6h0.1c0.2-0.8,0.5-1.7,0.7-2.6l1.3-4.2h1.3l1.3,4.1
			c0.3,1,0.5,1.9,0.7,2.7h0.1c0.1-0.8,0.4-1.7,0.6-2.7l1.2-4.1h1.5l-2.7,8.2h-1.4l-1.3-3.9c-0.3-0.9-0.5-1.7-0.7-2.7h0
			c-0.2,1-0.5,1.8-0.7,2.7l-1.3,3.9h-1.4l-2.5-8.2H299z"/>
		<path class="st1" d="M309.9,375.9c0-0.6,0.4-1.1,1-1.1c0.6,0,1,0.4,1,1.1c0,0.6-0.4,1.1-1,1.1C310.3,377,309.9,376.5,309.9,375.9z
			"/>
		<path class="st1" d="M313.5,375.3c0.4,0.3,1.2,0.6,2,0.6c1.1,0,1.6-0.5,1.6-1.2c0-0.7-0.4-1.1-1.5-1.5c-1.5-0.5-2.2-1.3-2.2-2.3
			c0-1.3,1.1-2.4,2.8-2.4c0.8,0,1.6,0.2,2,0.5l-0.4,1.1c-0.3-0.2-0.9-0.5-1.7-0.5c-0.9,0-1.4,0.5-1.4,1.1c0,0.7,0.5,1,1.6,1.4
			c1.4,0.5,2.2,1.3,2.2,2.5c0,1.4-1.1,2.5-3.1,2.5c-0.9,0-1.7-0.2-2.3-0.6L313.5,375.3z"/>
		<path class="st1" d="M327.4,374.6c0,0.9,0,1.6,0.1,2.2h-1.3l-0.1-1.3h0c-0.4,0.7-1.3,1.5-2.7,1.5c-1.3,0-2.8-0.7-2.8-3.6v-4.8h1.5
			v4.6c0,1.6,0.5,2.6,1.8,2.6c1,0,1.7-0.7,2-1.4c0.1-0.2,0.1-0.5,0.1-0.8v-5h1.5V374.6z"/>
		<path class="st1" d="M329.8,371.1c0-1,0-1.8-0.1-2.6h1.3l0.1,1.6h0.1c0.4-1.1,1.3-1.8,2.3-1.8c0.2,0,0.3,0,0.4,0.1v1.4
			c-0.2,0-0.3-0.1-0.5-0.1c-1.1,0-1.8,0.8-2,1.9c0,0.2-0.1,0.4-0.1,0.7v4.4h-1.5V371.1z"/>
		<path class="st1" d="M339.9,376.8l-0.1-1h-0.1c-0.5,0.6-1.3,1.2-2.5,1.2c-1.7,0-2.5-1.2-2.5-2.4c0-2,1.8-3.1,4.9-3.1v-0.2
			c0-0.7-0.2-1.9-1.9-1.9c-0.8,0-1.6,0.2-2.1,0.6l-0.3-1c0.7-0.4,1.7-0.7,2.7-0.7c2.5,0,3.1,1.7,3.1,3.4v3.1c0,0.7,0,1.4,0.1,2
			H339.9z M339.7,372.6c-1.6,0-3.5,0.3-3.5,1.9c0,1,0.6,1.4,1.4,1.4c1.1,0,1.8-0.7,2-1.4c0.1-0.2,0.1-0.3,0.1-0.5V372.6z"/>
		<path class="st1" d="M343.5,364.7h1.5v5.1h0c0.2-0.4,0.6-0.8,1.1-1.1c0.4-0.3,1-0.4,1.5-0.4c1.1,0,2.9,0.7,2.9,3.5v4.9H349v-4.7
			c0-1.3-0.5-2.4-1.9-2.4c-1,0-1.7,0.7-2,1.5c-0.1,0.2-0.1,0.4-0.1,0.7v5h-1.5V364.7z"/>
		<path class="st1" d="M358.6,375.5L358.6,375.5c-0.5,0.8-1.4,1.5-2.7,1.5c-1.9,0-3.5-1.7-3.5-4.2c0-3.1,2-4.4,3.7-4.4
			c1.3,0,2.1,0.6,2.5,1.4h0l0.1-1.2h1.4c0,0.7-0.1,1.4-0.1,2.3v9.3h-1.5V375.5z M358.6,371.9c0-0.2,0-0.4-0.1-0.6
			c-0.2-0.9-1-1.7-2.1-1.7c-1.5,0-2.5,1.3-2.5,3.2c0,1.6,0.8,3.1,2.4,3.1c1,0,1.8-0.6,2.1-1.6c0.1-0.2,0.1-0.5,0.1-0.7V371.9z"/>
		<path class="st1" d="M369.4,374.6c0,0.9,0,1.6,0.1,2.2h-1.3l-0.1-1.3h0c-0.4,0.7-1.3,1.5-2.7,1.5c-1.3,0-2.8-0.7-2.8-3.6v-4.8h1.5
			v4.6c0,1.6,0.5,2.6,1.8,2.6c1,0,1.7-0.7,2-1.4c0.1-0.2,0.1-0.5,0.1-0.8v-5h1.5V374.6z"/>
		<path class="st1" d="M371.9,371.1c0-1,0-1.8-0.1-2.6h1.3l0.1,1.6h0.1c0.4-1.1,1.3-1.8,2.3-1.8c0.2,0,0.3,0,0.4,0.1v1.4
			c-0.2,0-0.3-0.1-0.5-0.1c-1.1,0-1.8,0.8-2,1.9c0,0.2-0.1,0.4-0.1,0.7v4.4h-1.5V371.1z"/>
		<path class="st1" d="M381.9,376.8l-0.1-1h-0.1c-0.5,0.6-1.3,1.2-2.5,1.2c-1.7,0-2.5-1.2-2.5-2.4c0-2,1.8-3.1,4.9-3.1v-0.2
			c0-0.7-0.2-1.9-1.9-1.9c-0.8,0-1.6,0.2-2.1,0.6l-0.3-1c0.7-0.4,1.7-0.7,2.7-0.7c2.5,0,3.1,1.7,3.1,3.4v3.1c0,0.7,0,1.4,0.1,2
			H381.9z M381.7,372.6c-1.6,0-3.5,0.3-3.5,1.9c0,1,0.6,1.4,1.4,1.4c1.1,0,1.8-0.7,2-1.4c0.1-0.2,0.1-0.3,0.1-0.5V372.6z"/>
		<path class="st1" d="M385.6,370.8c0-0.9,0-1.5-0.1-2.2h1.3l0.1,1.4h0c0.4-0.8,1.4-1.5,2.7-1.5c1.1,0,2.9,0.7,2.9,3.5v4.9h-1.5
			v-4.7c0-1.3-0.5-2.4-1.9-2.4c-1,0-1.8,0.7-2,1.5c-0.1,0.2-0.1,0.4-0.1,0.7v4.9h-1.5V370.8z"/>
		<path class="st1" d="M394.6,375.9c0-0.6,0.4-1.1,1-1.1c0.6,0,1,0.4,1,1.1c0,0.6-0.4,1.1-1,1.1C395,377,394.6,376.5,394.6,375.9z"
			/>
		<path class="st1" d="M404.4,376.5c-0.4,0.2-1.3,0.5-2.4,0.5c-2.5,0-4.1-1.7-4.1-4.2c0-2.5,1.7-4.4,4.4-4.4c0.9,0,1.7,0.2,2.1,0.4
			l-0.3,1.2c-0.4-0.2-0.9-0.4-1.7-0.4c-1.9,0-2.9,1.4-2.9,3.1c0,1.9,1.2,3.1,2.9,3.1c0.8,0,1.4-0.2,1.8-0.4L404.4,376.5z"/>
		<path class="st1" d="M413.5,372.6c0,3-2.1,4.4-4.1,4.4c-2.2,0-3.9-1.6-3.9-4.2c0-2.8,1.8-4.4,4.1-4.4
			C411.9,368.4,413.5,370.1,413.5,372.6z M406.9,372.7c0,1.8,1,3.2,2.5,3.2c1.4,0,2.5-1.3,2.5-3.2c0-1.4-0.7-3.2-2.5-3.2
			S406.9,371.1,406.9,372.7z"/>
		<path class="st1" d="M415.4,370.8c0-0.9,0-1.5-0.1-2.2h1.3l0.1,1.3h0.1c0.5-0.8,1.2-1.5,2.6-1.5c1.1,0,2,0.7,2.3,1.6h0
			c0.3-0.5,0.6-0.8,0.9-1.1c0.5-0.4,1-0.6,1.8-0.6c1.1,0,2.7,0.7,2.7,3.6v4.8h-1.5v-4.7c0-1.6-0.6-2.5-1.8-2.5
			c-0.9,0-1.5,0.6-1.8,1.4c-0.1,0.2-0.1,0.5-0.1,0.7v5.1h-1.5v-4.9c0-1.3-0.6-2.3-1.7-2.3c-0.9,0-1.6,0.7-1.9,1.5
			c-0.1,0.2-0.1,0.5-0.1,0.7v5h-1.5V370.8z"/>
	</g>
</g>
<g id="Layer_4">
	<path class="st1" d="M514.2,118h1.1c2.5,1.8,3.8,3.7,3.8,5.9c-0.4,2.1-0.9,3.2-1.6,3.2h-1.1c-1.9-1.8-3.5-2.7-4.8-2.7
		c-1.8,1-2.7,2.4-2.7,4.3v1.6c0,11-0.7,18.3-2.1,22h-1.1c-5.1-10-10.1-15-15-15l-4.3-4.8v-1.1c0-3.2,0.9-4.9,2.7-4.9
		c3,0,8.1,4.5,15.5,13.5h0.6l0.5-0.6v-5.4C506.7,123.3,509.6,118,514.2,118z M552.8,118.5c2.6,0,4.3,2.5,4.9,7.5v3.2l0.5,0.5
		l-0.5,1.6c0,1.8,1.2,4.3,3.7,7.5l0.6,1.6c-0.5,1.8-1,2.7-1.6,2.7h-0.5l-4.3-2.7c-14.2,13.6-27.6,22.5-40.3,26.9h-0.5l-0.6-0.5v-0.6
		l28.5-18.8l8.6-8.1v-1.1c-3.6-2.9-5.4-5.4-5.4-7.5v-1.6C547.5,122.1,549.8,118.5,552.8,118.5z M397,119c1.9,0,3.3,2,4.3,5.9
		l-1.1,9.1c3.6,2.8,5.4,5.1,5.4,7l-0.5,2.7c-1.3,0-3.3-1.1-5.9-3.2H397c-8.5,9.3-16.3,15.2-23.6,17.8l-2.1,0.5l-0.5-0.5
		c0-1.1,4.7-4.7,14-10.7c5.7-5.1,8.6-7.9,8.6-8.6v-0.6l-3.2-7.5C390.1,126.2,392.4,122.2,397,119z M326.1,119.6h0.6
		c1.6,0.8,5.2,9,10.7,24.7v1.1l-1.1,1.1h-0.6l-3.2-2.7h-1.1l9.2,72c0,15.6-3.8,24.5-11.3,26.9l-5.9,1.6h-3.8
		c-6.1,0-10.5-4.3-13.4-12.9c0-2.3-0.5-3.6-1.6-3.8c-16.6,7.9-26.5,11.8-29.5,11.8c-15.8,5.4-29.4,8.1-40.8,8.1l-1.6-0.6l-2.1,0.6
		l-7.5-1.1h-1.6l-3.8,4.3H217v-7c-6.4-7.5-12.7-11.2-18.8-11.2h-1.6c-8.7,0-20.4,8.4-35,25.2c-5.9,9.2-12,15.3-18.3,18.3l-3.7,1.1
		c-11.1-2.6-16.7-9.4-16.7-20.4c0-7.8,2.9-17.3,8.6-28.4V226c-1.8-5.4-2.7-9.3-2.7-11.8c0-7.2,2.1-16.3,6.4-27.4h1.1v0.6
		c-2.3,7.2-3.7,14.4-4.3,21.5c0,7.5,2.1,11.2,6.4,11.2l3.7-4.3l1.1,1.1c-1.4,8.3-4.3,12.4-8.6,12.4c-5.4,9.3-8,18.1-8,26.3v3.2
		c0,4.7,2.1,7.7,6.4,9.2c8.3,0,17.4-6.8,27.4-20.4c14.3-17.6,27.2-26.4,38.7-26.4c6.7,0,14,4.1,22.1,12.4h1.1
		c1.7-0.8,6.3-7.6,14-20.4c10-12.9,19.3-19.3,27.9-19.3c6.2,0,12.8,3.9,19.8,11.8l1.6,4.8c-1.1,7.6-3.1,13.6-5.9,17.8l0.6,0.5h0.5
		c3.2,0,11.6-3.7,25.3-11.2l2.1-0.6h1.1l1.1,1.1v2.1c0,8.6,4.5,12.9,13.4,12.9c4.2,0,7.7-1.8,10.7-5.4v-5.9
		c-6.8-58.3-10.7-89.3-11.8-93C324.1,122.6,325.2,119.6,326.1,119.6z M354,120.1h0.6c6.8,14.6,10.2,23.2,10.2,25.8l-1.1,1.1
		l-3.7-2.7h-0.6v0.5c0,5,3.1,30.4,9.2,76.3V234c0,2.7-0.9,6.8-2.7,12.4h-1.1c-1.2,0-1.9-6.6-2.1-19.9c-4.6-39.6-7.5-61.4-8.6-65.6
		l0.6-0.5v-0.6l-3.8-32.7C352.2,122.5,353.3,120.1,354,120.1z M468.5,120.7l0.5,0.5v0.6c0,3.2-6.1,8-18.3,14.5
		c-19.3,11.8-29.4,17.8-30.6,17.8l-0.6-0.6v-2.1c0.5-2.1,10.7-8.9,30.7-20.4L468.5,120.7z M274.5,121.8l1.1,1.1l-1.1,8.6v2.1
		c0,2,0.9,3.4,2.7,4.3h1.6c0-1.1,0.7-2,2.1-2.7v2.1c0,3.9-1.6,6.3-4.8,7h-0.6c-2.9-2-4.3-4.2-4.3-6.4v-1.6
		C271.3,133.3,272.3,128.5,274.5,121.8z M549.1,127.1c0.6,3.2,2.4,4.8,5.4,4.8l0.5-1.6c0-2.7-0.9-4.5-2.7-5.4h-1.1L549.1,127.1z
		 M393.8,127.6v1.1c1.1,1.8,2.4,2.7,3.8,2.7v-4.3l-1.1-1.1h-1.1L393.8,127.6z M194.4,126.6h1.1v0.6l-2.1,10.7v1.6
		c0,3.1,1.1,5.2,3.2,6.4l2.1-1.6h0.5v0.5c0,3.1-1.1,5.2-3.2,6.4h-0.5c-3.2-0.2-4.9-3.2-4.9-9.1V140L194.4,126.6z M168.6,128.2
		c3.9,1.7,5.9,4,5.9,7l-1.6,2.1h-1.6c-1.9-1.4-3.5-2.1-4.8-2.1l-1.1,1.6v7.5c-0.7,13.2-2,20-3.8,20.4c-5-10.4-8.6-15.6-10.7-15.6
		c-6.3,12.9-13.1,19.3-20.4,19.3c11.1-9.5,16.7-15.7,16.7-18.8v-1.6l-5.9-5.9v-1.1c0-2.8,0.9-4.6,2.7-5.4h0.5
		c5.4,1.7,11.2,7.8,17.2,18.3l1.1-1.6v-5.9l-0.5-5.9C163.8,132.3,165.9,128.2,168.6,128.2z M231,128.7c7.2,0,10.7,1.1,10.7,3.2
		c-2.5,7.9-7.5,13.5-15,16.7h-3.8v-0.6l8.1-8V139H225c-5.4,0-9.8,1.2-13.4,3.7v-1.6c0-6.3,4.7-10.4,14-12.4H231z M313.7,136.8h2.7
		v1.1h0.6c0,4.2-5.6,7.5-16.7,10.2c-1.2,1-10.7,4.9-28.4,11.8l-36,16.1v-1.6c0-4.4,8.4-9.8,25.3-16.1c0-0.6,8.6-4.2,25.8-10.7
		C293,144.3,301.9,140.7,313.7,136.8z M475,153.4h0.5c-1.4,3.5-2.1,6.9-2.1,10.2v2.1c0,2.1,1.1,3.9,3.2,5.4h1.6l0.5-0.6
		c0.7,0,1.1-0.9,1.1-2.7l0.6-0.6h1.1v0.6c0,4.6-1.6,8-4.9,10.2c-3,0-5.1-3.2-6.4-9.7l0.6-0.5v-2.1l-0.6-0.6
		C472,158.9,473.6,155,475,153.4z M555,157.7h0.6c-0.5,2.5-1.2,3.8-2.1,3.8V161C553.6,158.8,554.1,157.7,555,157.7z M405.1,158.3
		c5.7,2.1,8.6,4.8,8.6,8c0,2.1-1.4,4.4-4.3,7c-4.3-3.6-7.2-5.4-8.6-5.4c-2.2,4.5-4,6.9-5.4,7c-2.3-1.1-5-3.5-8.1-7
		c0-3.2,1.4-5.9,4.3-8.1l5.9,3.8h2.7C402.9,160.1,404.5,158.3,405.1,158.3z M204.1,158.8l0.5,0.6c-3.6,12.6-5.4,20.9-5.4,24.7
		c0,5.8,1.8,9.8,5.4,11.8h1.6c0.8,0,1.8-2,3.2-5.9h0.5l1.1,1.1v0.6c-1.5,8.9-4.2,13.4-8,13.4h-1.6c-4.3-2.9-6.4-7.5-6.4-14
		c0-8.6,2.7-19.2,8.1-31.7l0.5-0.6H204.1z M305.6,158.8h0.6c1.8,4.3,2.7,7.5,2.7,9.7c-0.4,5.7-2.3,8.6-5.9,8.6l-4.3-0.5
		c-3.3,2.5-5.7,3.7-7,3.7h-0.5c-2.5-1.4-3.8-3.6-3.8-6.4v-4.3c0-2.6,0.5-4.1,1.6-4.3c0.9,5.4,1.8,8.1,2.7,8.1h2.1
		c1.8-0.7,2.7-2,2.7-3.8v-5.4c0.2-2.1,0.7-3.2,1.6-3.2h1.1c0.5,6.4,1.6,9.7,3.4,9.7s2.8-0.5,3.1-1.6l-1.6-6.4
		C304.4,160.1,304.9,158.8,305.6,158.8z M552.8,161.5h0.6v6.4c0.4,3.6,1.1,5.4,2.1,5.4h1.6l2.7-2.1l0.5,0.5c-1.3,5-2.8,7.5-4.3,7.5
		h-1.6c-2.5-1.5-3.8-3.8-3.8-7v-1.1C550.7,167.7,551.4,164.4,552.8,161.5z M436.8,169.1h1.1c7.5,6.8,11.3,11.1,11.3,12.9l-3.8,0.5
		c0,1.9,2.1,6.4,6.4,13.5c1.4,3.1,2.1,5.4,2.1,7v7c0,5.7-4.5,12.3-13.4,19.8c-1.4,1.9-2.1,3.9-2.1,5.9v1.1
		c0,10.2,4.5,16.5,13.4,18.8h2.7c12.1,0,25-7.2,38.7-21.5c5.7-5.4,8.6-9.4,8.6-11.8l-1.6-1.6c-3.5,1.1-8.9,1.9-16.1,2.7
		c-6.8-1.6-10.2-4.7-10.2-9.1v-4.9c2.5-9.6,6.8-14.5,12.9-14.5c4.6,0,10.3,4.1,17.2,12.3h0.5c1.4,0,7.3-3.7,17.8-11.2h1.1
		c0.8,0,1.3,0.9,1.6,2.7l-0.5,4.9c2.3,5.4,6.4,8,12.3,8c8.1,0,14.4-5.7,18.8-17.2l1.6-1.1h1.1v1.1l-1.6,5.4v2.1
		c2.9,3.6,5.9,5.4,9.1,5.4h2.1l3.8-0.5v-2.1c0-1.3-0.7-2.9-2.1-4.9l1.6-8.6h1.1c3.2,3,4.9,7.5,4.9,13.5c0,7.9-3.4,12.3-10.2,13.4
		h-1.6c-3.7,0-8-2.3-12.9-7h-1.1c-3.6,7.2-9.4,10.7-17.2,10.7c-6.6-0.3-11.1-4.1-13.5-11.3c0-1.1-0.4-1.6-1.1-1.6h-1.1
		c-7.9,5.6-11.8,9.4-11.8,11.2c0,11.5-9,23.6-26.9,36.5c-8.8,6.4-16.5,9.7-23.1,9.7h-3.2c-7,0-12.7-4.5-17.2-13.4
		c-1.1-3.3-1.6-6.7-1.6-10.2l0.6-7l-0.6-0.6h-0.5c-23.6,16.5-40.7,24.7-51.1,24.7l-21.5,4.9l-0.5-0.6v-0.5
		c2.9-2.1,12.7-6.4,29.5-12.9c18.8-10.4,34.6-20.4,47.3-30.1c7.5-6.1,11.3-10.2,11.3-12.4v-0.5c-0.4-1.9-3.5-8-9.2-18.3l-4.8-12.9
		L436.8,169.1z M416.4,177.1c0,4.8-3,11.4-9.1,19.9v1.1c7.2,4.6,10.7,9.4,10.7,14.5c0,9-3.8,15.1-11.3,18.3
		c-1.2,1.7-4.1,2.9-8.6,3.8c-5.4,0-8-3.2-8-9.6c0-6.4,1.6-13.1,4.8-20v-1.6c-9.3-8.3-14-13.7-14-16.1v-3.8l0.6-2.7h2.7l11.8,5.9v1.1
		c0,0.7-0.5,1.1-1.6,1.1v1.6c2.1,2.5,4.1,3.7,5.9,3.7c1.4,0,6.3-5.7,14.5-17.2H416.4z M167.6,179.8v1.1c-1.4,5.1-2.1,8.9-2.1,11.2
		v1.6c0,3.4,1.6,5.4,4.8,5.9l2.1-2.1l0.6,0.6v0.5c0,4.3-1.8,6.8-5.4,7.5c-3.6-2.7-5.4-5.7-5.4-9.1
		C164.1,185.5,165.9,179.8,167.6,179.8z M304.1,185.2c5,2,7.5,4.2,7.5,6.4c0,3-1.6,5.5-4.9,7.5c-5.4-3.2-8-5.7-8-7.5
		C300,187.3,301.8,185.2,304.1,185.2z M228.8,235.1l3.7,0.6h4.3c14.2,0,28.4-5.9,42.5-17.8v-1.1c0-4.6-5.6-8.7-16.7-12.3h-3.2
		C248.9,204.5,238.7,214.7,228.8,235.1z M480.8,209.3v1.6l4.9,1.1h2.7c2.6,0,4.1-0.5,4.3-1.6v-0.5c-1.2-2.1-3.9-3.2-8-3.2
		C483.2,206.7,481.9,207.6,480.8,209.3z M394.4,216.3v4.8l2.7,2.7c4.5,0,9.7-2.5,15.6-7.5v-1.1c0-2-3.9-4.7-11.8-8.1
		C398.8,208.1,396.7,211.1,394.4,216.3z M564.2,230.8l0.5,0.6v0.5c0,6.1-2.3,10.2-7,12.4l-5.4-1.1c-3,2.1-5.1,3.2-6.4,3.2h-0.6
		l-7-2.1h-0.6c-1.7,0-8.7,4.1-20.9,12.3c-3.1,1.4-5.8,2.1-8.1,2.1v-0.5l26.4-18.3l4.8-1.6c3.2,1.4,5.8,2.1,7.7,2.1s4.5-2.1,8-6.4
		c0.6,2.5,1.3,3.8,2.1,3.8h2.1c1,0,2-2.1,3.2-6.4l0.5-0.6H564.2z M344.3,239.4l0.6,0.6c-1.4,1.9-2.1,5.5-2.1,10.7v1.6
		c0,2,0.9,3.4,2.7,4.3l3.2-2.7l0.6,0.5v0.6c0,2.8-1.8,5.4-5.4,8c-2.9-0.9-4.3-3.7-4.3-8.6v-1.1C339.5,248.1,341.1,243.5,344.3,239.4
		z M287.4,243.7l0.6,0.6v0.5l-2.1,7.5v2.1c0,4,1.4,5.9,4.3,5.9l2.7-3.2l0.6,0.5v0.6c-1.1,5.7-3.1,8.6-5.9,8.6h-0.5
		c-2.9-2-4.3-4.5-4.3-7.5v-1.6C282.6,253.6,284.2,248.9,287.4,243.7z M208.9,255h1.1v0.5c0,4-8.8,8.9-26.3,14.5
		c0,0.6-3.8,2.2-11.3,4.8l-0.5-0.5v-0.6c0-3.3,4.8-6.4,14.5-9.1L208.9,255z"/>
</g>
</svg>
