<?xml version="1.0" encoding="utf-8"?>
<!-- Generator: Adobe Illustrator 25.2.3, SVG Export Plug-In . SVG Version: 6.00 Build 0)  -->
<svg version="1.1" xmlns="http://www.w3.org/2000/svg" xmlns:xlink="http://www.w3.org/1999/xlink" x="0px" y="0px"
	 viewBox="0 0 700 395" style="enable-background:new 0 0 700 395;" xml:space="preserve">
<style type="text/css">
	.st0{fill:#000222;}
	.st1{fill:#FFFFFF;}
</style>
<g id="Layer_1">
	<rect class="st0" width="700" height="395"/>
</g>
<g id="Layer_3">
	<g>
		<path class="st1" d="M273.5,368.6l1.1,4.2c0.2,0.9,0.5,1.8,0.6,2.6h0.1c0.2-0.8,0.5-1.7,0.7-2.6l1.3-4.2h1.3l1.3,4.1
			c0.3,1,0.5,1.9,0.7,2.7h0.1c0.1-0.8,0.4-1.7,0.6-2.7l1.2-4.1h1.5l-2.7,8.2H280l-1.3-3.9c-0.3-0.9-0.5-1.7-0.7-2.7h0
			c-0.2,1-0.5,1.8-0.7,2.7l-1.3,3.9h-1.4l-2.5-8.2H273.5z"/>
		<path class="st1" d="M286.3,368.6l1.1,4.2c0.2,0.9,0.5,1.8,0.6,2.6h0.1c0.2-0.8,0.5-1.7,0.7-2.6l1.3-4.2h1.3l1.3,4.1
			c0.3,1,0.5,1.9,0.7,2.7h0.1c0.1-0.8,0.4-1.7,0.6-2.7l1.2-4.1h1.5l-2.7,8.2h-1.4l-1.3-3.9c-0.3-0.9-0.5-1.7-0.7-2.7h0
			c-0.2,1-0.5,1.8-0.7,2.7l-1.3,3.9h-1.4l-2.5-8.2H286.3z"/>
		<path class="st1" d="M299,368.6l1.1,4.2c0.2,0.9,0.5,1.8,0.6,2.6h0.1c0.2-0.8,0.5-1.7,0.7-2.6l1.3-4.2h1.3l1.3,4.1
			c0.3,1,0.5,1.9,0.7,2.7h0.1c0.1-0.8,0.4-1.7,0.6-2.7l1.2-4.1h1.5l-2.7,8.2h-1.4l-1.3-3.9c-0.3-0.9-0.5-1.7-0.7-2.7h0
			c-0.2,1-0.5,1.8-0.7,2.7l-1.3,3.9h-1.4l-2.5-8.2H299z"/>
		<path class="st1" d="M309.9,375.9c0-0.6,0.4-1.1,1-1.1c0.6,0,1,0.4,1,1.1c0,0.6-0.4,1.1-1,1.1C310.3,377,309.9,376.5,309.9,375.9z
			"/>
		<path class="st1" d="M313.5,375.3c0.4,0.3,1.2,0.6,2,0.6c1.1,0,1.6-0.5,1.6-1.2c0-0.7-0.4-1.1-1.5-1.5c-1.5-0.5-2.2-1.3-2.2-2.3
			c0-1.3,1.1-2.4,2.8-2.4c0.8,0,1.6,0.2,2,0.5l-0.4,1.1c-0.3-0.2-0.9-0.5-1.7-0.5c-0.9,0-1.4,0.5-1.4,1.1c0,0.7,0.5,1,1.6,1.4
			c1.4,0.5,2.2,1.3,2.2,2.5c0,1.4-1.1,2.5-3.1,2.5c-0.9,0-1.7-0.2-2.3-0.6L313.5,375.3z"/>
		<path class="st1" d="M327.4,374.6c0,0.9,0,1.6,0.1,2.2h-1.3l-0.1-1.3h0c-0.4,0.7-1.3,1.5-2.7,1.5c-1.3,0-2.8-0.7-2.8-3.6v-4.8h1.5
			v4.6c0,1.6,0.5,2.6,1.8,2.6c1,0,1.7-0.7,2-1.4c0.1-0.2,0.1-0.5,0.1-0.8v-5h1.5V374.6z"/>
		<path class="st1" d="M329.8,371.1c0-1,0-1.8-0.1-2.6h1.3l0.1,1.6h0.1c0.4-1.1,1.3-1.8,2.3-1.8c0.2,0,0.3,0,0.4,0.1v1.4
			c-0.2,0-0.3-0.1-0.5-0.1c-1.1,0-1.8,0.8-2,1.9c0,0.2-0.1,0.4-0.1,0.7v4.4h-1.5V371.1z"/>
		<path class="st1" d="M339.9,376.8l-0.1-1h-0.1c-0.5,0.6-1.3,1.2-2.5,1.2c-1.7,0-2.5-1.2-2.5-2.4c0-2,1.8-3.1,4.9-3.1v-0.2
			c0-0.7-0.2-1.9-1.9-1.9c-0.8,0-1.6,0.2-2.1,0.6l-0.3-1c0.7-0.4,1.7-0.7,2.7-0.7c2.5,0,3.1,1.7,3.1,3.4v3.1c0,0.7,0,1.4,0.1,2
			H339.9z M339.7,372.6c-1.6,0-3.5,0.3-3.5,1.9c0,1,0.6,1.4,1.4,1.4c1.1,0,1.8-0.7,2-1.4c0.1-0.2,0.1-0.3,0.1-0.5V372.6z"/>
		<path class="st1" d="M343.5,364.7h1.5v5.1h0c0.2-0.4,0.6-0.8,1.1-1.1c0.4-0.3,1-0.4,1.5-0.4c1.1,0,2.9,0.7,2.9,3.5v4.9H349v-4.7
			c0-1.3-0.5-2.4-1.9-2.4c-1,0-1.7,0.7-2,1.5c-0.1,0.2-0.1,0.4-0.1,0.7v5h-1.5V364.7z"/>
		<path class="st1" d="M358.6,375.5L358.6,375.5c-0.5,0.8-1.4,1.5-2.7,1.5c-1.9,0-3.5-1.7-3.5-4.2c0-3.1,2-4.4,3.7-4.4
			c1.3,0,2.1,0.6,2.5,1.4h0l0.1-1.2h1.4c0,0.7-0.1,1.4-0.1,2.3v9.3h-1.5V375.5z M358.6,371.9c0-0.2,0-0.4-0.1-0.6
			c-0.2-0.9-1-1.7-2.1-1.7c-1.5,0-2.5,1.3-2.5,3.2c0,1.6,0.8,3.1,2.4,3.1c1,0,1.8-0.6,2.1-1.6c0.1-0.2,0.1-0.5,0.1-0.7V371.9z"/>
		<path class="st1" d="M369.4,374.6c0,0.9,0,1.6,0.1,2.2h-1.3l-0.1-1.3h0c-0.4,0.7-1.3,1.5-2.7,1.5c-1.3,0-2.8-0.7-2.8-3.6v-4.8h1.5
			v4.6c0,1.6,0.5,2.6,1.8,2.6c1,0,1.7-0.7,2-1.4c0.1-0.2,0.1-0.5,0.1-0.8v-5h1.5V374.6z"/>
		<path class="st1" d="M371.9,371.1c0-1,0-1.8-0.1-2.6h1.3l0.1,1.6h0.1c0.4-1.1,1.3-1.8,2.3-1.8c0.2,0,0.3,0,0.4,0.1v1.4
			c-0.2,0-0.3-0.1-0.5-0.1c-1.1,0-1.8,0.8-2,1.9c0,0.2-0.1,0.4-0.1,0.7v4.4h-1.5V371.1z"/>
		<path class="st1" d="M381.9,376.8l-0.1-1h-0.1c-0.5,0.6-1.3,1.2-2.5,1.2c-1.7,0-2.5-1.2-2.5-2.4c0-2,1.8-3.1,4.9-3.1v-0.2
			c0-0.7-0.2-1.9-1.9-1.9c-0.8,0-1.6,0.2-2.1,0.6l-0.3-1c0.7-0.4,1.7-0.7,2.7-0.7c2.5,0,3.1,1.7,3.1,3.4v3.1c0,0.7,0,1.4,0.1,2
			H381.9z M381.7,372.6c-1.6,0-3.5,0.3-3.5,1.9c0,1,0.6,1.4,1.4,1.4c1.1,0,1.8-0.7,2-1.4c0.1-0.2,0.1-0.3,0.1-0.5V372.6z"/>
		<path class="st1" d="M385.6,370.8c0-0.9,0-1.5-0.1-2.2h1.3l0.1,1.4h0c0.4-0.8,1.4-1.5,2.7-1.5c1.1,0,2.9,0.7,2.9,3.5v4.9h-1.5
			v-4.7c0-1.3-0.5-2.4-1.9-2.4c-1,0-1.8,0.7-2,1.5c-0.1,0.2-0.1,0.4-0.1,0.7v4.9h-1.5V370.8z"/>
		<path class="st1" d="M394.6,375.9c0-0.6,0.4-1.1,1-1.1c0.6,0,1,0.4,1,1.1c0,0.6-0.4,1.1-1,1.1C395,377,394.6,376.5,394.6,375.9z"
			/>
		<path class="st1" d="M404.4,376.5c-0.4,0.2-1.3,0.5-2.4,0.5c-2.5,0-4.1-1.7-4.1-4.2c0-2.5,1.7-4.4,4.4-4.4c0.9,0,1.7,0.2,2.1,0.4
			l-0.3,1.2c-0.4-0.2-0.9-0.4-1.7-0.4c-1.9,0-2.9,1.4-2.9,3.1c0,1.9,1.2,3.1,2.9,3.1c0.8,0,1.4-0.2,1.8-0.4L404.4,376.5z"/>
		<path class="st1" d="M413.5,372.6c0,3-2.1,4.4-4.1,4.4c-2.2,0-3.9-1.6-3.9-4.2c0-2.8,1.8-4.4,4.1-4.4
			C411.9,368.4,413.5,370.1,413.5,372.6z M406.9,372.7c0,1.8,1,3.2,2.5,3.2c1.4,0,2.5-1.3,2.5-3.2c0-1.4-0.7-3.2-2.5-3.2
			S406.9,371.1,406.9,372.7z"/>
		<path class="st1" d="M415.4,370.8c0-0.9,0-1.5-0.1-2.2h1.3l0.1,1.3h0.1c0.5-0.8,1.2-1.5,2.6-1.5c1.1,0,2,0.7,2.3,1.6h0
			c0.3-0.5,0.6-0.8,0.9-1.1c0.5-0.4,1-0.6,1.8-0.6c1.1,0,2.7,0.7,2.7,3.6v4.8h-1.5v-4.7c0-1.6-0.6-2.5-1.8-2.5
			c-0.9,0-1.5,0.6-1.8,1.4c-0.1,0.2-0.1,0.5-0.1,0.7v5.1h-1.5v-4.9c0-1.3-0.6-2.3-1.7-2.3c-0.9,0-1.6,0.7-1.9,1.5
			c-0.1,0.2-0.1,0.5-0.1,0.7v5h-1.5V370.8z"/>
	</g>
</g>
<g id="Layer_4">
	<path class="st1" d="M230.7,121.9c3.5,0,6.1,4.1,7.7,12.3l-0.5,6.1c2.7,2.9,4.1,5.1,4.1,6.7l-1,4.1h-1.5l-3.6-3.1h-1.5
		c-11.5,12.9-21,20.7-28.6,23.5c-7.5,4.8-11.8,7.2-12.8,7.2h-0.5v-1c0.8-1.5,6.9-5.9,18.4-13.3c12.9-10.6,19.4-17.3,19.4-20
		c-5.1-3.6-7.7-6.5-7.7-8.6C222.5,128.2,225.3,123.6,230.7,121.9z M357.9,123.5c5.1,9.9,8.6,17.8,10.7,23.5v2.5h-0.5
		c-1.2,0-2.8-1-4.6-3.1H363l-0.5,2c4.4,48.7,8.2,73.1,11.2,73.1c3.7-1,7-1.6,9.7-1.6c7.1,2,10.7,5.5,10.7,10.8v3.5
		c-1.5,8.9-4.2,13.3-8.2,13.3c-5.3,0-11.1-4.2-17.4-12.7h-0.5c-20.1,8.5-34.7,12.7-43.9,12.7h-4.6c-17.6,0-27.8-12.8-30.6-38.3
		c0-6.3-0.5-13.5-1.5-21.5l0.5-0.5v-0.5c0-12.2-2.2-30.3-6.6-54.1h-0.5c1.6-5.8,3-8.7,4.1-8.7c3.4,4.4,6.1,22.3,8.2,53.7l-0.5,2.5
		c1.4,22.6,3.4,37.1,6.1,43.5c5,9.2,13.3,13.8,25,13.8s25.5-4.1,41.4-12.3v-0.5c-2.7-13-6.1-42.8-10.2-89.4c-0.7,0-1-1.2-1-3.5
		C355.3,126.2,356.7,123.5,357.9,123.5z M543.3,123.9c3.1,0.9,4.6,3.2,4.6,7.2l-1.6,2h-0.5c-1.8-1.7-3.3-2.5-4.6-2.5h-0.5
		c-1.4,0.5-2,1.7-2,3.5v2c0,12.2-1,19.2-3.1,21h-0.5c-0.7,0-1.9-2.2-3.5-6.7c-2.8-4.8-6.1-7.2-9.7-7.2l-4.6-4.6v-2.6
		c0-1.9,0.8-3.1,2.5-3.5c3.3,0.6,8.1,4.7,14.3,12.3h1v-2l0.5-6.1h-0.5C537.4,128.2,540.1,123.9,543.3,123.9z M580.1,124.5
		c3.8,0,5.7,5.3,5.7,15.8c2,1.4,3.1,3.1,3.1,5.1v1l-1.6,1.6c-2-1.4-3.6-2-4.6-2h-0.5c-12.4,12.6-24.1,20.6-35.2,24l-3.1,1h-1v-0.5
		c1.4-1.6,8.2-6,20.4-13.3c8.6-6.3,13.7-10.7,15.3-13.3c-3.4-3.5-5.1-6.1-5.1-7.7C573.5,130.2,575.7,126.3,580.1,124.5z
		 M393.1,125.5h1c6.5,13.9,9.7,23.1,9.7,27.6h-1.6l-3.5-3.6l-0.5,0.5v2.5l0.5,0.5l-0.5,0.5v0.5c5.4,43,8.2,66.7,8.2,71l-0.5,5.7h0.5
		l-0.5,0.5v5.7c-1.5,6.8-2.8,10.2-4.1,10.2l-1-1V243l0.5-4.1l-9.7-91.9c-0.3-8.9-0.8-13.3-1.6-13.3
		C391.4,128.2,392.5,125.5,393.1,125.5z M142.8,126c2.3,0.6,4.2,2.7,5.7,6.1l-2,3.1l-4.6-2.5h-1l-1.5,1.5v4.6
		c0,17.5-4.9,28.4-14.8,32.7v-0.5c6.5-7.4,9.7-12.2,9.7-14.3v-1c0-4.3-2.9-8.9-8.7-13.8c-4.7-1.5-7.2-3.1-7.6-4.6v-1
		c0.2-3.4,1.2-5.1,3.1-5.1c3.4,0.9,8.3,5.6,14.8,14.3l0.5-0.5v-1.6C136.2,133.4,138.4,127.6,142.8,126z M179.6,126.5h0.5l1,1
		l-2,13.8v1.6c0.5,5.4,1.8,8.2,4.1,8.2c1.1,0,2-1.4,2.5-4.1h1.6l0.5,1.5c0,4.2-1.7,7.8-5.1,10.8c-4.8-1.6-7.2-6.1-7.2-13.3v-0.5
		C175.5,143.3,176.9,137,179.6,126.5z M337.5,126.5l0.5,0.5l-3.1,16.9c0,3.2,1.2,5.6,3.6,7.2h0.5c1.4-0.7,2-1.5,2-2.6h1.6l0.5,2
		c-1,4.6-2.4,7.3-4.1,8.2h-2c-3.4-1.5-5.1-4.8-5.1-9.7h-0.5l0.5-0.5v-4.1C333.9,132.5,335.8,126.5,337.5,126.5z M432.5,126.5h2
		c1.7,1.4,2.5,3.5,2.5,6.1l-0.5,7.2c3.4,3.5,5.1,6,5.1,7.6c-0.7,1.6-1.4,2.5-2,2.6l-4.6-3.6h-0.5c-1.5,0-4.6,2.7-9.2,8.2
		c-5.9,4.7-12.6,8.4-20,11.2l-0.5-0.5v-0.5c0.5-1,5.9-4.9,16.3-11.7l8.6-8.7v-1c-2-2-3.1-4.1-3.5-6.1
		C426.4,132.9,428.4,129.3,432.5,126.5z M267,127.6v1h0.5c-2,5.9-3.1,11.1-3.1,15.8c0,3,1,5.2,3.1,6.7h0.5l3.1-3.1l1,1
		c-0.8,6.4-2.8,9.7-6.1,9.7c-3.4-2.1-5.1-5.5-5.1-10.2v-1c0-3.8,1.7-10.4,5.1-19.9H267z M310.4,127.6v0.5l-1,9.2c0,2,1,3.2,3.1,3.6
		l1.6-1.6l0.5,0.5h0.5c-1.1,4.4-2.3,6.6-3.6,6.6h-0.5c-3.4,0-5.1-2.5-5.1-7.6C305.8,134.9,307.4,131.1,310.4,127.6z M499.9,127.6h1
		v1c0,3-9.4,9.7-28.1,19.9l-17.4,11.2h-1l-0.5-2c0-3.1,7.8-8.7,23.5-16.8C491.1,132,498.6,127.6,499.9,127.6z M227.2,132.1
		c0,1.5,1.7,2.7,5.1,3.6v-2c0-1.8-0.7-3-2-3.6h-1L227.2,132.1z M576.6,133.1v0.5c1.7,2.4,3.4,3.5,5.1,3.5l0.5-0.5v-2
		c0-1.9-0.8-3.2-2.5-4.1h-0.5L576.6,133.1z M429.9,134.2v1l2.6,2.6h1v-4.1l-1-1h-1L429.9,134.2z M104.6,150.5h0.5v2l-3.5,17.9
		c0.4,8.2,2.4,12.3,6.1,12.3c1-0.1,2-1.8,3.1-5.1h0.5l1,1v0.5c-0.6,8.2-3.5,12.3-8.6,12.3c-1.7,5.4-2.6,10.6-2.6,15.3
		c0,11.8,6.5,19.1,19.4,22l3.6,0.5c16,0,33.4-8.9,52.1-26.6l1-3.1l-11.8-28.6c0.7-5.8,1.7-8.6,3.1-8.6c7.2,8,10.8,12.6,10.8,13.8
		l-3.6,1c0,1.4,2,6.7,6.1,15.9v6.6c0,9.1-7.2,17.8-21.5,26.1c-4.8,4.1-7.2,11.1-7.2,20.9c1.8,10.6,6.4,15.9,13.8,15.9l3.5,0.5h0.5
		c11.7,0,25.4-8.7,41.3-26l0.5-2.6c0-0.8-0.7-1.3-2-1.5l-10.2,1.5c-8.2,0-12.3-4.2-12.3-12.7c2.1-9.2,6-13.8,11.7-13.8
		c3.3,0,8.3,4.1,14.8,12.3h1.5c1.7,0,4.6-0.8,8.7-2.5v-1c-11.9-8.5-17.9-17.2-17.9-26.1c0-7.4,4.3-14,12.8-19.9
		c7.7-3.1,13.5-4.6,17.4-4.6c8.3,0,15.3,2.2,20.9,6.7v1l-8.2-1h-3.5c-9,0-19.9,3.6-32.7,10.7l-1.6,2.6c0,6.8,5.4,13.2,16.3,19.4
		c5.3,2,9.4,3.1,12.3,3.1h1.6c4.4,0,16-5.3,34.7-15.9h1.5v0.5c0,6.6-3.6,11.1-10.7,13.3c-12.4,8-28.6,15.8-48.6,23.5
		c-1.3,1.3-2.5,5.1-3.5,11.2c-3.9,7.5-11.1,15-21.5,22.5c-9.4,6.4-17.2,9.7-23.5,9.7h-3.6c-7,0-12.6-4.8-16.8-14.3l-1-6.1v-6.6
		l2-12.8v-0.5c-13.3,4.8-22,7.2-26.1,7.2h-1c-12.6,0-21.1-5.8-25.5-17.4c-1.4-2.8-2-5.7-2-8.7c0-8,1.5-16.7,4.6-26
		c-2-3.2-3.1-7.3-3.1-12.3C100.7,158.9,102.8,150.5,104.6,150.5z M506.1,157.7h1v0.5l-2,9.7v0.5c0,4,1.5,6.2,4.6,6.6l0.5-0.5
		c0.7,0,1-0.9,1-2.6l0.5-0.5h1.6v0.5c0,4.5-1.5,7.7-4.6,9.7h-1.5c-3.1-2.4-4.6-4.7-4.6-7.2V172C502.5,168.1,503.7,163.3,506.1,157.7
		z M315.5,159.2h0.5l-2.6,8.2v2c0,2.6,0.7,4.1,2,4.6h1l3.1-3.1h0.5v2c-1.2,4.8-3.3,7.2-6.1,7.2c-2.7-1-4.1-3.7-4.1-8.2
		C311.3,165.1,313.1,160.9,315.5,159.2z M582.7,161.3h0.5l-2.5,7.2v0.5c0,5.1,0.8,7.7,2.5,7.7h1c1.4-0.7,2-1.5,2-2.6h1v1h0.5
		c-1.8,5.1-3.3,7.7-4.6,7.7h-1c-2.7-1.4-4.1-4.3-4.1-8.7C579.4,165.5,581,161.3,582.7,161.3z M441.2,162.8c3.8,2.3,6.5,4.9,8.2,7.7
		c0,2.1-1.5,4.5-4.6,7.2l-7.7-5.1c-2.3,4.3-3.8,6.5-4.6,6.6c-2.1,0-5-2-8.7-6.1v-0.5c0-2.6,1.2-5,3.6-7.2h2c2.7,2,4.7,3.1,6.1,3.1
		h0.5C438.9,164.6,440.6,162.8,441.2,162.8z M470.8,173.5h0.5c5.1,4.1,8.7,7.7,10.7,10.7v1.6h-2.5l-1,1v1c5.8,8.4,8.6,15.2,8.6,20.4
		v0.5c0,9.1-4.6,16.8-13.8,23l-1,6.1c0,8.7,3.4,14.3,10.2,16.8l5.1,0.5c13.2,0,27.9-9.7,43.9-29.2l0.5-2l-1.5-1.5H530
		c-5.2,1.4-9.5,2-12.7,2h-0.5c-7.5,0-11.2-3.1-11.2-9.2v-2.6c2.3-10.2,6.4-15.3,12.3-15.3c4.7,0,10,3.7,15.9,11.2h1.5
		c1,0,6.5-3.6,16.3-10.7h0.5c1.4,0.7,2,1.7,2,3.1l-0.5,4.1c0,3.7,3.7,6.2,11.2,7.6h1c6.8,0,12.6-5.6,17.4-16.8l0.5-0.5h1l1,1l-2,6.1
		c2.5,4.1,6.2,6.1,11.2,6.1c2.4-0.2,3.5-1.1,3.5-2.5l-2.5-5.7c0.8-4.8,1.6-7.2,2.5-7.2h0.5c2.7,3,4.1,6,4.1,9.2v5.7
		c-1.4,7.1-4.7,10.7-9.7,10.7c-4.3,0-8.7-2.2-13.3-6.6h-1c-4,7.1-9.6,10.7-16.8,10.7h-1c-5,0-8.8-3.6-11.2-10.7l-0.5-2H548
		c-7.5,5-11.2,9.1-11.2,12.3c0,8.7-6,17.9-17.9,27.6c-10.7,10.2-21.3,15.3-31.8,15.3c-10.5,0-16.7-7.2-18.7-21.5l0.5-6.7h-0.5
		c-1.5,0-6.4,2.9-14.8,8.7c-13.6,8.6-25.4,13.4-35.2,14.3c-6.8,2-13.1,3.4-18.9,4.1v-0.5c0.6-1.5,8.6-5.3,24-11.2
		c18.2-9.1,35.5-20.1,52.1-33.2c4.8-4.8,7.2-7.9,7.2-9.2c-1-2.7-4.4-9.1-10.2-19.4l-3.6-10.2v-1.6
		C469.2,175.4,469.9,173.5,470.8,173.5z M354.3,174.5l2,0.5v1.6c0,2.9-4.4,5.6-13.3,8.2c-0.8,1-13.8,6.6-38.8,16.8l-0.5-0.5v-1
		c0-3.1,7.5-7.4,22.5-12.8L354.3,174.5z M450.4,180.7l1,1c-0.6,5.2-3,10.6-7.2,16.3c-0.6,0-0.9,0.8-1,2.5v0.5
		c6.8,5.2,10.2,9.8,10.2,13.8c0,9.8-5.6,16.8-16.8,21l-3.1,0.5c-4,0-6.4-3.2-7.2-9.7c0-5.7,1.5-12,4.6-18.9c0-1.7-3.6-5.6-10.7-11.7
		c-1.7-1.8-2.6-3.3-2.6-4.6v-2.5c0-1.9,0.5-3.2,1.6-4.1c8.2,2.6,12.6,4.7,13.3,6.1v0.5c0,0.7-0.5,1-1.6,1l-0.5,0.5v0.5
		c2.1,2.7,4.2,4.1,6.1,4.1h0.5L450.4,180.7z M140.3,191.9h1c5.4,2.2,8.2,4.4,8.2,6.6c0,2-1.4,4-4.1,6.1c-4-1.1-6.8-2.8-8.2-5.1
		C137.3,195.6,138.3,193.1,140.3,191.9z M335.9,200.6v0.5l-1.5,6.1v4.6c0.5,3.8,1.2,5.7,2,5.7h1l2.5-2.6h0.5l0.5,1.6
		c-1.8,5.4-3.5,8.2-5.1,8.2c-3.4-1.4-5.1-4.6-5.1-9.6C330.8,210,332.5,205.2,335.9,200.6z M512.2,212.3c0.7,0.8,2.6,1.3,5.6,1.5
		c3.1-0.3,5.1-0.8,6.1-1.5c-2.3-2.7-4.7-4.1-7.2-4.1C513.7,209.3,512.2,210.6,512.2,212.3z M436.1,209.8c-3.3,4.6-5.1,8.5-5.6,11.8
		c0,1.8,0.8,3.1,2.5,4.1h3.1c7.9-2.6,11.8-5.5,11.8-8.7C446.9,214.5,443,212.1,436.1,209.8z M196.5,219l-1.6,2v0.5
		c0.5,1.4,1.7,2,3.6,2h5.6V222C204.1,220.3,201.6,219.3,196.5,219z M276.2,227.7h0.5l0.5,2.5c-1.7,6.4-2.6,11.5-2.6,15.3
		c0,5.8,1.4,8.7,4.1,8.7c0.8,0,1.6-1.5,2.6-4.6l0.5-0.5h1l0.5,2c-1.4,7.5-3.6,11.2-6.7,11.2c-4.1-2-6.1-6.3-6.1-12.8
		C272.7,235,274.6,227.7,276.2,227.7z M378.4,231.8c2.3,3,4.7,4.6,7.2,4.6h3.1v-1c0-1.5-2-3-6.1-4.6
		C379.7,231,378.4,231.3,378.4,231.8z M590.3,231.2h0.5l1,1c0,5.8-2.2,9.7-6.7,11.8l-5.1-1c-3,2-5.2,3.1-6.6,3.1l-6.7-2
		c-2.3,0-9.5,4.1-21.5,12.3l-6.1,1.5h-0.5v-0.5c17.2-12.6,26.7-18.9,28.6-18.9h1.5l5.1,1.6h1.6c2.5,0,4.5-1.7,6.1-5.1h1l2.5,2.5h2
		C588.1,237.3,589.1,235.3,590.3,231.2z M239.4,234.8c1.4,0.5,2.4,1.3,3.1,2.5c-0.8,3.1-1.6,4.6-2.6,4.6l-2.5-1.6h-0.5l-1,1
		c0.1,0.7,1,1.4,2.6,2l9.2-4.1l0.5,0.5c-0.2,2.5-4.5,6.4-12.7,11.7l-3.1,4.1v1.6c0.3,1.4,2.3,2,5.8,2c3.6,0,9.1-1.9,16.7-5.7
		l0.5,0.5v0.5c-5.9,7.2-13.1,10.8-21.5,10.8c-2.4,0-4.3-1.9-5.6-5.7l5.1-11.2l-2.6-3.1V245C230.7,240.9,233.6,237.5,239.4,234.8z
		 M362,243h1v0.5c-1.7,3-2.6,5.7-2.6,8.2c0.4,3.8,1.3,5.7,2.6,5.7h1l2-1.6h0.5v0.5c-0.9,4.4-2.8,6.6-5.6,6.6
		c-2.7-0.8-4.1-3.1-4.1-6.9S358.6,247.9,362,243z M141.8,247.1l0.5,1.5c0,2.6-6.5,6.3-19.4,11.2l-15.9,6.7h-1c0-2.9,1.4-4.8,4.1-5.7
		L141.8,247.1z"/>
</g>
</svg>
