<?xml version="1.0" encoding="utf-8"?>
<!-- Generator: Adobe Illustrator 25.2.3, SVG Export Plug-In . SVG Version: 6.00 Build 0)  -->
<svg version="1.1" xmlns="http://www.w3.org/2000/svg" xmlns:xlink="http://www.w3.org/1999/xlink" x="0px" y="0px"
	 viewBox="0 0 700 395" style="enable-background:new 0 0 700 395;" xml:space="preserve">
<style type="text/css">
	.st0{fill:#000222;}
	.st1{fill:#FFFFFF;}
</style>
<g id="Layer_1">
	<rect class="st0" width="700" height="395"/>
</g>
<g id="Layer_3">
	<g>
		<path class="st1" d="M273.5,368.6l1.1,4.2c0.2,0.9,0.5,1.8,0.6,2.6h0.1c0.2-0.8,0.5-1.7,0.7-2.6l1.3-4.2h1.3l1.3,4.1
			c0.3,1,0.5,1.9,0.7,2.7h0.1c0.1-0.8,0.4-1.7,0.6-2.7l1.2-4.1h1.5l-2.7,8.2H280l-1.3-3.9c-0.3-0.9-0.5-1.7-0.7-2.7h0
			c-0.2,1-0.5,1.8-0.7,2.7l-1.3,3.9h-1.4l-2.5-8.2H273.5z"/>
		<path class="st1" d="M286.3,368.6l1.1,4.2c0.2,0.9,0.5,1.8,0.6,2.6h0.1c0.2-0.8,0.5-1.7,0.7-2.6l1.3-4.2h1.3l1.3,4.1
			c0.3,1,0.5,1.9,0.7,2.7h0.1c0.1-0.8,0.4-1.7,0.6-2.7l1.2-4.1h1.5l-2.7,8.2h-1.4l-1.3-3.9c-0.3-0.9-0.5-1.7-0.7-2.7h0
			c-0.2,1-0.5,1.8-0.7,2.7l-1.3,3.9h-1.4l-2.5-8.2H286.3z"/>
		<path class="st1" d="M299,368.6l1.1,4.2c0.2,0.9,0.5,1.8,0.6,2.6h0.1c0.2-0.8,0.5-1.7,0.7-2.6l1.3-4.2h1.3l1.3,4.1
			c0.3,1,0.5,1.9,0.7,2.7h0.1c0.1-0.8,0.4-1.7,0.6-2.7l1.2-4.1h1.5l-2.7,8.2h-1.4l-1.3-3.9c-0.3-0.9-0.5-1.7-0.7-2.7h0
			c-0.2,1-0.5,1.8-0.7,2.7l-1.3,3.9h-1.4l-2.5-8.2H299z"/>
		<path class="st1" d="M309.9,375.9c0-0.6,0.4-1.1,1-1.1c0.6,0,1,0.4,1,1.1c0,0.6-0.4,1.1-1,1.1C310.3,377,309.9,376.5,309.9,375.9z
			"/>
		<path class="st1" d="M313.5,375.3c0.4,0.3,1.2,0.6,2,0.6c1.1,0,1.6-0.5,1.6-1.2c0-0.7-0.4-1.1-1.5-1.5c-1.5-0.5-2.2-1.3-2.2-2.3
			c0-1.3,1.1-2.4,2.8-2.4c0.8,0,1.6,0.2,2,0.5l-0.4,1.1c-0.3-0.2-0.9-0.5-1.7-0.5c-0.9,0-1.4,0.5-1.4,1.1c0,0.7,0.5,1,1.6,1.4
			c1.4,0.5,2.2,1.3,2.2,2.5c0,1.4-1.1,2.5-3.1,2.5c-0.9,0-1.7-0.2-2.3-0.6L313.5,375.3z"/>
		<path class="st1" d="M327.4,374.6c0,0.9,0,1.6,0.1,2.2h-1.3l-0.1-1.3h0c-0.4,0.7-1.3,1.5-2.7,1.5c-1.3,0-2.8-0.7-2.8-3.6v-4.8h1.5
			v4.6c0,1.6,0.5,2.6,1.8,2.6c1,0,1.7-0.7,2-1.4c0.1-0.2,0.1-0.5,0.1-0.8v-5h1.5V374.6z"/>
		<path class="st1" d="M329.8,371.1c0-1,0-1.8-0.1-2.6h1.3l0.1,1.6h0.1c0.4-1.1,1.3-1.8,2.3-1.8c0.2,0,0.3,0,0.4,0.1v1.4
			c-0.2,0-0.3-0.1-0.5-0.1c-1.1,0-1.8,0.8-2,1.9c0,0.2-0.1,0.4-0.1,0.7v4.4h-1.5V371.1z"/>
		<path class="st1" d="M339.9,376.8l-0.1-1h-0.1c-0.5,0.6-1.3,1.2-2.5,1.2c-1.7,0-2.5-1.2-2.5-2.4c0-2,1.8-3.1,4.9-3.1v-0.2
			c0-0.7-0.2-1.9-1.9-1.9c-0.8,0-1.6,0.2-2.1,0.6l-0.3-1c0.7-0.4,1.7-0.7,2.7-0.7c2.5,0,3.1,1.7,3.1,3.4v3.1c0,0.7,0,1.4,0.1,2
			H339.9z M339.7,372.6c-1.6,0-3.5,0.3-3.5,1.9c0,1,0.6,1.4,1.4,1.4c1.1,0,1.8-0.7,2-1.4c0.1-0.2,0.1-0.3,0.1-0.5V372.6z"/>
		<path class="st1" d="M343.5,364.7h1.5v5.1h0c0.2-0.4,0.6-0.8,1.1-1.1c0.4-0.3,1-0.4,1.5-0.4c1.1,0,2.9,0.7,2.9,3.5v4.9H349v-4.7
			c0-1.3-0.5-2.4-1.9-2.4c-1,0-1.7,0.7-2,1.5c-0.1,0.2-0.1,0.4-0.1,0.7v5h-1.5V364.7z"/>
		<path class="st1" d="M358.6,375.5L358.6,375.5c-0.5,0.8-1.4,1.5-2.7,1.5c-1.9,0-3.5-1.7-3.5-4.2c0-3.1,2-4.4,3.7-4.4
			c1.3,0,2.1,0.6,2.5,1.4h0l0.1-1.2h1.4c0,0.7-0.1,1.4-0.1,2.3v9.3h-1.5V375.5z M358.6,371.9c0-0.2,0-0.4-0.1-0.6
			c-0.2-0.9-1-1.7-2.1-1.7c-1.5,0-2.5,1.3-2.5,3.2c0,1.6,0.8,3.1,2.4,3.1c1,0,1.8-0.6,2.1-1.6c0.1-0.2,0.1-0.5,0.1-0.7V371.9z"/>
		<path class="st1" d="M369.4,374.6c0,0.9,0,1.6,0.1,2.2h-1.3l-0.1-1.3h0c-0.4,0.7-1.3,1.5-2.7,1.5c-1.3,0-2.8-0.7-2.8-3.6v-4.8h1.5
			v4.6c0,1.6,0.5,2.6,1.8,2.6c1,0,1.7-0.7,2-1.4c0.1-0.2,0.1-0.5,0.1-0.8v-5h1.5V374.6z"/>
		<path class="st1" d="M371.9,371.1c0-1,0-1.8-0.1-2.6h1.3l0.1,1.6h0.1c0.4-1.1,1.3-1.8,2.3-1.8c0.2,0,0.3,0,0.4,0.1v1.4
			c-0.2,0-0.3-0.1-0.5-0.1c-1.1,0-1.8,0.8-2,1.9c0,0.2-0.1,0.4-0.1,0.7v4.4h-1.5V371.1z"/>
		<path class="st1" d="M381.9,376.8l-0.1-1h-0.1c-0.5,0.6-1.3,1.2-2.5,1.2c-1.7,0-2.5-1.2-2.5-2.4c0-2,1.8-3.1,4.9-3.1v-0.2
			c0-0.7-0.2-1.9-1.9-1.9c-0.8,0-1.6,0.2-2.1,0.6l-0.3-1c0.7-0.4,1.7-0.7,2.7-0.7c2.5,0,3.1,1.7,3.1,3.4v3.1c0,0.7,0,1.4,0.1,2
			H381.9z M381.7,372.6c-1.6,0-3.5,0.3-3.5,1.9c0,1,0.6,1.4,1.4,1.4c1.1,0,1.8-0.7,2-1.4c0.1-0.2,0.1-0.3,0.1-0.5V372.6z"/>
		<path class="st1" d="M385.6,370.8c0-0.9,0-1.5-0.1-2.2h1.3l0.1,1.4h0c0.4-0.8,1.4-1.5,2.7-1.5c1.1,0,2.9,0.7,2.9,3.5v4.9h-1.5
			v-4.7c0-1.3-0.5-2.4-1.9-2.4c-1,0-1.8,0.7-2,1.5c-0.1,0.2-0.1,0.4-0.1,0.7v4.9h-1.5V370.8z"/>
		<path class="st1" d="M394.6,375.9c0-0.6,0.4-1.1,1-1.1c0.6,0,1,0.4,1,1.1c0,0.6-0.4,1.1-1,1.1C395,377,394.6,376.5,394.6,375.9z"
			/>
		<path class="st1" d="M404.4,376.5c-0.4,0.2-1.3,0.5-2.4,0.5c-2.5,0-4.1-1.7-4.1-4.2c0-2.5,1.7-4.4,4.4-4.4c0.9,0,1.7,0.2,2.1,0.4
			l-0.3,1.2c-0.4-0.2-0.9-0.4-1.7-0.4c-1.9,0-2.9,1.4-2.9,3.1c0,1.9,1.2,3.1,2.9,3.1c0.8,0,1.4-0.2,1.8-0.4L404.4,376.5z"/>
		<path class="st1" d="M413.5,372.6c0,3-2.1,4.4-4.1,4.4c-2.2,0-3.9-1.6-3.9-4.2c0-2.8,1.8-4.4,4.1-4.4
			C411.9,368.4,413.5,370.1,413.5,372.6z M406.9,372.7c0,1.8,1,3.2,2.5,3.2c1.4,0,2.5-1.3,2.5-3.2c0-1.4-0.7-3.2-2.5-3.2
			S406.9,371.1,406.9,372.7z"/>
		<path class="st1" d="M415.4,370.8c0-0.9,0-1.5-0.1-2.2h1.3l0.1,1.3h0.1c0.5-0.8,1.2-1.5,2.6-1.5c1.1,0,2,0.7,2.3,1.6h0
			c0.3-0.5,0.6-0.8,0.9-1.1c0.5-0.4,1-0.6,1.8-0.6c1.1,0,2.7,0.7,2.7,3.6v4.8h-1.5v-4.7c0-1.6-0.6-2.5-1.8-2.5
			c-0.9,0-1.5,0.6-1.8,1.4c-0.1,0.2-0.1,0.5-0.1,0.7v5.1h-1.5v-4.9c0-1.3-0.6-2.3-1.7-2.3c-0.9,0-1.6,0.7-1.9,1.5
			c-0.1,0.2-0.1,0.5-0.1,0.7v5h-1.5V370.8z"/>
	</g>
</g>
<g id="Layer_4">
	<path class="st1" d="M326.2,111.6h2.4c3.2,1.9,4.8,4.9,4.8,9.1l-0.6,1.8H331c-1.8-2.4-3.6-3.6-5.5-3.6c-0.9,0-1.5,2.6-1.8,7.9
		l0.6,0.6c-0.4,7.1-1.6,13.6-3.6,19.3h-0.6c-6.3-10-10.5-15-12.7-15c-3.5,0-6.5-2.6-9-7.9c0.9-4,1.8-6,3-6c4.3,0,10.4,6,18.1,18.1
		h1.2v-10.2C322.2,116.2,324.1,111.6,326.2,111.6z M596.8,111.6c3.6,1.2,5.5,3.6,5.5,7.2c-0.4,2.4-1,3.6-1.8,3.6
		c-2.4-2.4-4.4-3.6-6-3.6c-1.1,0.3-2.1,1.3-3,3.1v1.2c0,18.9-1.2,28.3-3.6,28.3c-5.6-11.6-11.3-17.4-16.9-17.4
		c-3.2-1.4-4.8-4.3-4.8-8.4c0-1.1,1-2.1,3-3.1c3.3,0,9.3,5.6,18.1,16.9l0.6-0.6v-10.3C587.8,120.3,590.8,114.6,596.8,111.6z
		 M640.3,111.6c4.4,0,6.7,6.2,6.7,18.7c2.4,2.4,3.8,4.4,4.2,6l-0.6,2.4h-2.4l-4.8-2.4c-15.9,17.2-30.8,27.4-44.6,30.7v-0.6
		c18.6-12.5,30.7-21.2,36.2-26l4.2-4.8v-1.8c-4-3.2-6-6-6-8.4v-1.2C633,118.7,635.4,114.5,640.3,111.6z M273.7,114.6h1.2
		c4.3,18.2,7.7,43.1,10.3,74.8c1.8,33.9,5.4,52.1,10.9,54.8c4,3.6,9,5.9,15,6.7h5.5c10,0,21-3.4,33.1-10.3l0.6-0.6v-0.6
		c-4.2-6-9.6-9-16.3-9l-5.4,1.2H328l-1.2-1.2c0-8.8,8.4-14.2,25.3-16.3h12.1c9.1,0,18,2.8,26.5,8.4l0.6,1.8c0,4.9-5.2,9.1-15.7,12.6
		l-6,4.8v0.6c3.4,4.8,8.5,7.2,15.2,7.2c6.8,0,11.9-2.4,15.5-7.2v-3.1c-1.6-18.4-5.8-52.2-12.6-101.3c0-3.6-0.8-8.2-2.4-13.8
		c1.6-5.3,2.9-7.9,4.2-7.9h0.6c7.6,15,11.4,24.9,11.4,29.6l-0.6,0.6h-1.2l-3.1-2.4h-1.2v1.2c7.2,52.1,10.9,80.4,10.9,85
		c0,14.3-3.8,23.7-11.4,28.3l-10.3,3.1c-8.1,0-15.8-4.2-22.9-12.7l-2.4-1.2h-1.2c-20.3,10.1-34.7,15.1-43.4,15.1
		c-14.6,0-24.3-6.6-28.9-19.9c-2.7-6.9-6.1-36.6-10.2-89.2l-5.5-30.7C271.4,117.4,272.6,114.6,273.7,114.6z M176.7,115.2l0.6,0.6
		v0.6c-1.2,2.6-1.8,6.5-1.8,11.6c0,5.1,1.8,7.7,5.4,7.7l2.4-2.4h0.6c-1.4,5.6-2.8,8.4-4.3,8.4h-2.4c-1.4,0-3.1-3-4.8-9
		C173.7,121,175.1,115.2,176.7,115.2z M467.3,116.4c2,0.6,3,3.3,3,7.9v9c4,4,6,6.8,6,8.4l-0.6,1.8l-9.1-3.1
		c-13.2,13.1-23.5,20.4-30.7,21.7V161l19.9-15c4.1-3.7,6.3-6.1,6.7-7.2v-0.6l-4.3-8.4C459.8,120.8,462.8,116.4,467.3,116.4z
		 M546.2,116.4v1.2h0.6c0,3.4-9.1,10.3-27.2,20.5L493.8,155h-1.2l-0.6-2.4c2.9-4.3,13.2-11.7,30.8-22.3
		C536.9,121,544.7,116.4,546.2,116.4z M137.5,117.6h1.8c2.6,0,5.2,18.1,7.8,54.3h0.6l-0.6,0.6c2,41.8,5.2,62.7,9.6,62.7
		c0.6,2.6,4.9,5.2,12.7,7.8h7.8c17.5-0.7,28.4-4.1,32.6-10.2c0-3.5-3-8.9-9-16.3v-1.2c0.5-5.2,1.3-7.8,2.4-7.8h0.6
		c7.7,6.4,11.5,13.9,11.5,22.6c0,8.7-3.8,15-11.5,19l-1.2,4.8v6c0,3.6,1.6,6.3,4.8,7.9h6c8.8-1.8,23.5-9.5,44-22.9
		c9.2-6.5,14.2-10.6,15-12.1v-2.4c-0.5-4-11.5-9.4-33.1-16.3c-14.9-8.9-22.3-16.1-22.3-21.7c0.4-4,1-6,1.8-6
		c11.6,3.1,17.4,5.3,17.4,6.7c-0.3,1.6-1.7,2.4-4.2,2.4v1.8c3.4,2.7,15,7.6,35,14.5c7.2,4.8,10.9,12.4,10.9,22.9
		c0,5.6-6.4,12.5-19.3,20.5c-24.4,16.9-40.7,25.3-48.9,25.3c-6.2,0-10-4.4-11.4-13.3l1.2-15.7h-1.2c-9,2.4-17.4,3.6-25.3,3.6v0.6
		c-12.3,0-21.1-7.2-26.5-21.7c-1.6-10.7-3.8-37.1-6.7-79l-5.4-30.1L137.5,117.6z M79,118.2h1.8c2.7,1.7,4.3,4.1,4.8,7.2
		c-0.5,2-1.1,3-1.8,3h-1.2c-1.8-2-3.4-3-4.8-3c-1.2,0.4-1.8,1.6-1.8,3.6v12.1c-0.9,8.4-2.1,12.6-3.6,12.6c-1.3-1.1-2.9-4.1-4.8-9
		c-4-6.1-7.6-9.1-10.9-9.1c-4-1.1-6-3.5-6-7.2v-0.6c0-2.1,1-3.7,3.1-4.8c3.5,0,9.5,5.8,18.1,17.4l1.2-1.2v-6.6
		C74.6,123.1,76.6,118.2,79,118.2z M419,118.2h0.6c3.2,2.7,7.6,12.1,13.3,28.3l-0.6,1.8h-1.2c-1.9-2-3.3-3.1-4.3-3.1v5.5
		c7.2,49.8,10.9,80.2,10.9,91c0,5.9-1.4,12.3-4.2,19.3h-1.2l-0.6-6v-3.6c0-10.8-4.2-48.6-12.6-113.3l-2.4-12.6L419,118.2z
		 M636.1,121.2c0,3.1,2.2,5.3,6.6,6.7l0.6-0.6v-3.6c0-3.2-1.4-4.8-4.3-4.8C637.2,119.6,636.2,120.4,636.1,121.2z M118.2,121.2
		l1.2,1.2c-4,11.3-6,19.9-6,26v1.2c0,5.6,1.6,9.2,4.8,10.9h1.8l4.8-6.7h0.6v2.4c0,5.5-2.4,9.9-7.2,13.3H117c-4,0-6.8-3.8-8.4-11.4
		v-5.5c0-8.3,3-18.8,9.1-31.3H118.2z M461.8,127.2l3.1,3.1h1.8l0.6-3.1V126c-0.9-1.6-1.9-2.4-3.1-2.4
		C462.6,124.1,461.8,125.3,461.8,127.2z M241.8,129.1h1.2l1.8,1.8c0,4.3-6,8.5-18.1,12.7l-66.3,33.8l-0.6,0.6l-5.5,1.8v-0.6
		c0-5.3,5.4-10.1,16.3-14.5L241.8,129.1z M381,140.5l0.6,0.6v1.2c0,4.7-4.6,8.1-13.9,10.2L293,186.3v-1.8c0-5.3,10.3-11.5,30.8-18.7
		C336.2,159,355.3,150.6,381,140.5z M253.2,151.4v0.6c-1.6,4-2.4,9.2-2.4,15.7v0.6c0,2.4,1.2,4.4,3.6,6h1.8c1.6-0.6,2.4-2,2.4-4.2
		h1.2v1.8c-1.6,6.1-3.2,9.1-4.8,9.1h-1.8c-2.6,0-4.2-3.8-4.8-11.5C249.9,157.4,251.5,151.4,253.2,151.4z M554.1,153.2v1.2l-0.6,1.8
		h-0.6v-1.8L554.1,153.2z M552.2,156.2h0.6v2.4h-0.6V156.2z M551.7,158.6h0.6v1.8l-0.6,4.8c1.4,5.6,3.1,8.4,4.8,8.4h1.2
		c0.9,0,1.9-1.6,3-4.8h0.6l0.6,1.8c-1.2,6.4-3.4,9.6-6.6,9.6c-4-3-6-6.6-6-10.9L551.7,158.6z M475.7,160.4c6.4,2.4,9.6,5.2,9.6,8.4
		v0.6c0,2.5-1.4,4.7-4.3,6.7c-1.2,0-4.4-1.8-9.6-5.5c-2.7,5.3-4.7,7.9-6,7.9c-6.4-2.9-9.6-5.4-9.6-7.2c1.1-4.6,2.5-7.2,4.3-7.9h2.4
		l7.8,4.3L475.7,160.4z M367.2,161v1.2c-2,5.5-3.1,11.4-3.1,17.5v3.6c0,6.5,1.8,10.7,5.5,12.6h1.2c0.6,0,1.4-1.4,2.4-4.2h0.6
		l0.6,0.6h0.6c0,4.6-2,8.8-6,12.7c-5.2,0-8.4-6-9.6-18.1c0-8.5,2.4-17.1,7.2-26H367.2z M640.9,162.9h0.6c0,6.4,1.2,10,3.6,10.9
		c1.3,0,2.8-0.6,4.3-1.8l0.6,0.6v0.6c-1.9,4.8-3.3,7.2-4.2,7.2h-2.4c-1.3-0.2-2.7-2.6-4.3-7.2L640.9,162.9z M70.6,167.7h0.6v2.4
		l-0.6,4.8c0.5,6.4,2.5,9.6,6,9.6l3-4.3v0.6c0,4.8-1.6,8.2-4.8,10.2h-1.2c-3.6-2-5.4-6.2-5.4-12.6C68.6,174.4,69.4,170.7,70.6,167.7
		z M38,168.9h1.2v1.2L35,190.6v1.2c0,8.1,1.6,13.2,4.8,15H41l4.3-5.4l0.6,0.6v0.6c0,7-3,12.2-9,15.7c-1.2,2.2-1.8,5.4-1.8,9.6
		c0.7,4.3,3.1,8.5,7.2,12.6c8.9,4.8,16.6,7.2,22.9,7.2c22,0,42.5-6,61.5-18.1v-1.2c-0.1-2.9-3.3-8.3-9.6-16.2v-1.2
		c0-4.6,1-7.2,3.1-7.9c8,6.3,12.1,14.1,12.1,23.4s-5.4,15.8-16.3,19.5c-17.6,8.8-34.2,13.3-50,13.3h-2.4c-14.8,0-25.5-6-32-18.1
		l-1.2-7.2v-0.6c0-4.9,1.6-10.5,4.8-16.9v-3c-2.8-4.7-4.2-10.1-4.2-16.3L38,168.9z M511.2,171.9h1.2c8.5,7.7,12.7,11.9,12.7,12.7
		c0,0.8-1.4,1.2-4.3,1.2l-0.6,1.8c7.2,11,10.9,19.3,10.9,24.8v3.6c0,8.3-5,16.1-15.1,23.5l-1.8,7.2v1.8c1.7,12.9,7.7,19.3,18.1,19.3
		h1.8c15,0,31.9-11.5,50.6-34.4l1.2-3c-0.4-1.6-1.6-2.4-3.6-2.4l-15,3c-8.8-1.4-13.3-4.7-13.3-9.6v-2.4c0-9.5,4.4-15.9,13.3-19.3
		h0.6c5.5,0,11.9,4.4,19.3,13.3h0.6c1.9,0,8.5-4.2,19.9-12.6h1.2c1.2,0,2,3.6,2.4,10.9c3.2,4,8.2,6,15.1,6c9.6-3.2,14.5-7,14.5-11.5
		c2.8-5.3,4.8-8.3,6-9l0.6,0.6h0.6l-1.8,7.2v1.2c0,2,4,4,12.1,6c3.6-0.4,5.5-1,5.5-1.8v-3.6l-2.4-3.6c0.4-6.1,1.2-9.1,2.4-9.1h0.6
		c2,0,3.9,5,5.5,15.1c-1.1,9.6-5.3,14.5-12.7,14.5h-0.6c-4.7,0-9.4-2.4-13.9-7.2h-1.8c-4.4,8-10.7,12.1-18.7,12.1
		c-10.4-1.3-15.7-5.8-15.7-13.3l-0.6-0.6h-0.6c-1.9,0-6.5,3.4-13.8,10.3c0,13-7.6,25.7-22.9,37.9c-11.5,11.7-23.1,17.5-35,17.5h-1.8
		c-10.3,0-17.1-7.2-20.5-21.7v-12.7c-3.6,1.1-12.5,6.7-26.5,16.9l-16.2,8.4l-38,9.6l-0.6-0.6v-0.6l35.5-17.4
		c16.7-9.2,33.9-20.9,51.8-35l9.1-9.6v-1.8c-1.7-5-5.3-12.1-10.9-21.1l-5.5-13.3v-1.8L511.2,171.9z M188.1,180.9c4,1.4,6,4.3,6,8.4
		l-1.8,1.2h-0.6c-1.7-1.6-3.3-2.4-4.8-2.4h-1.2l-0.6,3l0.6,7.9c-0.5,9.6-1.5,14.5-3,14.5c-6-8-10-12.1-12.1-12.1c-4-0.3-6-2.1-6-5.5
		c0.3-3.6,1.3-5.4,3-5.4c4.2,1.2,8.6,5.2,13.3,12.1h1.8v-1.2l-0.6-9.1C182.1,186.8,184.1,183,188.1,180.9z M487.8,180.9h0.6v1.2h0.6
		c-1.2,6.6-3.9,12.6-7.9,18.1l-1.8,2.4v0.6c0,2,3,5.3,9,9.6c2.3,3.6,3.5,6.5,3.6,8.4c0,11.9-7.6,20.2-22.9,24.8
		c-5.6,0-8.4-4.2-8.4-12.7H460c0.8-7,2.6-14,5.4-21.1c0-1.2-4.2-5.3-12.6-12.1c-2.8-1.9-4.3-4.7-4.3-8.4c0.5-3.6,1.1-5.5,1.8-5.5
		l15.7,5.5v1.8c0,1.2-0.8,1.8-2.4,1.8v1.2c0,1.2,2.8,2.8,8.4,4.8c1.5-1,5.9-7,13.3-18.1L487.8,180.9z M316.6,187.5v0.6l-1.8,11.4
		v1.8c1.3,4.8,2.8,7.2,4.3,7.2h1.2l3.6-3.6h0.6c-1.2,6.8-3.6,10.2-7.2,10.2c-2.8,0-4.6-4-5.4-12.1
		C311.7,198.4,313.3,193.2,316.6,187.5z M92.9,200.8c5.3,3.9,7.9,6.9,7.9,9.1c-1.3,3.2-2.9,5.6-4.8,7.2l-9.1-4.8h-0.6l-4.8,5.4
		l-0.6,0.6h-0.6c-2.8-1-6-3.6-9.6-7.9c1.6-5.2,3.2-7.8,4.8-7.8h1.8c4.3,2.8,7.1,4.2,8.4,4.2C88.3,202.8,90.7,200.8,92.9,200.8z
		 M561.3,215.9v0.6c0,1.6,2.4,2.4,7.2,2.4h1.8l5.5-1.2v-1.8c-2-2.4-4.7-3.6-7.9-3.6h-0.6C564.9,212.3,562.9,213.5,561.3,215.9z
		 M464.2,229.7c0.6,1.8,1.8,3.2,3.6,4.3h2.4c4.8,0,10-3.2,15.7-9.6v-1.2c-6.2-5.3-11-7.9-14.5-7.9
		C466.6,220.5,464.2,225.3,464.2,229.7z M355.7,227.3v1.2c2.3,3.2,4.5,4.8,6.7,4.8c5.2-1.2,7.8-3,7.8-5.4c-1.9-1.2-5.5-1.8-10.9-1.8
		h-2.4L355.7,227.3z M655.9,238.2l0.6,0.6v0.6c-2,8.5-4.7,12.7-7.9,12.7l-5.4-1.2c-3.2,2.4-5.6,3.6-7.2,3.6h-0.6l-7.2-1.8
		c-3.8,0-12.2,4.8-25.3,14.5l-7.8,3.1v-1.8l30.1-20.5l4.2-1.2l6.7,2.4c3.5,0,6.7-2.2,9.6-6.6c1.9,2.4,3.9,3.6,6,3.6
		c1.1-1.3,2.1-3.8,3-7.2l0.6-0.6H655.9z M123,258.7c0.8,0,1.2,0.6,1.2,1.8c0,2.9-8.2,7.1-24.7,12.6c-1.1,1.1-9.8,4.6-26,10.3
		l-0.6-0.6v-2.4C77.1,276.5,93.7,269.2,123,258.7z M285.2,260.5v1.2c0,3.5-4.6,6.5-13.9,9c-8.3,5.1-15.1,8.2-20.5,9.1V278
		C253.6,273.8,265.1,268,285.2,260.5z M179.1,262.9l8.4,8.4v2.4c-1,1.9-2.8,3.7-5.5,5.4h-0.6c-1.8,0-4.6-1.6-8.4-4.8h-1.2l-6,6
		c-3.5-1.3-6.7-3.9-9.6-7.8v-0.6c0-2.5,1.6-5.1,4.8-7.8h1.8l6,4.2h3.1C174.8,264.7,177.2,262.9,179.1,262.9z"/>
</g>
</svg>
