<?xml version="1.0" encoding="utf-8"?>
<!-- Generator: Adobe Illustrator 25.2.3, SVG Export Plug-In . SVG Version: 6.00 Build 0)  -->
<svg version="1.1" xmlns="http://www.w3.org/2000/svg" xmlns:xlink="http://www.w3.org/1999/xlink" x="0px" y="0px"
	 viewBox="0 0 700 395" style="enable-background:new 0 0 700 395;" xml:space="preserve">
<style type="text/css">
	.st0{fill:#000222;}
	.st1{fill:#FFFFFF;}
</style>
<g id="Layer_1">
	<rect class="st0" width="700" height="395"/>
</g>
<g id="Layer_3">
	<g>
		<path class="st1" d="M273.5,368.6l1.1,4.2c0.2,0.9,0.5,1.8,0.6,2.6h0.1c0.2-0.8,0.5-1.7,0.7-2.6l1.3-4.2h1.3l1.3,4.1
			c0.3,1,0.5,1.9,0.7,2.7h0.1c0.1-0.8,0.4-1.7,0.6-2.7l1.2-4.1h1.5l-2.7,8.2H280l-1.3-3.9c-0.3-0.9-0.5-1.7-0.7-2.7h0
			c-0.2,1-0.5,1.8-0.7,2.7l-1.3,3.9h-1.4l-2.5-8.2H273.5z"/>
		<path class="st1" d="M286.3,368.6l1.1,4.2c0.2,0.9,0.5,1.8,0.6,2.6h0.1c0.2-0.8,0.5-1.7,0.7-2.6l1.3-4.2h1.3l1.3,4.1
			c0.3,1,0.5,1.9,0.7,2.7h0.1c0.1-0.8,0.4-1.7,0.6-2.7l1.2-4.1h1.5l-2.7,8.2h-1.4l-1.3-3.9c-0.3-0.9-0.5-1.7-0.7-2.7h0
			c-0.2,1-0.5,1.8-0.7,2.7l-1.3,3.9h-1.4l-2.5-8.2H286.3z"/>
		<path class="st1" d="M299,368.6l1.1,4.2c0.2,0.9,0.5,1.8,0.6,2.6h0.1c0.2-0.8,0.5-1.7,0.7-2.6l1.3-4.2h1.3l1.3,4.1
			c0.3,1,0.5,1.9,0.7,2.7h0.1c0.1-0.8,0.4-1.7,0.6-2.7l1.2-4.1h1.5l-2.7,8.2h-1.4l-1.3-3.9c-0.3-0.9-0.5-1.7-0.7-2.7h0
			c-0.2,1-0.5,1.8-0.7,2.7l-1.3,3.9h-1.4l-2.5-8.2H299z"/>
		<path class="st1" d="M309.9,375.9c0-0.6,0.4-1.1,1-1.1c0.6,0,1,0.4,1,1.1c0,0.6-0.4,1.1-1,1.1C310.3,377,309.9,376.5,309.9,375.9z
			"/>
		<path class="st1" d="M313.5,375.3c0.4,0.3,1.2,0.6,2,0.6c1.1,0,1.6-0.5,1.6-1.2c0-0.7-0.4-1.1-1.5-1.5c-1.5-0.5-2.2-1.3-2.2-2.3
			c0-1.3,1.1-2.4,2.8-2.4c0.8,0,1.6,0.2,2,0.5l-0.4,1.1c-0.3-0.2-0.9-0.5-1.7-0.5c-0.9,0-1.4,0.5-1.4,1.1c0,0.7,0.5,1,1.6,1.4
			c1.4,0.5,2.2,1.3,2.2,2.5c0,1.4-1.1,2.5-3.1,2.5c-0.9,0-1.7-0.2-2.3-0.6L313.5,375.3z"/>
		<path class="st1" d="M327.4,374.6c0,0.9,0,1.6,0.1,2.2h-1.3l-0.1-1.3h0c-0.4,0.7-1.3,1.5-2.7,1.5c-1.3,0-2.8-0.7-2.8-3.6v-4.8h1.5
			v4.6c0,1.6,0.5,2.6,1.8,2.6c1,0,1.7-0.7,2-1.4c0.1-0.2,0.1-0.5,0.1-0.8v-5h1.5V374.6z"/>
		<path class="st1" d="M329.8,371.1c0-1,0-1.8-0.1-2.6h1.3l0.1,1.6h0.1c0.4-1.1,1.3-1.8,2.3-1.8c0.2,0,0.3,0,0.4,0.1v1.4
			c-0.2,0-0.3-0.1-0.5-0.1c-1.1,0-1.8,0.8-2,1.9c0,0.2-0.1,0.4-0.1,0.7v4.4h-1.5V371.1z"/>
		<path class="st1" d="M339.9,376.8l-0.1-1h-0.1c-0.5,0.6-1.3,1.2-2.5,1.2c-1.7,0-2.5-1.2-2.5-2.4c0-2,1.8-3.1,4.9-3.1v-0.2
			c0-0.7-0.2-1.9-1.9-1.9c-0.8,0-1.6,0.2-2.1,0.6l-0.3-1c0.7-0.4,1.7-0.7,2.7-0.7c2.5,0,3.1,1.7,3.1,3.4v3.1c0,0.7,0,1.4,0.1,2
			H339.9z M339.7,372.6c-1.6,0-3.5,0.3-3.5,1.9c0,1,0.6,1.4,1.4,1.4c1.1,0,1.8-0.7,2-1.4c0.1-0.2,0.1-0.3,0.1-0.5V372.6z"/>
		<path class="st1" d="M343.5,364.7h1.5v5.1h0c0.2-0.4,0.6-0.8,1.1-1.1c0.4-0.3,1-0.4,1.5-0.4c1.1,0,2.9,0.7,2.9,3.5v4.9H349v-4.7
			c0-1.3-0.5-2.4-1.9-2.4c-1,0-1.7,0.7-2,1.5c-0.1,0.2-0.1,0.4-0.1,0.7v5h-1.5V364.7z"/>
		<path class="st1" d="M358.6,375.5L358.6,375.5c-0.5,0.8-1.4,1.5-2.7,1.5c-1.9,0-3.5-1.7-3.5-4.2c0-3.1,2-4.4,3.7-4.4
			c1.3,0,2.1,0.6,2.5,1.4h0l0.1-1.2h1.4c0,0.7-0.1,1.4-0.1,2.3v9.3h-1.5V375.5z M358.6,371.9c0-0.2,0-0.4-0.1-0.6
			c-0.2-0.9-1-1.7-2.1-1.7c-1.5,0-2.5,1.3-2.5,3.2c0,1.6,0.8,3.1,2.4,3.1c1,0,1.8-0.6,2.1-1.6c0.1-0.2,0.1-0.5,0.1-0.7V371.9z"/>
		<path class="st1" d="M369.4,374.6c0,0.9,0,1.6,0.1,2.2h-1.3l-0.1-1.3h0c-0.4,0.7-1.3,1.5-2.7,1.5c-1.3,0-2.8-0.7-2.8-3.6v-4.8h1.5
			v4.6c0,1.6,0.5,2.6,1.8,2.6c1,0,1.7-0.7,2-1.4c0.1-0.2,0.1-0.5,0.1-0.8v-5h1.5V374.6z"/>
		<path class="st1" d="M371.9,371.1c0-1,0-1.8-0.1-2.6h1.3l0.1,1.6h0.1c0.4-1.1,1.3-1.8,2.3-1.8c0.2,0,0.3,0,0.4,0.1v1.4
			c-0.2,0-0.3-0.1-0.5-0.1c-1.1,0-1.8,0.8-2,1.9c0,0.2-0.1,0.4-0.1,0.7v4.4h-1.5V371.1z"/>
		<path class="st1" d="M381.9,376.8l-0.1-1h-0.1c-0.5,0.6-1.3,1.2-2.5,1.2c-1.7,0-2.5-1.2-2.5-2.4c0-2,1.8-3.1,4.9-3.1v-0.2
			c0-0.7-0.2-1.9-1.9-1.9c-0.8,0-1.6,0.2-2.1,0.6l-0.3-1c0.7-0.4,1.7-0.7,2.7-0.7c2.5,0,3.1,1.7,3.1,3.4v3.1c0,0.7,0,1.4,0.1,2
			H381.9z M381.7,372.6c-1.6,0-3.5,0.3-3.5,1.9c0,1,0.6,1.4,1.4,1.4c1.1,0,1.8-0.7,2-1.4c0.1-0.2,0.1-0.3,0.1-0.5V372.6z"/>
		<path class="st1" d="M385.6,370.8c0-0.9,0-1.5-0.1-2.2h1.3l0.1,1.4h0c0.4-0.8,1.4-1.5,2.7-1.5c1.1,0,2.9,0.7,2.9,3.5v4.9h-1.5
			v-4.7c0-1.3-0.5-2.4-1.9-2.4c-1,0-1.8,0.7-2,1.5c-0.1,0.2-0.1,0.4-0.1,0.7v4.9h-1.5V370.8z"/>
		<path class="st1" d="M394.6,375.9c0-0.6,0.4-1.1,1-1.1c0.6,0,1,0.4,1,1.1c0,0.6-0.4,1.1-1,1.1C395,377,394.6,376.5,394.6,375.9z"
			/>
		<path class="st1" d="M404.4,376.5c-0.4,0.2-1.3,0.5-2.4,0.5c-2.5,0-4.1-1.7-4.1-4.2c0-2.5,1.7-4.4,4.4-4.4c0.9,0,1.7,0.2,2.1,0.4
			l-0.3,1.2c-0.4-0.2-0.9-0.4-1.7-0.4c-1.9,0-2.9,1.4-2.9,3.1c0,1.9,1.2,3.1,2.9,3.1c0.8,0,1.4-0.2,1.8-0.4L404.4,376.5z"/>
		<path class="st1" d="M413.5,372.6c0,3-2.1,4.4-4.1,4.4c-2.2,0-3.9-1.6-3.9-4.2c0-2.8,1.8-4.4,4.1-4.4
			C411.9,368.4,413.5,370.1,413.5,372.6z M406.9,372.7c0,1.8,1,3.2,2.5,3.2c1.4,0,2.5-1.3,2.5-3.2c0-1.4-0.7-3.2-2.5-3.2
			S406.9,371.1,406.9,372.7z"/>
		<path class="st1" d="M415.4,370.8c0-0.9,0-1.5-0.1-2.2h1.3l0.1,1.3h0.1c0.5-0.8,1.2-1.5,2.6-1.5c1.1,0,2,0.7,2.3,1.6h0
			c0.3-0.5,0.6-0.8,0.9-1.1c0.5-0.4,1-0.6,1.8-0.6c1.1,0,2.7,0.7,2.7,3.6v4.8h-1.5v-4.7c0-1.6-0.6-2.5-1.8-2.5
			c-0.9,0-1.5,0.6-1.8,1.4c-0.1,0.2-0.1,0.5-0.1,0.7v5.1h-1.5v-4.9c0-1.3-0.6-2.3-1.7-2.3c-0.9,0-1.6,0.7-1.9,1.5
			c-0.1,0.2-0.1,0.5-0.1,0.7v5h-1.5V370.8z"/>
	</g>
</g>
<g id="Layer_4">
	<path class="st1" d="M190.2,113.7h0.6c2.9,0,5,2.1,6.4,6.4c-0.5,2-1.1,3-1.7,3h-1.2l-5.3-3c-1.1,1.5-1.7,2.8-1.7,4.1v8.7l0.5,0.6
		c-0.9,8.7-1.8,14.5-2.9,17.5h-1.2c-5.6-12.1-11.4-18.1-17.5-18.1c-2.8-1.9-4.1-3.8-4.1-5.8h-0.5c0.9-3.5,2.1-5.2,3.5-5.2
		c4.8,0.9,10.7,5.9,17.5,15.2h1.2v-6.5C183.8,123.7,185.9,118.1,190.2,113.7z M312.3,113.7h1.2c7.8,15.5,11.7,24.3,11.7,26.2
		l-0.6,1.8h-1.2c-2.4-2.3-4.2-3.5-5.2-3.5v0.5c4.3,44,8.9,66.1,14,66.1c1.2,2.5,7.5,5.6,18.7,9.3c4.7,3.6,7,7.5,7,11.7
		c0,9.4-3.3,15.6-10,18.7c-9.9,1.9-17.4,2.9-22.7,2.9h-7l-8.2-1.7c-16.1,4.7-28.4,7-36.8,7h-4.1c-6.8,0-14.9-1.4-24.5-4.1
		c-0.8,0-1.6,3.9-2.3,11.7c-1.6,2-3.1,3-4.7,3c-10.5-2.8-15.8-10.5-15.8-23.4v-1.2l-1.7-1.8h-1.8c-15.1,0-32.6,10.9-52.6,32.7
		c-7.9,7.8-14.8,11.7-20.5,11.7c-5.7,0-11-4.1-15.7-12.2l-1.2-5.3v-2.3c0-6,1.4-12.8,4.1-20.4l-1.2-1.2l-5.3,1.2
		c-6.2,0-9.3-4.1-9.3-12.3c0-4.5,2.7-12.5,8.2-23.9v-0.6c-11.7-10.6-17.5-17.2-17.5-19.9v-2.9c0.5-2.9,1.2-4.5,2.3-4.7
		c7,3,12.1,5.5,15.2,7.6v1.2c-2.3,0.4-3.5,1-3.5,1.8c0.9,1.7,4.2,4.2,10,7.6h1.7l21-24.5h1.2v0.6c0,5.6-5.2,14.5-15.7,26.9v2.3
		c7.4,6.6,11.1,12,11.1,16.4v1.7c0,7.7-3.7,14-11.1,18.7c-3.6,5.8-6.4,13.4-8.2,22.8c0,7.8,3.9,11.7,11.7,11.7
		c6.3,0,18.9-9.6,37.9-28.7c13.9-12,27.7-18.1,41.5-18.1h1.7c0.8,0,1.2-0.6,1.2-1.8l0.6-0.5h1.7c11.6,12.5,25.7,18.7,42.1,18.7h10
		c7,0,13.4-1.4,19.2-4.1l-0.5-8.7V227c1.8-10.4,5.9-18.8,12.2-25.2c5.5-3.5,8.2-5.6,8.2-6.4c-3.5-20.8-6.6-45.4-9.3-73.6
		C310.6,116.4,311.6,113.7,312.3,113.7z M131.8,116.6v0.6l-2.9,13.4c0.9,3.9,2.2,5.8,4.1,5.8c1.2,0,1.8-0.6,1.8-1.7l0.5-0.6h1.2v0.6
		c0,4.1-1.7,7-5.2,8.7c-3.5-1.5-5.3-5-5.3-10.5C127.9,122,129.9,116.6,131.8,116.6z M286,117.2v1.2c-1.6,2.9-2.3,6-2.3,9.3v3.5
		l2.3,5.2h1.8l2.9-2.3h0.6v1.2h0.5c-0.9,3.9-2.6,6.7-5.2,8.2h-1.8c-3.1-1.8-4.7-5.4-4.7-10.8C280.2,127.2,282.1,122.1,286,117.2z
		 M409.9,117.2h2.3c1.2,0,2.2,1.9,3,5.8l-0.6,8.7v1.2c3.5,3.8,5.3,6.1,5.3,7c-0.4,2.3-1,3.5-1.8,3.5l-5.8-4.1h-1.7
		c-10.9,10.9-20.3,16.9-28,18.1h-0.6v-1.2c15.2-10.2,23.5-16.8,25.2-19.9l-4.1-8.2C402.9,124.6,405.2,120.9,409.9,117.2z
		 M364.3,117.7c3.9,6.1,7.6,15.3,11.1,27.5v1.2h-1.8l-1.7-2.3l-0.6-0.6h-1.7v0.6c5.8,50,8.7,78.8,8.7,86.5v3.5
		c0,7.3-1.6,12.8-4.7,16.4h-0.5l-0.6-3c0-15.3-4.1-56-12.2-122.1C361.7,120.3,363.1,117.7,364.3,117.7z M537.8,119.5
		c3.5,1.9,5.2,4.1,5.2,6.4l-1.2,3.5h-1.2c-2.3-2.3-4.3-3.5-5.8-3.5c-2.3,0-3.5,6-3.5,18.1c-1.1,8.2-2.3,12.2-3.5,12.2h-0.5
		c-5.2-10.5-9.5-15.7-12.9-15.7c-3.9-1.6-6.5-3.9-7.6-7c0.9-3.5,1.7-5.3,2.3-5.3h1.2c4,0,9.5,5.1,16.4,15.2h1.2
		c0-12.3,2.7-20,8.2-23.4L537.8,119.5z M487.6,121.2h0.5v1.2h0.6c-1.1,3.9-14.8,12.5-40.9,25.7c-7.2,4.7-11.5,7-12.9,7
		c-0.8,0-1.2-0.6-1.2-1.7c0-3.1,6.6-7.8,19.9-14C467.7,131.2,479,125.1,487.6,121.2z M580.4,121.9c3.1,1.6,4.7,5.1,4.7,10.5v5.2
		c0,1.1,1.2,3.2,3.5,6.5v1.2h0.6c-0.5,1.9-1.1,2.9-1.8,2.9h-1.2l-3.5-2.3c-1.2,0-6.1,3.7-14.6,11.1c-11.6,8.7-22.4,14-32.2,15.7
		v-0.5c2.1-2.1,5.6-4.2,10.5-6.5c13.9-8.2,24.2-15.3,31-21.6v-1.8c-3.9-2.6-5.8-5.6-5.8-8.7C573.7,125.8,576.7,121.9,580.4,121.9z
		 M407,125.4c0,2.7,1.4,4.1,4.1,4.1l0.6-0.5v-3.5l-1.8-1.8h-1.2L407,125.4z M575.2,131.8c0,1.1,1.4,2.5,4.1,4.1h1.2l1.2-1.2v-1.8
		c0-2.1-0.8-3.4-2.3-4.1h-0.5C576.4,128.9,575.2,129.8,575.2,131.8z M252.8,134.1l1.2,1.8c0,4.4-7.6,9.2-22.8,14.6
		c-1.7,1.5-17.6,9.3-47.9,23.4l-14.6,8.8c-0.8,0-1.2-0.6-1.2-1.8c0-4.3,4.9-8.4,14.6-12.2C194.1,161.2,217.6,149.7,252.8,134.1z
		 M137.6,151.1h1.8c0.9,0,3.8,2.7,8.7,8.2v0.5c0,2-1.6,4.5-4.7,7.6h-1.2c-4.8-3.9-7.9-5.8-9.3-5.8l-4.7,6.4h-1.7
		c-5.6-3.4-8.7-6.1-9.3-8.2c1.4-4.5,3-7,4.7-7.6c1.8,0,4.9,1.7,9.3,5.2h0.5L137.6,151.1z M494,156.3v1.2l-2.3,8.8v2.3
		c0,3.2,1.4,5.7,4.1,7.6h1.2c1,0,1.8-1.4,2.3-4.1h1.2v0.5c0,4.7-1.8,8.2-5.3,10.5c-4.3-1.4-6.4-4.5-6.4-9.3v-0.5
		C488.8,167,490.5,161.4,494,156.3z M345.6,157.5h1.2l-1.7,12.9c0,5.1,0.8,7.6,2.3,7.6h1.2c1.1,0,1.7-0.8,1.7-2.3h1.8v1.2
		c0,3.7-1.8,6.5-5.3,8.2c-3.5-0.7-5.2-4.2-5.2-10.5C341.5,171,342.9,165.3,345.6,157.5z M294.8,158.1h0.5c2.8,1.2,4.1,4.2,4.1,8.7
		v7.6c3.9,3.7,5.8,6.8,5.8,9.3c-0.6,1.6-1.2,2.3-1.8,2.3H303l-5.8-4.7c-1.9,0-6.2,3.5-12.9,10.5c-17.3,11.8-27.6,17.8-31,18.1h-1.2
		v-1.2c22.6-15.9,35.1-25,37.4-27.4c0.9,0,1.5-1,1.8-3c-3.9-2.5-5.8-5.3-5.8-8.2C287.6,162.2,290.7,158.1,294.8,158.1z M418,158.6
		h1.2c5.5,3.7,8.2,6.7,8.2,9s-1.7,4.7-5.2,7.4h-0.6l-7-5.2h-1.2l-5.2,6.4c-2.8,0-6.1-2.5-10-7.6c2.1-5.5,4-8.2,5.8-8.2l7,4.7
		c2.1,0,3.7-1.6,4.7-4.7L418,158.6z M268.5,161v3c0,1.9-11.3,7-33.9,15.2l-27.4,11.7l-1.2-1.2c0-4.3,16.7-12.4,50.2-24.5
		C262.3,162.3,266.4,161,268.5,161z M581.1,163.9h0.5v0.5c-2.3,3.6-3.5,7.1-3.5,10.5c0.8,4.3,1.8,6.5,3.1,6.5c1.3,0,2.6-0.8,3.9-2.3
		h0.6c0,3.9-1.6,6.8-4.7,8.7c-3.9-0.8-5.8-3.5-5.8-8.1S577.2,169.8,581.1,163.9z M290.1,167.4v1.2c1.4,2.3,3.1,3.5,5.2,3.5l1.2-1.8
		v-0.5c0-2.1-1-3.7-2.9-4.7h-1.2L290.1,167.4z M451.9,172.1h1.8l11.1,12.9v0.5c0,0.7-1.4,1.3-4.1,1.8v0.5c5.8,11.7,8.7,19.7,8.7,24
		v0.5c0,11.1-5.2,19.6-15.7,25.7c-1.6,3.4-2.3,6-2.3,7.6v3.5c0,9.2,5.2,14.8,15.7,16.9h5.3c12.7,0,28.7-10.3,47.9-30.9v-3
		c0-0.8-0.6-1.2-1.8-1.2l-12.2,1.8h-4.1c-7.8-1.3-11.7-4.6-11.7-10v-0.5c0-8.7,3.5-15,10.5-18.7l3.5-1.2c5.7,0,11.9,4.7,18.7,14h1.8
		l19.2-11.7h1.2l1.2,2.3l-0.5,4.7c0,6.1,4.9,9.6,14.6,10.5h1.2c5.9,0,12.4-6.2,19.3-18.7h1.2l0.5,0.5h0.6c-2,4-3,6.9-3,8.8
		c3.6,3.6,7.5,5.6,11.7,5.8h3.5l1.8-1.8c-0.9-3.5-1.9-5.6-3-6.4c1.3-6.2,2.7-9.3,4.1-9.3c3.1,5.6,4.7,10.2,4.7,14
		c-1.3,10.5-5.8,15.7-13.5,15.7c-4.8-1-9.5-3.9-14-8.7c-5.7,7.4-11.7,11.1-18.1,11.1v0.6c-8.8,0-14.4-5.1-17-15.2l-0.5-0.6
		c-9.3,5.7-14,10-14,12.9c0,12.6-13.2,27-39.7,43.2c-7.2,2.8-13,4.1-17.5,4.1c-9.9,0-16.9-5.7-21-17l-1.2-5.2l1.2-10.5l-0.6-1.8
		h-1.2c-24.9,16-42.4,24-52.6,24l-25.7,4.7h-1.2v-1.8c16-5.8,29.9-11.5,41.5-16.9c20.8-10.4,38.9-21.7,54.3-33.9l1.8-3v-2.3
		c-7.2-14.9-11.8-26.6-14-35.1L451.9,172.1z M428.6,179.7h0.6v1.2c0,4-3.3,11-10,21v0.6c7.4,5.9,11.1,11.3,11.1,16.4
		c0,10.6-6.2,18-18.7,22.2l-4.1,1.2c-5.5,0-8.2-3.3-8.2-9.9s1.9-14.4,5.8-23.4v-0.5c-9.7-9.6-14.6-15.6-14.6-18.1v-1.7
		c0.5-3.9,1.2-5.8,2.3-5.8c8.6,3.5,13.4,6,14.6,7.6l-2.3,3v0.5c2.4,3.1,4.8,4.7,7,4.7h0.6L428.6,179.7z M184.4,196
		c5.7,3.7,8.6,6.6,8.8,8.8c-2.1,4.7-4.2,7-6.5,7c-2.4-1.3-5.3-3.8-8.7-7.6C179.6,198.7,181.8,196,184.4,196z M121.9,226.4
		c1,2,2.5,3,4.7,3h1.2c9.1-2.5,14.8-5.2,16.9-8.2v-0.6c0-3.1-4.1-7-12.2-11.7c-3.7,0-7.2,4.7-10.5,14V226.4z M304.2,225.2v0.6
		c0,3.2,2.7,5.7,8.2,7.6c8.9-3,13.4-7.3,13.4-12.9c0-3.5-2.1-7.2-6.4-11.1h-3c-3.1,0-6.8,3.7-11.1,11.1L304.2,225.2z M404,225.9
		c0,2.7,1.4,4.1,4.1,4.1h1.7c9.3-2.6,14-5.5,14-8.7v-0.6c-4.8-5-9.1-7.6-12.9-7.6C406.4,217.2,404,221.5,404,225.9z M498.1,218.8
		c2.1,1.6,3.8,2.3,5.2,2.3h3l5.2-1.2v-0.6c0-2.2-3.1-3.5-9.3-4.1C499.8,215.3,498.5,216.5,498.1,218.8z M326.4,234.6v0.6l2.3,0.5
		c15.6-1.6,23.4-3.3,23.4-5.2c0-3-6.6-6.5-19.9-10.5h-0.6C331,220.1,329.3,224.9,326.4,234.6z M227.6,239.9c1.7,6.2,4.2,9.3,7.6,9.3
		l0.5-0.6v-0.5c0-2.4-2.1-5.1-6.4-8.2H227.6z M588.6,244.5v0.5c0,6-2.7,10.5-8.2,13.5c-2-1.2-3.9-1.8-5.8-1.8
		c-3,2.3-5.7,3.5-8.2,3.5c-3.7-1.9-6.4-2.9-8.1-2.9s-8.4,3.7-19.9,11.1c-1.9,1.6-5.6,2.9-11.1,4.1l-0.6-0.6v-0.5
		c20.7-13.2,32-19.9,33.9-19.9h1.2l8.8,2.3c4.1-1.7,6.2-3.7,6.4-5.8h1.8c0,1.6,0.8,2.7,2.3,3.5h2.3c0.6,0,1.8-2.3,3.5-7H588.6z
		 M205.4,246.3h0.6v1.2c0,1.5-1.4,4.6-4.1,9.3v3.5c0.8,5.1,1.9,7.6,3.5,7.6h1.8l3.5-3.5h0.5v1.2c-1.8,6.2-4.3,9.3-7.6,9.3h-0.6
		c-3.1-2.2-4.7-5.7-4.7-10.5C198.8,259.7,201.2,253.7,205.4,246.3z M124.2,247.4l1.2,1.2v1.8c0,2.1-9.6,5.8-28.7,11.1v-0.5
		c0-3.4,5.5-6.5,16.4-9.3C118.9,248.8,122.6,247.4,124.2,247.4z M309.4,249.2h1.2v1.7c-1.9,2.5-2.9,4.5-2.9,5.8v3
		c0,3,0.8,4.7,2.3,5.2h1.2l2.9-2.3c0.8,0,1.2,0.6,1.2,1.8c-2,5.5-4.4,8.2-7,8.2c-1.7,0-3.5-2.5-5.2-7.6
		C303,260.9,305.1,255.7,309.4,249.2z"/>
</g>
</svg>
