<?xml version="1.0" encoding="utf-8"?>
<!-- Generator: Adobe Illustrator 25.2.3, SVG Export Plug-In . SVG Version: 6.00 Build 0)  -->
<svg version="1.1" xmlns="http://www.w3.org/2000/svg" xmlns:xlink="http://www.w3.org/1999/xlink" x="0px" y="0px"
	 viewBox="0 0 700 395" style="enable-background:new 0 0 700 395;" xml:space="preserve">
<style type="text/css">
	.st0{fill:#000222;}
	.st1{fill:#FFFFFF;}
</style>
<g id="Layer_1">
	<rect class="st0" width="700" height="395"/>
</g>
<g id="Layer_3">
	<g>
		<path class="st1" d="M273.5,368.6l1.1,4.2c0.2,0.9,0.5,1.8,0.6,2.6h0.1c0.2-0.8,0.5-1.7,0.7-2.6l1.3-4.2h1.3l1.3,4.1
			c0.3,1,0.5,1.9,0.7,2.7h0.1c0.1-0.8,0.4-1.7,0.6-2.7l1.2-4.1h1.5l-2.7,8.2H280l-1.3-3.9c-0.3-0.9-0.5-1.7-0.7-2.7h0
			c-0.2,1-0.5,1.8-0.7,2.7l-1.3,3.9h-1.4l-2.5-8.2H273.5z"/>
		<path class="st1" d="M286.3,368.6l1.1,4.2c0.2,0.9,0.5,1.8,0.6,2.6h0.1c0.2-0.8,0.5-1.7,0.7-2.6l1.3-4.2h1.3l1.3,4.1
			c0.3,1,0.5,1.9,0.7,2.7h0.1c0.1-0.8,0.4-1.7,0.6-2.7l1.2-4.1h1.5l-2.7,8.2h-1.4l-1.3-3.9c-0.3-0.9-0.5-1.7-0.7-2.7h0
			c-0.2,1-0.5,1.8-0.7,2.7l-1.3,3.9h-1.4l-2.5-8.2H286.3z"/>
		<path class="st1" d="M299,368.6l1.1,4.2c0.2,0.9,0.5,1.8,0.6,2.6h0.1c0.2-0.8,0.5-1.7,0.7-2.6l1.3-4.2h1.3l1.3,4.1
			c0.3,1,0.5,1.9,0.7,2.7h0.1c0.1-0.8,0.4-1.7,0.6-2.7l1.2-4.1h1.5l-2.7,8.2h-1.4l-1.3-3.9c-0.3-0.9-0.5-1.7-0.7-2.7h0
			c-0.2,1-0.5,1.8-0.7,2.7l-1.3,3.9h-1.4l-2.5-8.2H299z"/>
		<path class="st1" d="M309.9,375.9c0-0.6,0.4-1.1,1-1.1c0.6,0,1,0.4,1,1.1c0,0.6-0.4,1.1-1,1.1C310.3,377,309.9,376.5,309.9,375.9z
			"/>
		<path class="st1" d="M313.5,375.3c0.4,0.3,1.2,0.6,2,0.6c1.1,0,1.6-0.5,1.6-1.2c0-0.7-0.4-1.1-1.5-1.5c-1.5-0.5-2.2-1.3-2.2-2.3
			c0-1.3,1.1-2.4,2.8-2.4c0.8,0,1.6,0.2,2,0.5l-0.4,1.1c-0.3-0.2-0.9-0.5-1.7-0.5c-0.9,0-1.4,0.5-1.4,1.1c0,0.7,0.5,1,1.6,1.4
			c1.4,0.5,2.2,1.3,2.2,2.5c0,1.4-1.1,2.5-3.1,2.5c-0.9,0-1.7-0.2-2.3-0.6L313.5,375.3z"/>
		<path class="st1" d="M327.4,374.6c0,0.9,0,1.6,0.1,2.2h-1.3l-0.1-1.3h0c-0.4,0.7-1.3,1.5-2.7,1.5c-1.3,0-2.8-0.7-2.8-3.6v-4.8h1.5
			v4.6c0,1.6,0.5,2.6,1.8,2.6c1,0,1.7-0.7,2-1.4c0.1-0.2,0.1-0.5,0.1-0.8v-5h1.5V374.6z"/>
		<path class="st1" d="M329.8,371.1c0-1,0-1.8-0.1-2.6h1.3l0.1,1.6h0.1c0.4-1.1,1.3-1.8,2.3-1.8c0.2,0,0.3,0,0.4,0.1v1.4
			c-0.2,0-0.3-0.1-0.5-0.1c-1.1,0-1.8,0.8-2,1.9c0,0.2-0.1,0.4-0.1,0.7v4.4h-1.5V371.1z"/>
		<path class="st1" d="M339.9,376.8l-0.1-1h-0.1c-0.5,0.6-1.3,1.2-2.5,1.2c-1.7,0-2.5-1.2-2.5-2.4c0-2,1.8-3.1,4.9-3.1v-0.2
			c0-0.7-0.2-1.9-1.9-1.9c-0.8,0-1.6,0.2-2.1,0.6l-0.3-1c0.7-0.4,1.7-0.7,2.7-0.7c2.5,0,3.1,1.7,3.1,3.4v3.1c0,0.7,0,1.4,0.1,2
			H339.9z M339.7,372.6c-1.6,0-3.5,0.3-3.5,1.9c0,1,0.6,1.4,1.4,1.4c1.1,0,1.8-0.7,2-1.4c0.1-0.2,0.1-0.3,0.1-0.5V372.6z"/>
		<path class="st1" d="M343.5,364.7h1.5v5.1h0c0.2-0.4,0.6-0.8,1.1-1.1c0.4-0.3,1-0.4,1.5-0.4c1.1,0,2.9,0.7,2.9,3.5v4.9H349v-4.7
			c0-1.3-0.5-2.4-1.9-2.4c-1,0-1.7,0.7-2,1.5c-0.1,0.2-0.1,0.4-0.1,0.7v5h-1.5V364.7z"/>
		<path class="st1" d="M358.6,375.5L358.6,375.5c-0.5,0.8-1.4,1.5-2.7,1.5c-1.9,0-3.5-1.7-3.5-4.2c0-3.1,2-4.4,3.7-4.4
			c1.3,0,2.1,0.6,2.5,1.4h0l0.1-1.2h1.4c0,0.7-0.1,1.4-0.1,2.3v9.3h-1.5V375.5z M358.6,371.9c0-0.2,0-0.4-0.1-0.6
			c-0.2-0.9-1-1.7-2.1-1.7c-1.5,0-2.5,1.3-2.5,3.2c0,1.6,0.8,3.1,2.4,3.1c1,0,1.8-0.6,2.1-1.6c0.1-0.2,0.1-0.5,0.1-0.7V371.9z"/>
		<path class="st1" d="M369.4,374.6c0,0.9,0,1.6,0.1,2.2h-1.3l-0.1-1.3h0c-0.4,0.7-1.3,1.5-2.7,1.5c-1.3,0-2.8-0.7-2.8-3.6v-4.8h1.5
			v4.6c0,1.6,0.5,2.6,1.8,2.6c1,0,1.7-0.7,2-1.4c0.1-0.2,0.1-0.5,0.1-0.8v-5h1.5V374.6z"/>
		<path class="st1" d="M371.9,371.1c0-1,0-1.8-0.1-2.6h1.3l0.1,1.6h0.1c0.4-1.1,1.3-1.8,2.3-1.8c0.2,0,0.3,0,0.4,0.1v1.4
			c-0.2,0-0.3-0.1-0.5-0.1c-1.1,0-1.8,0.8-2,1.9c0,0.2-0.1,0.4-0.1,0.7v4.4h-1.5V371.1z"/>
		<path class="st1" d="M381.9,376.8l-0.1-1h-0.1c-0.5,0.6-1.3,1.2-2.5,1.2c-1.7,0-2.5-1.2-2.5-2.4c0-2,1.8-3.1,4.9-3.1v-0.2
			c0-0.7-0.2-1.9-1.9-1.9c-0.8,0-1.6,0.2-2.1,0.6l-0.3-1c0.7-0.4,1.7-0.7,2.7-0.7c2.5,0,3.1,1.7,3.1,3.4v3.1c0,0.7,0,1.4,0.1,2
			H381.9z M381.7,372.6c-1.6,0-3.5,0.3-3.5,1.9c0,1,0.6,1.4,1.4,1.4c1.1,0,1.8-0.7,2-1.4c0.1-0.2,0.1-0.3,0.1-0.5V372.6z"/>
		<path class="st1" d="M385.6,370.8c0-0.9,0-1.5-0.1-2.2h1.3l0.1,1.4h0c0.4-0.8,1.4-1.5,2.7-1.5c1.1,0,2.9,0.7,2.9,3.5v4.9h-1.5
			v-4.7c0-1.3-0.5-2.4-1.9-2.4c-1,0-1.8,0.7-2,1.5c-0.1,0.2-0.1,0.4-0.1,0.7v4.9h-1.5V370.8z"/>
		<path class="st1" d="M394.6,375.9c0-0.6,0.4-1.1,1-1.1c0.6,0,1,0.4,1,1.1c0,0.6-0.4,1.1-1,1.1C395,377,394.6,376.5,394.6,375.9z"
			/>
		<path class="st1" d="M404.4,376.5c-0.4,0.2-1.3,0.5-2.4,0.5c-2.5,0-4.1-1.7-4.1-4.2c0-2.5,1.7-4.4,4.4-4.4c0.9,0,1.7,0.2,2.1,0.4
			l-0.3,1.2c-0.4-0.2-0.9-0.4-1.7-0.4c-1.9,0-2.9,1.4-2.9,3.1c0,1.9,1.2,3.1,2.9,3.1c0.8,0,1.4-0.2,1.8-0.4L404.4,376.5z"/>
		<path class="st1" d="M413.5,372.6c0,3-2.1,4.4-4.1,4.4c-2.2,0-3.9-1.6-3.9-4.2c0-2.8,1.8-4.4,4.1-4.4
			C411.9,368.4,413.5,370.1,413.5,372.6z M406.9,372.7c0,1.8,1,3.2,2.5,3.2c1.4,0,2.5-1.3,2.5-3.2c0-1.4-0.7-3.2-2.5-3.2
			S406.9,371.1,406.9,372.7z"/>
		<path class="st1" d="M415.4,370.8c0-0.9,0-1.5-0.1-2.2h1.3l0.1,1.3h0.1c0.5-0.8,1.2-1.5,2.6-1.5c1.1,0,2,0.7,2.3,1.6h0
			c0.3-0.5,0.6-0.8,0.9-1.1c0.5-0.4,1-0.6,1.8-0.6c1.1,0,2.7,0.7,2.7,3.6v4.8h-1.5v-4.7c0-1.6-0.6-2.5-1.8-2.5
			c-0.9,0-1.5,0.6-1.8,1.4c-0.1,0.2-0.1,0.5-0.1,0.7v5.1h-1.5v-4.9c0-1.3-0.6-2.3-1.7-2.3c-0.9,0-1.6,0.7-1.9,1.5
			c-0.1,0.2-0.1,0.5-0.1,0.7v5h-1.5V370.8z"/>
	</g>
</g>
<g id="Layer_4">
	<path class="st1" d="M129,132c0-1.2-1.8-3.6-5.3-7.2v-0.6c0.6-3.6,1.8-5.3,3.6-5.3c5.5,1.4,11.5,6.8,17.9,16.1h0.6
		c1.2-15.2,4-22.7,8.4-22.7c4.4,1.3,6.6,3.5,6.6,6.6c0,2.4-0.8,3.6-2.4,3.6l-4.8-3h-1.8c-1.2,0.4-1.8,1.6-1.8,3.6
		c-0.3,15.2-1.7,23.4-4.2,24.6h-1.2c-4.4-10.8-8.3-16.2-12-16.2c-2.9,6-7.5,11.2-13.7,15.5c-6.6,4-10.8,6-12.6,6h-1.2v-0.6
		l20.3-15.5L129,132z M283.9,112.9c1.3,0,3.3,2,6,6v3l-1.2,1.2h-0.6c-1.4,0-3.4-1-6-3h-1.8c-1.4,0-2.6,7.2-3.6,21.5l-3,7.7h-0.6
		c-1.1-0.4-2.5-2.8-4.2-7.2c-3.9-6.8-8.7-10.1-14.4-10.1c-2-2.1-3-3.9-3-5.4c0-4,1.2-6,3.6-6c4.7,1.6,10.7,7.2,17.9,16.7l1.2-1.2
		v-0.6l-0.6-0.6C275.7,120.3,279.2,112.9,283.9,112.9z M339.5,114.1h1.2l10.2,27.5l-0.6,1.8h-1.2l-3.6-3h-0.6v1.2l7.2,71.8v5.3
		c0,18.4-7.4,29-22.2,31.7l-6,0.6c-7,0-14.2-4.4-21.5-13.2l-3-0.6c-30.7,12-55,17.9-73,17.9h-13.2l-14.4-2.4c-1.2,0-1.8,0.6-1.8,1.8
		l-3.6,3.6H193l-0.6-1.8l1.8-6c-7.1-9.6-13.8-14.4-20.3-14.4c-13,0-31.6,12.8-55.7,38.3c-6.8,4.4-11.2,6.5-13.2,6.5
		c-11.5-1.8-17.3-6.6-17.3-14.4c-0.7,0-1.3-3-1.8-8.9c1.2-11.6,5.6-23.2,13.2-34.7c-2.4-6.2-3.6-10.8-3.6-13.8
		c0-7.1,2.6-18.2,7.8-33.5h1.2v1.2c-3.2,11.6-4.8,20-4.8,25.1v1.2c0,6.5,2,10.9,6,13.2h1.8c1.3,0,2.7-2.6,4.2-7.7h1.2v3.6
		c0,9.1-3.6,13.7-10.8,13.7c-7.6,10.5-11.8,21.5-12.6,32.9v1.2c1.7,6.4,4.7,9.6,9,9.6c9.6,0,19.1-5.6,28.7-16.7
		c16.8-15.9,31.2-25.5,43.1-28.7l4.1-0.6c7.5,0,14.7,4.6,21.5,13.8l5.4,1.8c1,0,5.5-6.2,13.7-18.5c9-11.2,19.2-16.7,30.5-16.7
		c14.4,3.2,21.5,8.8,21.5,16.7v1.8c-0.8,5.2-2.2,10.4-4.2,15.5l0.6,0.6h0.6c18.3-4.8,27.5-8,27.5-9.6c-4.8-5.6-9.4-8.4-13.7-8.4
		h-0.6l-5.3,1.8c-1.6-0.6-2.4-1.2-2.4-1.8c0-5.5,2.6-9.5,7.7-12c8.5-3.2,15-4.8,19.8-4.8h4.1c11.2,0,21.1,2.8,29.9,8.4l0.6,1.8
		c0,5.9-5.4,10.9-16.2,15l-3,3c3.5,4.4,7,6.6,10.8,6.6h5.3c11.6-1.5,17.4-5.1,17.4-10.8l-10.8-105.3
		C337.1,116.9,338.5,114.1,339.5,114.1z M369.4,115.3h1.2c4.4,7.8,8.2,16.7,11.4,26.9l-0.6,1.8h-1.2l-3-2.4H376v3.6l7.7,70.6
		l-0.6,0.6l0.6,7.2v4.8l0.6,0.6l-0.6,0.6v1.2c0,7.7-1.2,14.4-3.6,20.3h-1.8l-0.6-3v-7.2c-0.8-15.6-4.6-54.5-11.3-116.7L369.4,115.3z
		 M206.7,115.8v0.6c-1.2,3.7-1.8,7.4-1.8,11.3c0.9,3.6,1.8,5.4,3,5.4h0.6l3-2.4l1.2,1.2c-1.6,5.6-3.8,8.4-6.5,8.4h-0.6
		c-1.7,0-3.3-3-4.8-9C202.9,121,204.9,115.8,206.7,115.8z M415.5,118.2c2.8,0.7,4.1,2.9,4.1,6.6v1.2l-0.6,8.9c4,3,6,5.6,6,7.8
		c-0.3,2-0.9,3-1.8,3h-0.6c-3.4-2.4-5.8-3.6-7.2-3.6c-9.4,9.2-14.8,13.8-16.2,13.8c-8.8,4.8-13.8,7.2-14.9,7.2l-0.6-0.6v-1.2
		c15.4-10.4,24.6-17.3,27.5-20.9v-1.8c-2.8-4.3-4.1-7.1-4.1-8.4C409.7,122.2,412.5,118.2,415.5,118.2z M547.1,118.9
		c2.8,3,4.1,5.2,4.1,6.5c-0.4,2.8-1,4.2-1.8,4.2h-1.2c-2.1-2-3.9-3-5.4-3h-0.6c-1.9,0-3.1,7.6-3.6,22.7l-1.8,8.4h-1.2
		c-6.1-12-11.8-17.9-17.3-17.9l-4.2-4.8v-0.6c0.3-4,1.3-6,3-6c5,0,10.6,5.2,16.7,15.5h1.2C535.7,127.2,539.7,118.9,547.1,118.9z
		 M587.7,120.6h0.6c4,0,6,3.6,6,10.8v6.6c2.8,3.3,4.2,5.9,4.2,7.7l-0.6,1.8h-0.6l-6-2.4c-17.8,16.1-32.1,25.5-43.1,28.1l-4.2,0.6
		c0.1-1.3,7.5-6.1,22.2-14.4c11.1-7.5,17.8-13.1,20.3-16.7c-4-4.2-6-7.2-6-9C580.6,128,583,123.7,587.7,120.6z M494.4,121.3l1.2,2.4
		c0,2.6-8.4,8.4-25.1,17.3c-18.7,11.2-28.8,16.7-30.5,16.7v-1.2h-0.6c0-3.5,3.8-6.8,11.3-10.1C460.5,140.2,475.1,131.8,494.4,121.3z
		 M411.9,127.8v1.2l2.4,2.4h1.8v-3.6l-1.8-1.8h-0.6L411.9,127.8z M584.2,130.8c0.1,1.2,1.6,2.6,4.8,4.1h1.8v-1.2c0-4-1.4-6-4.1-6
		C585,128.7,584.2,129.7,584.2,130.8z M176.8,135v0.6l-1.8,10.8c0.6,6,2.6,8.9,6,8.9l2.4-3h0.6v1.2c-0.3,6-1.6,8.9-4.1,8.9
		c-3,0-5.6-3.6-7.8-10.8C173.6,140.6,175.1,135,176.8,135z M327.6,142.2h1.8l0.6,1.8c0,4.8-7.8,9.2-23.3,13.2l-64,25.7l-1.8-0.6
		v-0.6c0-5.7,8.8-11.1,26.3-16.1C276,161.1,296.1,153.3,327.6,142.2z M217,147.6c9.5,0,14.6,1.6,15.5,4.8
		c-5.1,11.5-10.5,17.3-16.2,17.3c0,0.9-2.2,1.7-6.5,2.4l-0.6-0.6v-1.2c4.8-4.3,8.8-7.3,12-9v-1.8l-9.6-1.2c-4.5,0-8.6,2-12.5,6h-1.2
		c2.5-10.8,7.9-16.2,16.1-16.2L217,147.6z M501.6,157.2v0.6l-1.8,8.4v6c0,2,1,3.8,3,5.4h1.8l3.6-4.2l0.6,0.6v0.6
		c0,5.9-2.2,9.5-6.6,10.8h-0.6c-3.6-2.1-5.4-5.9-5.4-11.3v-0.6C496.2,167.9,498,162.5,501.6,157.2z M138.6,158.3h0.6v0.6
		c-2.4,7.8-3.6,13-3.6,15.5c1.6,4.4,3,6.6,4.1,6.6h1.2c1.1,0,1.9-1.4,2.4-4.2h1.2l0.6,1.8c0,3.2-1.6,6.4-4.8,9.6H138
		c-3.6-2.6-5.4-5.7-5.4-9.6v-1.8C132.6,169.8,134.6,163.7,138.6,158.3z M423.9,161.3c4.1,1.7,7.3,4.5,9.6,8.4v1.2
		c-0.6,2.9-2.4,5.5-5.4,7.8l-7.7-5.4h-1.2c-0.6,0-2,2-4.2,6l-0.6,0.6h-0.6c-3.4,0-6.8-2.6-10.1-7.8c1.2-4.8,2.8-7.6,4.8-8.4l8.9,4.2
		h0.6L423.9,161.3z M590.7,162.5h0.6l-3,10.8v1.8c0,4,1.2,6.2,3.6,6.5l3.6-3h0.6v0.6c-1.1,6.4-3.1,9.6-6,9.6
		c-2.4,0-4.3-3.4-5.4-10.1C584.7,174.9,586.7,169.5,590.7,162.5z M320.4,163.7h1.2v0.6l-2.4,14.4c0,3.6,1.2,5.7,3.6,6.5l1.8-3h0.6
		l0.6,0.6h0.6c0,3.3-1.6,6.5-4.8,9.6h-1.8c-1.8,0-3.2-2.8-4.2-8.4v-5.3L320.4,163.7z M458.6,174.5h2.4c0,1.2,3.6,5.2,10.8,12
		l0.6,0.6v1.2c0,0.6-1.4,1.2-4.1,1.8v0.6c6.4,12.4,9.6,20.4,9.6,23.9c0,11.5-5.4,20.9-16.2,28.1l-1.8,4.8v8.4
		c0,7.7,5.4,12.7,16.1,15h0.6c16.8,0,34.5-11,53.2-32.9v-3l-1.2-1.2l-15.5,2.4c-9.1,0-13.7-4.4-13.7-13.2h-0.6
		c2.7-12,7.5-17.9,14.4-17.9h2.4c4.9,0,10.5,4.4,16.7,13.2l1.8,0.6c3.6-1.7,10.2-5.9,19.7-12.5c1.6,0.6,2.4,1.2,2.4,1.8v6.6
		c1.3,6,5.5,8.9,12.6,8.9h1.8c8.3,0,14.9-6,19.8-17.9l2.4-1.8l1.2,1.2l-2.4,7.2v1.2c2.4,4,6.8,6,13.2,6h2.4l1.8-1.8l-3-7.2
		c0.9-5.6,1.9-8.4,3-8.4h0.6c1.5,0,3.1,3.8,4.8,11.4v3.6c-0.9,9.9-5.2,14.9-13.2,14.9h-0.6c-3.6,0-8.1-2.8-13.7-8.4
		c-6.3,8-12.9,12-19.7,12c-6.8,0-11.4-2.8-13.8-8.4c-1.4-4.4-2.4-6.5-3-6.5h-0.6c-7.6,4.9-12.2,8.5-13.8,10.8v0.6
		c0,10.3-4.6,19.1-13.7,26.3c-16.2,16.4-30.6,24.6-43.3,24.6s-20.5-7.2-23.7-21.5v-3l0.6-9.6h-1.8c-25,16.4-42,24.6-50.9,24.6
		l-29.3,6l-0.6-0.6V278c1.4-1.9,10.6-5.7,27.5-11.4c24.1-11.7,46.1-24.9,65.8-39.5l6-7.2c0-1.9-4-10.6-12-26.3l-3.6-10.8
		L458.6,174.5z M188.2,179.2c3.7,0,5.8,2.6,6.5,7.8c0,1.2-0.8,1.8-2.4,1.8l-4.8-1.8h-1.2c-0.8,0-1.2,0.6-1.2,1.8
		c-0.5,16.7-1.9,25.1-4.1,25.1c-4.4-11.2-9.8-16.7-16.2-16.7c-2.4-1.8-3.6-3.6-3.6-5.3c0-3.6,1-5.4,3-5.4c3.1,0,8.5,4.4,16.1,13.2
		h1.2v-4.8C183.3,184.4,185.5,179.2,188.2,179.2z M434.6,182.8h1.2v0.6c0,5.6-3.4,12.8-10.2,21.5v1.2c8,6.1,12,11.4,12,16.1
		c0,11.4-6.4,19.4-19.1,23.9l-5.3,0.6c-4.2,0-6.6-3.6-7.2-10.8c0-6.9,1.8-14.2,5.3-22.2v-1.8c-9.9-8.7-14.9-14.9-14.9-18.6V190
		c0-2.1,0.8-3.5,2.4-4.1c9.1,4.2,14.1,7,14.9,8.4l-3,2.4c0.2,1.2,2.4,3.2,6.5,6h1.2L434.6,182.8z M134.4,207.4h0.6v0.6
		c-2,7-3,11.7-3,14.4v0.6c0,3.2,1.6,5,4.8,5.3l2.4-2.4l0.6,0.6v0.6c-1.2,5.6-3.2,8.4-6,8.4c-3.6-1.3-5.3-4.7-5.3-10
		C128.4,220.2,130.4,214.1,134.4,207.4z M207.4,239.7v1.8l3,0.6h8.4c17.8,0,31.6-4.4,41.3-13.2v-1.2c-2.6-7.8-9-12-19.1-12.6H239
		C229.2,215.1,218.7,223.3,207.4,239.7z M297.7,216.3v1.8l6.6,5.3h1.8c3.6-1.5,5.8-2.9,6.6-4.1v-0.6c0-1.3-2.6-2.1-7.8-2.4H297.7z
		 M410.7,228.3v3.6c1,2,2.6,3,4.8,3c10.4-2.7,15.5-5.8,15.5-9.6c0-2-4-4.8-12-8.4C416,217,413.2,220.7,410.7,228.3z M507,220.5v0.6
		c0,1.1,2,1.9,6,2.4h1.2c4.4,0,6.6-0.6,6.6-1.8c-2.1-2.8-5.1-4.2-9-4.2C509.7,217.5,508.1,218.5,507,220.5z M358.1,243.3h0.6v0.6
		c-3.2,6.2-4.8,11.3-4.8,15.5c0,2.3,1.2,4.1,3.6,5.4l3.6-4.2h0.6v1.2h0.6c-1.9,6.4-4.5,9.6-7.7,9.6c-2.1,0-3.7-3-4.8-8.9
		C353,249.6,355.8,243.3,358.1,243.3z M599.1,245.7l1.2,1.2c-1.8,8.8-4.4,13.2-7.7,13.2l-6-1.2c-3.7,2.4-6.9,3.6-9.6,3.6
		c-2.8-1.6-5.2-2.4-7.2-2.4h-0.6c-2.1,0-9.6,4.4-22.7,13.2c-4.1,1.6-7.3,2.4-9.6,2.4v-1.8c2.1,0,12.4-6.6,31.1-19.7l4.2-0.6h0.6
		l7.2,2.4c3,0,6.2-2.4,9.6-7.2c1.1,2.6,2.1,4,3,4.2h2.4c0.9,0,1.7-1.8,2.4-5.4L599.1,245.7z M289.3,246.2v1.2l-3,13.8
		c0,3.1,1,5.1,3,6h0.6l3-2.4h1.2v1.2h0.6c-2.3,5.6-4.5,8.4-6.6,8.4c-4-1.4-6-4.4-6-9C284.7,252.6,287,246.2,289.3,246.2z
		 M176.8,257.6c1.6,0.4,2.4,1.2,2.4,2.4c0,2.4-8,6.6-23.9,12.5l-8.9,4.2h-1.2l-1.2-1.2c0-3.1,5.6-6.5,16.7-10.2L176.8,257.6z
		 M211.5,259.4l3.6,1.2l1.8-0.6v0.6c0,1.6-0.8,2.8-2.4,3.6l1.8,3l-1.2,1.2c-3-0.8-5-2.2-6-4.2V263
		C209.1,261.3,209.9,260.1,211.5,259.4z M224.7,260.6c1.2,0.1,2.4,1.5,3.6,4.2c-1.6,6.6-4.2,11.6-7.7,14.9h-1.2
		c0-1.4,1.4-4.2,4.1-8.4v-3h-1.2l-4.1,0.6C219.2,263.4,221.4,260.6,224.7,260.6z"/>
</g>
</svg>
