<?xml version="1.0" encoding="utf-8"?>
<!-- Generator: Adobe Illustrator 25.2.3, SVG Export Plug-In . SVG Version: 6.00 Build 0)  -->
<svg version="1.1" xmlns="http://www.w3.org/2000/svg" xmlns:xlink="http://www.w3.org/1999/xlink" x="0px" y="0px"
	 viewBox="0 0 700 395" style="enable-background:new 0 0 700 395;" xml:space="preserve">
<style type="text/css">
	.st0{fill:#000222;}
	.st1{fill:#FFFFFF;}
</style>
<g id="Layer_1">
	<rect class="st0" width="700" height="395"/>
</g>
<g id="Layer_3">
	<g>
		<path class="st1" d="M273.5,368.6l1.1,4.2c0.2,0.9,0.5,1.8,0.6,2.6h0.1c0.2-0.8,0.5-1.7,0.7-2.6l1.3-4.2h1.3l1.3,4.1
			c0.3,1,0.5,1.9,0.7,2.7h0.1c0.1-0.8,0.4-1.7,0.6-2.7l1.2-4.1h1.5l-2.7,8.2H280l-1.3-3.9c-0.3-0.9-0.5-1.7-0.7-2.7h0
			c-0.2,1-0.5,1.8-0.7,2.7l-1.3,3.9h-1.4l-2.5-8.2H273.5z"/>
		<path class="st1" d="M286.3,368.6l1.1,4.2c0.2,0.9,0.5,1.8,0.6,2.6h0.1c0.2-0.8,0.5-1.7,0.7-2.6l1.3-4.2h1.3l1.3,4.1
			c0.3,1,0.5,1.9,0.7,2.7h0.1c0.1-0.8,0.4-1.7,0.6-2.7l1.2-4.1h1.5l-2.7,8.2h-1.4l-1.3-3.9c-0.3-0.9-0.5-1.7-0.7-2.7h0
			c-0.2,1-0.5,1.8-0.7,2.7l-1.3,3.9h-1.4l-2.5-8.2H286.3z"/>
		<path class="st1" d="M299,368.6l1.1,4.2c0.2,0.9,0.5,1.8,0.6,2.6h0.1c0.2-0.8,0.5-1.7,0.7-2.6l1.3-4.2h1.3l1.3,4.1
			c0.3,1,0.5,1.9,0.7,2.7h0.1c0.1-0.8,0.4-1.7,0.6-2.7l1.2-4.1h1.5l-2.7,8.2h-1.4l-1.3-3.9c-0.3-0.9-0.5-1.7-0.7-2.7h0
			c-0.2,1-0.5,1.8-0.7,2.7l-1.3,3.9h-1.4l-2.5-8.2H299z"/>
		<path class="st1" d="M309.9,375.9c0-0.6,0.4-1.1,1-1.1c0.6,0,1,0.4,1,1.1c0,0.6-0.4,1.1-1,1.1C310.3,377,309.9,376.5,309.9,375.9z
			"/>
		<path class="st1" d="M313.5,375.3c0.4,0.3,1.2,0.6,2,0.6c1.1,0,1.6-0.5,1.6-1.2c0-0.7-0.4-1.1-1.5-1.5c-1.5-0.5-2.2-1.3-2.2-2.3
			c0-1.3,1.1-2.4,2.8-2.4c0.8,0,1.6,0.2,2,0.5l-0.4,1.1c-0.3-0.2-0.9-0.5-1.7-0.5c-0.9,0-1.4,0.5-1.4,1.1c0,0.7,0.5,1,1.6,1.4
			c1.4,0.5,2.2,1.3,2.2,2.5c0,1.4-1.1,2.5-3.1,2.5c-0.9,0-1.7-0.2-2.3-0.6L313.5,375.3z"/>
		<path class="st1" d="M327.4,374.6c0,0.9,0,1.6,0.1,2.2h-1.3l-0.1-1.3h0c-0.4,0.7-1.3,1.5-2.7,1.5c-1.3,0-2.8-0.7-2.8-3.6v-4.8h1.5
			v4.6c0,1.6,0.5,2.6,1.8,2.6c1,0,1.7-0.7,2-1.4c0.1-0.2,0.1-0.5,0.1-0.8v-5h1.5V374.6z"/>
		<path class="st1" d="M329.8,371.1c0-1,0-1.8-0.1-2.6h1.3l0.1,1.6h0.1c0.4-1.1,1.3-1.8,2.3-1.8c0.2,0,0.3,0,0.4,0.1v1.4
			c-0.2,0-0.3-0.1-0.5-0.1c-1.1,0-1.8,0.8-2,1.9c0,0.2-0.1,0.4-0.1,0.7v4.4h-1.5V371.1z"/>
		<path class="st1" d="M339.9,376.8l-0.1-1h-0.1c-0.5,0.6-1.3,1.2-2.5,1.2c-1.7,0-2.5-1.2-2.5-2.4c0-2,1.8-3.1,4.9-3.1v-0.2
			c0-0.7-0.2-1.9-1.9-1.9c-0.8,0-1.6,0.2-2.1,0.6l-0.3-1c0.7-0.4,1.7-0.7,2.7-0.7c2.5,0,3.1,1.7,3.1,3.4v3.1c0,0.7,0,1.4,0.1,2
			H339.9z M339.7,372.6c-1.6,0-3.5,0.3-3.5,1.9c0,1,0.6,1.4,1.4,1.4c1.1,0,1.8-0.7,2-1.4c0.1-0.2,0.1-0.3,0.1-0.5V372.6z"/>
		<path class="st1" d="M343.5,364.7h1.5v5.1h0c0.2-0.4,0.6-0.8,1.1-1.1c0.4-0.3,1-0.4,1.5-0.4c1.1,0,2.9,0.7,2.9,3.5v4.9H349v-4.7
			c0-1.3-0.5-2.4-1.9-2.4c-1,0-1.7,0.7-2,1.5c-0.1,0.2-0.1,0.4-0.1,0.7v5h-1.5V364.7z"/>
		<path class="st1" d="M358.6,375.5L358.6,375.5c-0.5,0.8-1.4,1.5-2.7,1.5c-1.9,0-3.5-1.7-3.5-4.2c0-3.1,2-4.4,3.7-4.4
			c1.3,0,2.1,0.6,2.5,1.4h0l0.1-1.2h1.4c0,0.7-0.1,1.4-0.1,2.3v9.3h-1.5V375.5z M358.6,371.9c0-0.2,0-0.4-0.1-0.6
			c-0.2-0.9-1-1.7-2.1-1.7c-1.5,0-2.5,1.3-2.5,3.2c0,1.6,0.8,3.1,2.4,3.1c1,0,1.8-0.6,2.1-1.6c0.1-0.2,0.1-0.5,0.1-0.7V371.9z"/>
		<path class="st1" d="M369.4,374.6c0,0.9,0,1.6,0.1,2.2h-1.3l-0.1-1.3h0c-0.4,0.7-1.3,1.5-2.7,1.5c-1.3,0-2.8-0.7-2.8-3.6v-4.8h1.5
			v4.6c0,1.6,0.5,2.6,1.8,2.6c1,0,1.7-0.7,2-1.4c0.1-0.2,0.1-0.5,0.1-0.8v-5h1.5V374.6z"/>
		<path class="st1" d="M371.9,371.1c0-1,0-1.8-0.1-2.6h1.3l0.1,1.6h0.1c0.4-1.1,1.3-1.8,2.3-1.8c0.2,0,0.3,0,0.4,0.1v1.4
			c-0.2,0-0.3-0.1-0.5-0.1c-1.1,0-1.8,0.8-2,1.9c0,0.2-0.1,0.4-0.1,0.7v4.4h-1.5V371.1z"/>
		<path class="st1" d="M381.9,376.8l-0.1-1h-0.1c-0.5,0.6-1.3,1.2-2.5,1.2c-1.7,0-2.5-1.2-2.5-2.4c0-2,1.8-3.1,4.9-3.1v-0.2
			c0-0.7-0.2-1.9-1.9-1.9c-0.8,0-1.6,0.2-2.1,0.6l-0.3-1c0.7-0.4,1.7-0.7,2.7-0.7c2.5,0,3.1,1.7,3.1,3.4v3.1c0,0.7,0,1.4,0.1,2
			H381.9z M381.7,372.6c-1.6,0-3.5,0.3-3.5,1.9c0,1,0.6,1.4,1.4,1.4c1.1,0,1.8-0.7,2-1.4c0.1-0.2,0.1-0.3,0.1-0.5V372.6z"/>
		<path class="st1" d="M385.6,370.8c0-0.9,0-1.5-0.1-2.2h1.3l0.1,1.4h0c0.4-0.8,1.4-1.5,2.7-1.5c1.1,0,2.9,0.7,2.9,3.5v4.9h-1.5
			v-4.7c0-1.3-0.5-2.4-1.9-2.4c-1,0-1.8,0.7-2,1.5c-0.1,0.2-0.1,0.4-0.1,0.7v4.9h-1.5V370.8z"/>
		<path class="st1" d="M394.6,375.9c0-0.6,0.4-1.1,1-1.1c0.6,0,1,0.4,1,1.1c0,0.6-0.4,1.1-1,1.1C395,377,394.6,376.5,394.6,375.9z"
			/>
		<path class="st1" d="M404.4,376.5c-0.4,0.2-1.3,0.5-2.4,0.5c-2.5,0-4.1-1.7-4.1-4.2c0-2.5,1.7-4.4,4.4-4.4c0.9,0,1.7,0.2,2.1,0.4
			l-0.3,1.2c-0.4-0.2-0.9-0.4-1.7-0.4c-1.9,0-2.9,1.4-2.9,3.1c0,1.9,1.2,3.1,2.9,3.1c0.8,0,1.4-0.2,1.8-0.4L404.4,376.5z"/>
		<path class="st1" d="M413.5,372.6c0,3-2.1,4.4-4.1,4.4c-2.2,0-3.9-1.6-3.9-4.2c0-2.8,1.8-4.4,4.1-4.4
			C411.9,368.4,413.5,370.1,413.5,372.6z M406.9,372.7c0,1.8,1,3.2,2.5,3.2c1.4,0,2.5-1.3,2.5-3.2c0-1.4-0.7-3.2-2.5-3.2
			S406.9,371.1,406.9,372.7z"/>
		<path class="st1" d="M415.4,370.8c0-0.9,0-1.5-0.1-2.2h1.3l0.1,1.3h0.1c0.5-0.8,1.2-1.5,2.6-1.5c1.1,0,2,0.7,2.3,1.6h0
			c0.3-0.5,0.6-0.8,0.9-1.1c0.5-0.4,1-0.6,1.8-0.6c1.1,0,2.7,0.7,2.7,3.6v4.8h-1.5v-4.7c0-1.6-0.6-2.5-1.8-2.5
			c-0.9,0-1.5,0.6-1.8,1.4c-0.1,0.2-0.1,0.5-0.1,0.7v5.1h-1.5v-4.9c0-1.3-0.6-2.3-1.7-2.3c-0.9,0-1.6,0.7-1.9,1.5
			c-0.1,0.2-0.1,0.5-0.1,0.7v5h-1.5V370.8z"/>
	</g>
</g>
<g id="Layer_4">
	<path class="st1" d="M609.4,119c4.3,0,6.5,5.6,6.5,16.7c2.5,1.3,3.8,3.1,3.8,5.4l-1.7,2.2h-0.5l-3.2-2.2c-1.7,0-6.4,4-14,11.9
		c-11.7,9.3-21,14.5-28.1,15.7h-0.6c1.6-1.8,10.1-7.7,25.4-17.9c4.6-3.7,8.6-7.5,11.9-11.3v-0.6c-4-3.6-6-6.1-6-7.6
		C603,125.9,605.1,121.8,609.4,119z M569.5,119.5h2.2c2.9,2.2,4.3,4.2,4.3,6c-0.3,2.2-0.9,3.2-1.6,3.2h-1.1
		c-1.9-1.8-3.5-2.7-4.9-2.7s-2.3,2.2-2.6,6.5l0.5,3.8c-0.6,12.2-1.5,18.4-2.7,18.4c-6-10.5-11.8-15.7-17.3-15.7
		c-2.2-2.3-3.2-3.9-3.2-4.8l1.1-4.9h2.7c2.4,0,7.4,4.3,15.1,13h1.1v-9.7C563,126.9,565.2,122.6,569.5,119.5z M525.2,124.4l0.6,2.2
		c-1.9,3-11.2,9.6-28.1,19.9c-11.7,7.9-18.6,11.9-20.5,11.9l-0.6-0.5v-0.6c0-3.3,12.1-12,36.2-25.9
		C518.8,126.7,522.9,124.4,525.2,124.4z M453.9,124.4h0.6c1.4,0,2.5,2.3,3.2,7l-0.6,5.4v0.6c0,1.5,1.8,4,5.4,7.6v2.7
		c0,0.7-0.5,1.1-1.6,1.1l-4.9-2.7h-2.2c-10.1,11.4-19.4,18.1-28.1,19.9v-0.5c0.8-1.3,8-7.1,21.6-17.3l3.2-3.8v-1.6l-4.3-7.1
		C447.9,128.1,450.5,124.4,453.9,124.4z M414,124.9h1.1c3.3,5.2,7.1,14.2,11.4,27l-0.6,0.6h-1.6l-3.2-2.7l-1.1,1.1
		c5.8,38,9.5,66.2,11.3,84.8l-0.5,2.7l0.5,0.6c-0.8,11.5-2.3,17.3-4.3,17.3l-1.1-1.7v-4.8l-0.5-0.6l0.5-0.5v-2.7l-0.5-0.5l0.5-0.6
		c-2.2-19.7-7-56.4-14.5-110.2v-1.1C411.3,131.8,412.2,128.9,414,124.9z M608.4,125.4c0,0.7-0.5,1.1-1.6,1.1l-0.6,0.5v0.6
		c0,2.4,2,4,6,4.8l0.5-0.5v-0.6C612.7,127.7,611.2,125.8,608.4,125.4z M326.5,125.4h2.2v1.6c-1.3,3-8.7,7.8-22.1,14.6
		c-11.1,7.2-17.6,10.8-19.4,10.8v-1.1c0-2.8,5.9-7.1,17.8-13c1.9-1.8,5.7-3.9,11.4-6.5L326.5,125.4z M385.9,126.5h0.6
		c7.5,12.6,11.3,21,11.3,25.3h-1.1l-3.7-3.2h-0.6v0.6c0,3,3.6,27.7,10.8,73.9l-0.5,1.7l0.5,1.6c-2,13.2-5.7,20.2-11.3,21.1
		c-3.2,1.4-6.5,2.2-9.7,2.2H380c-7.7,0-17-6.1-28.1-18.4c-9.1-7.2-14.3-10.8-15.7-10.8l3.2,16.2c0,8.2-8.8,15.5-26.4,22.1l-6,1.7
		c-11.2,0-18.4-6-21.6-17.9c-2-4.7-5.6-31.7-10.8-81l-4.8-24.8c0-2.7,1.2-5.4,3.7-8.1c2.7,3.8,6,21.2,9.7,52.3h0.6
		c0.6,0,2-2.2,4.3-6.5c23.3-17.6,43.5-30.5,60.5-38.9c6.5-3.8,12.6-6,18.4-6.5c3.2,1.1,4.8,3.1,4.8,6v2.7c0,4.9-5.4,15.7-16.2,32.4
		c-1.2,3.3-2.7,4.9-4.3,4.9l-0.5-0.6V174c1.7-5.1,6.9-14.5,15.6-28.1v-2.7c-1-1.8-2.4-2.7-4.3-2.7c-5.4,0-18.6,6.5-39.4,19.4
		l-21.6,15.1c-4.7,3.2-8.8,6.8-12.5,10.8v0.5c0.8,0.9,9.1,4.2,24.8,9.7c14.4,6.7,25.4,13.2,33,19.4c15.6,15.1,26.3,22.7,31.8,22.7
		l6,0.6c9-1.3,13.5-3.6,13.5-7.1c-8.3-58.7-13.1-91.1-14.5-97.2C383.2,131.4,384.1,128.7,385.9,126.5z M221.7,128.1
		c2.5,1.2,3.8,4.7,3.8,10.3l-0.6,3.2l2.7,4.3v2.7l-1.7,1.7l-3.2-1.1c-13,12.6-20.9,18.9-23.8,18.9c-3.5,3.3-6.9,4.9-10.2,4.9v-0.6
		c16.2-12.6,25.9-20.5,29.2-23.8l0.5-1.6l-4.8-5.4l-0.6-2.7c0-3.7,1.8-7.1,5.4-10.2l0.6-0.6H221.7z M179.6,130.8
		c2.6,0.7,4.8,3,6.5,7c-0.7,1.6-1.4,2.5-2.2,2.7h-0.5l-3.8-2.7H178l-1.7,1.7l0.6,11.3c-0.5,7.9-1.4,12.1-2.7,12.5h-1.1
		c-0.9-5.1-4.5-10.1-10.8-15.1l-3.2,0.5c-3.9-0.7-5.9-2.7-5.9-5.9c1.1-3.3,2.3-4.9,3.7-4.9c3.1,0.2,8.4,4,15.7,11.4h0.5v-2.7
		C173.6,136,175.8,130.8,179.6,130.8z M450.7,132.4v1.7l2.7,2.7l1.1-1.1v-1.1c0-1.9-0.6-3-1.7-3.2h-1.1L450.7,132.4z M253.1,132.4
		h0.6l-0.6,3.8v4.3c0,2.6,1.1,4,3.2,4.3l2.7-1.7l0.5,0.6v0.5c-1.3,4.7-3.1,7.1-5.4,7.1c-2.9-1.1-4.3-3.9-4.3-8.2
		S250.9,135.2,253.1,132.4z M216.9,137.3c1.5,1.4,2.9,2.2,4.3,2.2h0.5v-2.7c-0.7-1.4-1.6-2.2-2.7-2.2
		C217.6,135,216.9,135.9,216.9,137.3z M78.7,139.5h0.5v1.6l-1.1,6v3.7c0,3.3,1.6,5.7,4.9,7.1c1.4-1.6,2.2-2.9,2.2-3.8h1.1v1.1h0.5
		c0,3.1-1.4,6-4.3,8.6h-0.5c-3.1,0-5.3-2.5-6.5-7.6v-1.6C75.4,150,76.5,144.9,78.7,139.5z M140.7,143.8l1.7,0.5v2.2
		c0,2.5-4.9,5.6-14.6,9.2c-16.1,7.6-31.8,15.9-46.9,24.8l-2.2,2.7v0.6c2.9,2.7,4.3,4.7,4.3,5.9l-1.7,1.7h-1.6
		c-2.9-1.2-4.3-3.4-4.3-6.5c0-6.1,6.5-12,19.4-17.9L140.7,143.8z M241.8,155.1h0.5c2.5,0,5.4,2.4,8.6,7.1c0,1.7-1.4,4-4.3,7
		c-6.1-2.3-9.1-4.6-9.1-7C238.9,158.4,240.3,156.1,241.8,155.1z M532.8,155.7v0.5l-1.6,10.3c0.8,5.4,2.3,8.1,4.3,8.1
		c1.8-0.4,2.7-2,2.7-4.8h1.1l0.6,2.2c0,3.7-1.6,6.7-4.9,9.1c-4.3-1.9-6.5-5.3-6.5-10.2C529.9,160.7,531.4,155.7,532.8,155.7z
		 M613.8,157.3v0.6l-2.2,8.1v1.1c0,3.5,1.3,5.9,3.8,7.1l3.2-3.2l0.5,0.5v0.6c0,2.8-1.2,5.5-3.7,8.1h-2.2c-1.7,0-3.1-2.9-4.3-8.6
		C610.8,161.9,612.4,157.3,613.8,157.3z M463.1,162.7c5.8,3.7,8.6,6.6,8.6,8.6c-1.4,3.4-2.9,5.5-4.3,6.5h-1.1l-6.5-4.8
		c-1.3,0-3,2.3-4.9,7h-2.2c-4.8-2.7-7.5-5.1-8.1-7c0-3,1.8-5.5,5.4-7.6c3.5,2.5,5.8,3.7,7,3.7l4.9-5.9h1.1V162.7z M329.7,167.5h1.1
		l-1.1,8.6v2.7c0,2.7,0.9,4.7,2.7,6h1.6l1.1-2.7h0.6l1.1,1.1c0,5-1.8,7.9-5.4,8.6c-1.7-0.4-3.3-3.1-4.9-8.1l0.6-0.6v-1.1l-0.6-2.2
		L329.7,167.5z M137.5,169.1h1.1c5.4,4.9,9.2,9.2,11.4,13v0.6l-2.7,0.5l-0.5-0.5l-1.7,0.5v0.6c5,9.7,7.6,16.7,7.6,21
		c0,11.1-3,18.3-9.1,21.6c-11,12.6-25.9,21.2-44.9,25.9l-3.2,0.6l-2.2-0.6l-1.6,0.6c-7.1,0-14.3-3.2-21.6-9.7c-1.7,0-4-5.6-7.1-16.8
		v-7c0-8.7,2.2-16.2,6.5-22.7v1.1c-1.8,8.6-2.7,14.6-2.7,17.8v2.2c0,11.7,6.8,19.5,20.5,23.3l5.9,0.5h2.2c12.9,0,29.3-8.4,49.2-25.3
		l3.7-5.4v-4.3c-4.4-7.6-8.7-17.7-13-30.2v-1.1C135.9,171.1,136.6,169.1,137.5,169.1z M495.5,172.9h0.5c7.6,6.8,11.4,10.8,11.4,11.9
		v1.1h-2.7c-0.7,0-1.1,0.5-1.1,1.6c6.5,10.3,9.7,17.1,9.7,20.5v1.1c0,11.4-4.3,19.7-13,24.8c-1.4,2.9-2.2,5.6-2.2,8.1
		c2.2,11.5,7.8,17.3,16.8,17.3c13.2,0,28.5-10.3,45.9-30.8l1.1-2.2c0-1.9-0.5-3-1.6-3.2l-15.7,3.2c-6.8,0-10.6-4-11.3-11.9V214
		c0-9,4.3-14.6,13-16.8c4.4,0,10.2,4.2,17.3,12.5h0.5c11.8-8.3,18.1-12.5,18.9-12.5l1.1,1.7v5.4c2,5.4,5.2,8.1,9.7,8.1h4.3
		c6.3,0,12-5.9,17.3-17.8l1.6-1.1h0.6l0.5,1.6c-1.4,2.8-2.2,5.2-2.2,7.1c3,3.6,6.5,5.4,10.4,5.4s5.8-0.9,5.8-2.7l-3.2-5.4
		c0.5-5.3,1.6-8.2,3.2-8.6c3.3,5,4.9,9.7,4.9,14c0,8-3.6,12.7-10.8,14h-0.6c-4.8,0-9.1-2.3-13-7h-1.6c-3.8,7.5-9.2,11.3-16.2,11.3
		h-2.2c-6.6,0-10.9-4.5-13-13.5h-1.1c-7.9,6-11.9,10.4-11.9,13c0,13.6-11.7,28-35.1,43.2c-4.7,1.9-9.9,3.3-15.6,4.3
		c-12.1,0-19.1-7.4-21.1-22.2v-7.6h-0.5c-2.2,0.3-7.9,3.9-17.3,10.8c-13.7,9-25,13.9-34.1,14.6c-3.7,1.4-10.8,3.2-21,5.4l-0.6-0.6
		v-0.5c3.3-2.4,12.1-6.6,26.5-12.5c19.4-11.1,35.3-21.4,47.5-30.7c8.6-7.6,13-11.9,13-13v-1.7c0-1.8-3.8-9-11.4-21.6l-3.7-10.8
		C493.7,175.3,494.4,172.9,495.5,172.9z M247.7,177.3c6.8,0,12.9,6.1,18.4,18.4l1.1,4.8v3.8c0,13.2-4.3,21.2-13,23.8
		c0,1.2-6.5,3.8-19.4,8.1c-14.5,5.4-24.7,12.4-30.7,21.1c-9.7,12.6-17.1,18.9-22.2,18.9h-2.7c-8.4,0-13.6-5.9-15.7-17.8l1.1-11.4
		l-16.2,9.2c-4.7,2.8-19.8,7.8-45.4,15.1h-2.2v-2.2c23.5-9.4,47.1-22.4,70.8-38.9c12.6-10.9,18.9-17.9,18.9-21.1
		c-2-2.5-5-3.7-9.1-3.7H178l-2.2,0.5c-8.3-1.2-12.5-4.8-12.5-10.8V194c0-7.8,3.6-13,10.8-15.6h0.6c5.5,0,11.4,5.9,17.8,17.8l1.7,6
		c0,13.4-2.5,21.7-7.6,24.8c-11.5,10.5-17.3,16.8-17.3,18.9c-1.4,4.1-2.2,8.3-2.2,12.5v1.6c0,3.3,2.5,6,7.6,8.1
		c8.4,0,17-6.5,25.9-19.4c11.8-12.8,23.3-20.2,34.6-22.2c16.9-6.9,25.3-11.5,25.3-14l2.2-2.2V208c-1.9-2.9-4.6-4.3-8.1-4.3l-0.6,0.6
		h-0.5l-0.6-0.6l-5.4,0.6c-9,0-13.5-3.1-13.5-9.2C235.6,183.2,240.1,177.3,247.7,177.3z M473.4,181.6l1.1,1.1
		c0,4.2-2.9,10.7-8.6,19.4v0.5c7.9,5.6,11.9,10.6,11.9,15.1c0,8.8-4,15.1-11.9,18.9c-2.9,2.5-6.1,3.7-9.7,3.7
		c-4.3-2.1-6.5-4.8-6.5-8.1v-8.1l3.8-13.5v-1.7c-9.7-8.6-14.6-14.4-14.6-17.3v-1.1c0.2-2.9,0.8-4.3,1.7-4.3c8.7,2.7,13.4,4.7,14,6
		v0.5c0,0.7-0.6,1.1-1.7,1.1l-0.5,0.6v0.5c2.3,2.9,4.4,4.3,6.5,4.3h1.1L473.4,181.6z M216.3,182.7h0.6l-2.7,13c0.7,4.7,1.8,7,3.2,7
		h1.1c1.4-0.7,2.2-1.6,2.2-2.7h0.6l0.5,0.5h0.6c0,3.9-1.8,6.8-5.4,8.6c-2.7,0-4.7-3.4-6-10.2C210.9,193.9,212.7,188.5,216.3,182.7z
		 M375.1,183.2c3.6,1,5.4,3.1,5.4,6.5v0.6l-1.6,2.2c-2.2-1.4-3.8-2.2-4.9-2.2s-1.8,2-2.2,5.9l0.6,6c0,4.5-0.7,8.8-2.2,13h-0.6
		c-4.8-9.4-9.2-14-13-14c-3.9-1.7-5.9-3.9-5.9-6.6s0.7-4.3,2.2-4.8c3.4,0,8.8,4.5,16.2,13.5l0.5-0.6v-3.2l-0.5-0.5l0.5-0.6v-1.1
		C369.7,189.6,371.5,184.9,375.1,183.2z M241.2,190.7c0,1.5,2,2.4,6,2.7l5.4-0.6v-0.5c-1.6-2.5-3.6-3.8-6-3.8h-2.2
		C242.6,188.6,241.6,189.3,241.2,190.7z M169.9,191.8v1.1c0.2,1.1,1.7,1.7,4.3,1.7h4.3l1.1-1.1c-1.7-2.5-3.5-3.8-5.4-3.8
		C171.3,190.1,169.9,190.8,169.9,191.8z M284.4,198.9c1.8,18.8,3.8,31.4,6,37.8c3.6,8.6,8.8,13,15.6,13c8.8,0,18.4-4.9,28.7-14.6
		v-2.2c-8-10.9-17.2-19.2-27.6-24.8c-8.8-5.6-16-9.2-21.6-10.8C284.7,197.2,284.4,197.8,284.4,198.9z M110.5,199.9h1.1
		c5.4,3,8.1,5.2,8.1,6.5c0,2.9-1.3,5.6-3.8,8.1h-0.5c-5.1-3-8-5.2-8.6-6.5C106.8,204.4,108,201.7,110.5,199.9z M91.1,202.6h0.6
		c-0.7,1.6-1.1,4.5-1.1,8.6v2.2c0,4.3,1.4,6.5,4.3,6.5l2.2-2.7h1.1v1.1c-1.3,5.4-2.6,8.1-3.8,8.1h-1.6c-3.6-2.6-5.4-6.1-5.4-10.4
		C87.3,211.6,88.6,207.1,91.1,202.6z M539.8,212.3c0.2,1,1.1,1.9,2.7,2.7h2.7c5,0,7.6-0.7,7.6-2.2c-1.7-2.5-3.8-3.8-6.5-3.8h-3.2
		C541.1,210.1,540.1,211.1,539.8,212.3z M453.4,224.8c0.4,3.2,2,4.8,4.8,4.8c9-3,13.5-6,13.5-9.1c-4.3-4.7-8.4-7.4-12.5-8.1
		C455.4,217.6,453.4,221.8,453.4,224.8z M624.6,231.3h0.6l0.5,2.2c0,4.9-2.5,8.7-7.6,11.3l-4.8-1.1c-3.7,2.5-6.2,3.8-7.6,3.8l-6-2.2
		c-3.1,0-10,4.1-20.5,12.4c-4.8,2.2-8.1,3.2-9.7,3.2v-0.5L596,241l5.4-1.7l6.5,2.2c2.2,0,4.9-2.2,8.1-6.5c0.5,1.5,1.4,2.6,2.7,3.2
		h2.2c1.1,0,1.8-1.8,2.2-5.4L624.6,231.3z M410.2,242.6h1.1v0.6l-1.7,8.1c0.5,4.7,1.4,7.1,2.7,7.1h0.5l2.7-2.7h0.5v1.7
		c-1.1,5-2.9,7.6-5.4,7.6c-1.9,0-3.2-2.2-3.7-6.5v-5.4L410.2,242.6z M275.2,243.6h0.5l0.6,1.7c0,2.3-7.4,6.6-22.2,13l-23.8,11.3
		l-0.5-0.5v-0.6c0-3.5,6.6-7.8,19.9-13C264.2,247.6,272.6,243.6,275.2,243.6z M352.4,245.8l-1.6,11.4c0,3.2,1.1,5.3,3.2,6.5h0.5
		l2.2-1.7h1.1v1.1c-0.6,4.3-2.4,6.5-5.4,6.5h-0.5c-1.8,0-3.3-3.2-4.3-9.7C349.2,250.5,350.8,245.8,352.4,245.8z"/>
</g>
</svg>
