<?xml version="1.0" encoding="utf-8"?>
<!-- Generator: Adobe Illustrator 25.2.3, SVG Export Plug-In . SVG Version: 6.00 Build 0)  -->
<svg version="1.1" xmlns="http://www.w3.org/2000/svg" xmlns:xlink="http://www.w3.org/1999/xlink" x="0px" y="0px"
	 viewBox="0 0 700 395" style="enable-background:new 0 0 700 395;" xml:space="preserve">
<style type="text/css">
	.st0{fill:#000222;}
	.st1{fill:#FFFFFF;}
</style>
<g id="Layer_1">
	<rect class="st0" width="700" height="395"/>
</g>
<g id="Layer_3">
	<g>
		<path class="st1" d="M273.5,368.6l1.1,4.2c0.2,0.9,0.5,1.8,0.6,2.6h0.1c0.2-0.8,0.5-1.7,0.7-2.6l1.3-4.2h1.3l1.3,4.1
			c0.3,1,0.5,1.9,0.7,2.7h0.1c0.1-0.8,0.4-1.7,0.6-2.7l1.2-4.1h1.5l-2.7,8.2H280l-1.3-3.9c-0.3-0.9-0.5-1.7-0.7-2.7h0
			c-0.2,1-0.5,1.8-0.7,2.7l-1.3,3.9h-1.4l-2.5-8.2H273.5z"/>
		<path class="st1" d="M286.3,368.6l1.1,4.2c0.2,0.9,0.5,1.8,0.6,2.6h0.1c0.2-0.8,0.5-1.7,0.7-2.6l1.3-4.2h1.3l1.3,4.1
			c0.3,1,0.5,1.9,0.7,2.7h0.1c0.1-0.8,0.4-1.7,0.6-2.7l1.2-4.1h1.5l-2.7,8.2h-1.4l-1.3-3.9c-0.3-0.9-0.5-1.7-0.7-2.7h0
			c-0.2,1-0.5,1.8-0.7,2.7l-1.3,3.9h-1.4l-2.5-8.2H286.3z"/>
		<path class="st1" d="M299,368.6l1.1,4.2c0.2,0.9,0.5,1.8,0.6,2.6h0.1c0.2-0.8,0.5-1.7,0.7-2.6l1.3-4.2h1.3l1.3,4.1
			c0.3,1,0.5,1.9,0.7,2.7h0.1c0.1-0.8,0.4-1.7,0.6-2.7l1.2-4.1h1.5l-2.7,8.2h-1.4l-1.3-3.9c-0.3-0.9-0.5-1.7-0.7-2.7h0
			c-0.2,1-0.5,1.8-0.7,2.7l-1.3,3.9h-1.4l-2.5-8.2H299z"/>
		<path class="st1" d="M309.9,375.9c0-0.6,0.4-1.1,1-1.1c0.6,0,1,0.4,1,1.1c0,0.6-0.4,1.1-1,1.1C310.3,377,309.9,376.5,309.9,375.9z
			"/>
		<path class="st1" d="M313.5,375.3c0.4,0.3,1.2,0.6,2,0.6c1.1,0,1.6-0.5,1.6-1.2c0-0.7-0.4-1.1-1.5-1.5c-1.5-0.5-2.2-1.3-2.2-2.3
			c0-1.3,1.1-2.4,2.8-2.4c0.8,0,1.6,0.2,2,0.5l-0.4,1.1c-0.3-0.2-0.9-0.5-1.7-0.5c-0.9,0-1.4,0.5-1.4,1.1c0,0.7,0.5,1,1.6,1.4
			c1.4,0.5,2.2,1.3,2.2,2.5c0,1.4-1.1,2.5-3.1,2.5c-0.9,0-1.7-0.2-2.3-0.6L313.5,375.3z"/>
		<path class="st1" d="M327.4,374.6c0,0.9,0,1.6,0.1,2.2h-1.3l-0.1-1.3h0c-0.4,0.7-1.3,1.5-2.7,1.5c-1.3,0-2.8-0.7-2.8-3.6v-4.8h1.5
			v4.6c0,1.6,0.5,2.6,1.8,2.6c1,0,1.7-0.7,2-1.4c0.1-0.2,0.1-0.5,0.1-0.8v-5h1.5V374.6z"/>
		<path class="st1" d="M329.8,371.1c0-1,0-1.8-0.1-2.6h1.3l0.1,1.6h0.1c0.4-1.1,1.3-1.8,2.3-1.8c0.2,0,0.3,0,0.4,0.1v1.4
			c-0.2,0-0.3-0.1-0.5-0.1c-1.1,0-1.8,0.8-2,1.9c0,0.2-0.1,0.4-0.1,0.7v4.4h-1.5V371.1z"/>
		<path class="st1" d="M339.9,376.8l-0.1-1h-0.1c-0.5,0.6-1.3,1.2-2.5,1.2c-1.7,0-2.5-1.2-2.5-2.4c0-2,1.8-3.1,4.9-3.1v-0.2
			c0-0.7-0.2-1.9-1.9-1.9c-0.8,0-1.6,0.2-2.1,0.6l-0.3-1c0.7-0.4,1.7-0.7,2.7-0.7c2.5,0,3.1,1.7,3.1,3.4v3.1c0,0.7,0,1.4,0.1,2
			H339.9z M339.7,372.6c-1.6,0-3.5,0.3-3.5,1.9c0,1,0.6,1.4,1.4,1.4c1.1,0,1.8-0.7,2-1.4c0.1-0.2,0.1-0.3,0.1-0.5V372.6z"/>
		<path class="st1" d="M343.5,364.7h1.5v5.1h0c0.2-0.4,0.6-0.8,1.1-1.1c0.4-0.3,1-0.4,1.5-0.4c1.1,0,2.9,0.7,2.9,3.5v4.9H349v-4.7
			c0-1.3-0.5-2.4-1.9-2.4c-1,0-1.7,0.7-2,1.5c-0.1,0.2-0.1,0.4-0.1,0.7v5h-1.5V364.7z"/>
		<path class="st1" d="M358.6,375.5L358.6,375.5c-0.5,0.8-1.4,1.5-2.7,1.5c-1.9,0-3.5-1.7-3.5-4.2c0-3.1,2-4.4,3.7-4.4
			c1.3,0,2.1,0.6,2.5,1.4h0l0.1-1.2h1.4c0,0.7-0.1,1.4-0.1,2.3v9.3h-1.5V375.5z M358.6,371.9c0-0.2,0-0.4-0.1-0.6
			c-0.2-0.9-1-1.7-2.1-1.7c-1.5,0-2.5,1.3-2.5,3.2c0,1.6,0.8,3.1,2.4,3.1c1,0,1.8-0.6,2.1-1.6c0.1-0.2,0.1-0.5,0.1-0.7V371.9z"/>
		<path class="st1" d="M369.4,374.6c0,0.9,0,1.6,0.1,2.2h-1.3l-0.1-1.3h0c-0.4,0.7-1.3,1.5-2.7,1.5c-1.3,0-2.8-0.7-2.8-3.6v-4.8h1.5
			v4.6c0,1.6,0.5,2.6,1.8,2.6c1,0,1.7-0.7,2-1.4c0.1-0.2,0.1-0.5,0.1-0.8v-5h1.5V374.6z"/>
		<path class="st1" d="M371.9,371.1c0-1,0-1.8-0.1-2.6h1.3l0.1,1.6h0.1c0.4-1.1,1.3-1.8,2.3-1.8c0.2,0,0.3,0,0.4,0.1v1.4
			c-0.2,0-0.3-0.1-0.5-0.1c-1.1,0-1.8,0.8-2,1.9c0,0.2-0.1,0.4-0.1,0.7v4.4h-1.5V371.1z"/>
		<path class="st1" d="M381.9,376.8l-0.1-1h-0.1c-0.5,0.6-1.3,1.2-2.5,1.2c-1.7,0-2.5-1.2-2.5-2.4c0-2,1.8-3.1,4.9-3.1v-0.2
			c0-0.7-0.2-1.9-1.9-1.9c-0.8,0-1.6,0.2-2.1,0.6l-0.3-1c0.7-0.4,1.7-0.7,2.7-0.7c2.5,0,3.1,1.7,3.1,3.4v3.1c0,0.7,0,1.4,0.1,2
			H381.9z M381.7,372.6c-1.6,0-3.5,0.3-3.5,1.9c0,1,0.6,1.4,1.4,1.4c1.1,0,1.8-0.7,2-1.4c0.1-0.2,0.1-0.3,0.1-0.5V372.6z"/>
		<path class="st1" d="M385.6,370.8c0-0.9,0-1.5-0.1-2.2h1.3l0.1,1.4h0c0.4-0.8,1.4-1.5,2.7-1.5c1.1,0,2.9,0.7,2.9,3.5v4.9h-1.5
			v-4.7c0-1.3-0.5-2.4-1.9-2.4c-1,0-1.8,0.7-2,1.5c-0.1,0.2-0.1,0.4-0.1,0.7v4.9h-1.5V370.8z"/>
		<path class="st1" d="M394.6,375.9c0-0.6,0.4-1.1,1-1.1c0.6,0,1,0.4,1,1.1c0,0.6-0.4,1.1-1,1.1C395,377,394.6,376.5,394.6,375.9z"
			/>
		<path class="st1" d="M404.4,376.5c-0.4,0.2-1.3,0.5-2.4,0.5c-2.5,0-4.1-1.7-4.1-4.2c0-2.5,1.7-4.4,4.4-4.4c0.9,0,1.7,0.2,2.1,0.4
			l-0.3,1.2c-0.4-0.2-0.9-0.4-1.7-0.4c-1.9,0-2.9,1.4-2.9,3.1c0,1.9,1.2,3.1,2.9,3.1c0.8,0,1.4-0.2,1.8-0.4L404.4,376.5z"/>
		<path class="st1" d="M413.5,372.6c0,3-2.1,4.4-4.1,4.4c-2.2,0-3.9-1.6-3.9-4.2c0-2.8,1.8-4.4,4.1-4.4
			C411.9,368.4,413.5,370.1,413.5,372.6z M406.9,372.7c0,1.8,1,3.2,2.5,3.2c1.4,0,2.5-1.3,2.5-3.2c0-1.4-0.7-3.2-2.5-3.2
			S406.9,371.1,406.9,372.7z"/>
		<path class="st1" d="M415.4,370.8c0-0.9,0-1.5-0.1-2.2h1.3l0.1,1.3h0.1c0.5-0.8,1.2-1.5,2.6-1.5c1.1,0,2,0.7,2.3,1.6h0
			c0.3-0.5,0.6-0.8,0.9-1.1c0.5-0.4,1-0.6,1.8-0.6c1.1,0,2.7,0.7,2.7,3.6v4.8h-1.5v-4.7c0-1.6-0.6-2.5-1.8-2.5
			c-0.9,0-1.5,0.6-1.8,1.4c-0.1,0.2-0.1,0.5-0.1,0.7v5.1h-1.5v-4.9c0-1.3-0.6-2.3-1.7-2.3c-0.9,0-1.6,0.7-1.9,1.5
			c-0.1,0.2-0.1,0.5-0.1,0.7v5h-1.5V370.8z"/>
	</g>
</g>
<g id="Layer_4">
	<path class="st1" d="M550.5,113.4c1.7,0,3.4,2,5.3,5.9l-1.2,4.2h-1.7l-4.2-3h-1.7c-2,0-3,9.1-3,27.2c-0.9,2.8-1.7,4.2-2.4,4.2
		c-6.6-11.5-12.7-17.2-18.3-17.2c-2-2-3-3.8-3-5.3v-0.6c0-3,0.8-4.8,2.4-5.3c3.3,0,9,4.9,17.2,14.7h1.2v-1.2l0.6-7.1H541
		c0-8.2,2.9-13.8,8.8-16.6H550.5z M593,113.4c3.3,0,5.4,6.1,6.5,18.4c1.6,1.3,2.8,3,3.5,5.3c-0.4,2-1.2,3-2.4,3l-2.9-1.8h-1.2
		c-1.7,0-7.1,4.7-16,14.2c-12.7,8.9-22.4,14-28.9,15.4h-1.2l28.4-20.1c7.8-6,11.9-9.9,12.4-11.8c-3.9-4.6-5.9-7.8-5.9-9.5
		C586.3,117.8,588.9,113.4,593,113.4z M158.5,117c3.4,0,5.3,4.7,5.9,14.2c2,0,4,2,5.9,5.9l-0.6,2.4c-2.1,0-3.9-0.6-5.4-1.7h-0.6
		c-2.2,0-7.1,4.5-14.8,13.6l-18.9,11.3h-1.7v-0.6c15.4-11.8,24.9-20,28.4-24.8v-1.2c-3.2-1.9-4.7-4.5-4.7-7.6
		C152,123.1,154.2,119.3,158.5,117z M423.3,117.6c2,0,3.4,2.4,4.2,7.1l-0.6,8.8v0.6c3.9,3,5.9,5.9,5.9,8.8l-1.7,1.8h-0.6l-5.3-3.5
		c-1.9,0-5.4,3.3-10.6,10c-10.9,7.5-17.6,11.3-20.1,11.3l-0.6-0.6h-0.6c0.1-0.8,7.3-6.5,21.8-17.1c2.8-2.7,4.2-4.9,4.2-6.5l-4.2-7.1
		C415.1,124.6,417.8,120.1,423.3,117.6z M499,118.1h1.2c0.8,0,1.2,0.6,1.2,1.8c-0.3,2.7-9.1,9.2-26.6,19.5
		c-12,8.3-20.9,13.8-26.6,16.6l-0.6-1.7c0.8-3.9,10.7-11.4,29.6-22.5L499,118.1z M348.3,118.8c2.6,3.5,6.8,12.6,12.4,27.2v2.4h-1.2
		l-3.5-3h-1.2v0.6l10.6,76.2v4.7c0,11-2.9,18.1-8.8,21.3c-1.2,1.1-4.4,2-9.5,3h-4.2c-6.7,0-12.2-4.3-16.6-13l-0.6-0.6h-0.6
		c-7.6,10.2-16.3,15.4-26,15.4h-0.6c-10.5,0-20-5.1-28.4-15.4c-5.7-5.6-11-9.7-16-12.4h-1.7c1.2,4.9,1.7,9.3,1.7,13v4.1
		c0,7.1-8.1,14.2-24.2,21.3l-4.7,0.6c-13.4,0-21.5-14-24.3-42c0-7.4-3.5-33.9-10.6-79.8l-3.5-10.6c1.3-5.5,2.5-8.3,3.5-8.3
		c2.7,0,6.7,18.5,11.8,55.6l0.6,2.9l0.6,0.6h0.6c11.2-12.1,26.4-23.7,45.5-34.9c27.8-16.1,44.6-24.2,50.3-24.2h1.2
		c3.7,0,5.8,2.8,6.5,8.3c-0.7,7.1-3.8,15.4-9.5,24.8c-1.9,1.4-7.9,9.1-17.7,23l-1.2-1.2c2.2-7.6,9.1-18.4,20.7-32.5l2.4-5.9
		c0-2.4-1.6-3.5-4.7-3.5c-8.2,0-28.1,9.6-59.7,28.9c-19.3,13.4-28.9,21.7-28.9,24.8c24.4,8.7,42,17.7,52.6,27.2
		c6.1,4.6,12.4,10.1,18.9,16.6c7.5,5.1,14.2,7.7,20.1,7.7h0.6c10.2-2,15.4-4.2,15.4-6.5c1.2,0,5.1-3.9,11.8-11.8h1.7
		c1.3,10.7,6.4,16,15.4,16h1.8c6,0,10.2-2.2,12.4-6.5v-5.3L344.7,130l-0.6-1.7C345.7,121.9,347.1,118.8,348.3,118.8z M588.3,124.1
		c2.8,2.4,4.9,3.5,6.5,3.5l0.6-0.6v-0.6c-0.5-3.9-1.3-5.9-2.4-5.9h-1.2C589.5,120.5,588.3,121.7,588.3,124.1z M377.2,120.5h0.6
		c2.7,1.9,6.8,11.2,12.4,27.8l-0.6,1.7h-1.2l-3.5-2.9l-0.6,0.6h-0.6c7.5,52,11.2,79.8,11.2,83.4v1.2l0.6,2.4L395,237v1.7
		c0,8.2-1.2,13.5-3.5,16l-1.2-1.2c0-8.2-5.1-49.6-15.4-124.1L377.2,120.5z M257.3,121.1l0.6,0.6v0.6c0,2.9-6.5,7.4-19.5,13.6
		l-27.8,16.6H210c-0.8,0-1.2-0.6-1.2-1.7c0-2.4,6.9-7.1,20.6-14.2C243,127.5,252.3,122.4,257.3,121.1z M155,125.2v1.2
		c0,0.6,1.4,1.6,4.2,3h0.6c0.8,0,1.2-0.6,1.2-1.8c-0.9-2.4-1.7-3.5-2.4-3.5h-2.4L155,125.2z M419.2,127.1v1.2l3.5,3.5l1.2-1.2v-1.8
		c0-2.1-0.8-3.5-2.4-4.1L419.2,127.1z M124.9,126.4h1.2c3.5,0,5.3,2.2,5.3,6.5l-1.2,1.2l-7.1-0.6l-1.2,1.8v5.3l0.6,0.6l-0.6,0.6v0.6
		l0.6,5.9c0,11.5-4.3,21.3-13,29.6l-7.7,4.7v-1.2c10.7-11.8,16-19.1,16-21.9v-1.7c-1.8-3.8-5.3-8-10.6-12.5l-2.4,0.6
		c-2.7-0.7-4.9-2.3-6.5-4.7v-3c0-1.9,1-3.5,3-4.7c4.4,1.5,10.1,6.3,17.1,14.2l0.6-0.6h0.6l-0.6-3V143
		C118.9,134,120.9,128.5,124.9,126.4z M338.8,142.4l0.6,0.6v0.6c0,3.1-4.7,6.3-14.2,9.5c-10.8,4.7-17.1,7.1-18.9,7.1V159
		c0-2.9,4.7-5.9,14.2-8.9C325.2,147.3,331.3,144.8,338.8,142.4z M166.2,146c5.5,3.6,8.3,6.5,8.3,8.8c0,1.6-1.6,3.9-4.7,7.1H168
		c-4.3-3.5-6.4-6.3-6.5-8.3C163.3,148.5,164.9,146,166.2,146z M508.4,153.6v0.6l-1.7,11.8c0,3.4,1.4,6,4.1,7.6h1.2
		c1.1,0,1.9-1.6,2.4-4.7h1.2l0.6,1.8c-0.9,4.7-2.3,8-4.2,10h-1.7c-3.5,0-5.6-3.3-6.5-10v-0.6C503.7,164,505.3,158.4,508.4,153.6z
		 M596.6,156v1.2c-2,4.5-3,7.7-3,9.5c0.7,4.7,1.7,7.1,3,7.1h1.7c1.2,0,1.8-0.8,1.8-2.4h0.6l0.6,0.6h0.6c-1.3,5.9-2.9,8.8-4.7,8.8
		h-1.2c-3.2-2.2-4.7-5.1-4.7-8.8v-3.5C593.6,160.1,595.4,156,596.6,156z M176.9,159.5c5.5,3.5,8.3,6.6,8.3,9.5
		c-1.6,3.6-3.2,5.8-4.7,6.5h-0.6c-1.2,0-3.6-1.4-7.1-4.2h-1.2l-5.3,6.5c-6.3-2.4-9.5-5.1-9.5-8.3c0-2.6,1.4-5.2,4.1-7.7h1.8l6.5,4.7
		h1.2l4.2-5.9L176.9,159.5z M432.2,160.7c6.7,2.4,10,5.6,10,9.5c-2,4.1-3.8,6.5-5.3,7.1h-0.6c-4-3.5-6.8-5.3-8.3-5.3h-0.6
		c-1.1,3.1-2.8,5.6-5.4,7.6c-6.3-3.2-9.5-6.1-9.5-8.8c1.5-4.3,3-6.8,4.7-7.7c4.9,2.8,8.2,4.2,10.1,4.2
		C429.6,163.2,431.1,161,432.2,160.7z M331.7,168.4h1.2l3.5,10.6c-0.6,5.9-2.9,8.8-7.1,8.8l-4.2-1.7c-3.5,2.7-5.9,4.1-7.1,4.1
		c-3.5,0-5.3-3.3-5.3-10v-4.2l1.2-1.2h0.6c0.5,5.9,1.9,8.9,4.2,8.9h0.6c2.4-1,3.5-2.6,3.5-4.7v-2.4l-0.6-2.4
		c0.5-2.4,1.1-3.5,1.8-3.5s1.5,2.5,2.3,7.6c1.7,1.6,3.3,2.4,4.7,2.4l1.2-2.4c-1.2-2-1.7-4-1.7-5.9v-2.9L331.7,168.4z M257.8,169v0.6
		l-1.2,6.5c0.6,7.1,2.4,10.6,5.4,10.6l2.9-3.5h0.6v1.8c0,3.2-1.8,5.9-5.4,8.3c-3.9-1.1-5.9-4.9-5.9-11.3v-1.2
		C255.3,172.9,256.4,169,257.8,169z M467.1,172h0.6c8.7,7.5,13,12,13,13.6l-1.8,1.2l-0.6-0.6h-1.2c-0.8,0-1.2,0.6-1.2,1.7
		c7.1,11.1,10.6,19.4,10.6,24.8c0,9.7-4.9,18.2-14.8,25.5c-1.6,2.4-2.4,4.7-2.4,7.1v2.4c0,10,5.1,16.1,15.4,18.3l3,0.6
		c14,0,30.6-11,49.7-33.1l1.2-3v-1.7l-1.2-1.2h-0.6l-17.1,2.9c-7.9-2-11.8-5.6-11.8-10.6c1.5-13.8,6.4-20.6,14.7-20.6
		c5,0.3,10.8,4.4,17.2,12.4l1.7,0.6c1.7,0,7.8-4.2,18.4-12.5h1.7c0.8,0,1.2,1.2,1.2,3.5h0.6l-0.6,0.6v0.6c0,6.3,4.2,10.2,12.5,11.8
		h1.7c8.1,0,14.6-6.1,19.5-18.3l2.4-1.8l0.6,0.6h0.6l-1.8,6.5v1.8c1.6,2.2,3.9,4,7.1,5.3h8.3l1.2-1.2v-0.6l-2.4-6.5l1.8-8.8h2.4
		c2.7,5.7,4.1,10.4,4.1,14.2v1.7c-1.3,9.1-5,13.6-11.2,13.6H606c-2.2,0-6.1-2.4-11.8-7.1H593c-5.7,8.2-12.2,12.4-19.5,12.4
		c-9.8-2.7-14.7-7.6-14.7-14.7h-1.8c-8.7,6.1-13,10.6-13,13.6c0,10-5.1,19.3-15.4,27.8c-14.2,15.8-28,23.6-41.4,23.6H486
		c-8.8,0-15.3-6.1-19.5-18.4l-0.6-5.3v-10.1c-1.4,0-8.7,4.7-21.8,14.2c-14.4,9.2-27.3,14.3-38.5,15.4c-9.4,2.8-15.4,4.2-18.3,4.2
		h-0.6v-0.6c1.2-1.6,10.3-6.1,27.2-13.6c23.2-11.8,45.3-27,66.2-45.6l0.6-2.9v-1.8l-11.8-23l-4.2-10.1
		C465.2,174.9,466,172,467.1,172z M442.9,181.4h1.7v2.9c0,3.4-2.9,9.5-8.8,18.4v1.7c7.9,6.2,11.8,11.5,11.8,16
		c0,10.3-4.3,17.2-13,20.6c-2.9,2.4-6.4,3.5-10.6,3.5c-3.9,0-6.3-3.9-7.1-11.8c0-5.6,1.8-12.7,5.3-21.3V211
		c-10.6-8-15.9-13.9-15.9-17.7l-0.6-2.4l1.2-4.7h2.4c9,3.6,13.8,5.7,14.2,6.5v0.6c0,1.2-0.8,1.7-2.4,1.7v1.8
		c2.2,2.5,4.8,3.8,7.7,4.1C430.8,199.3,435.5,192.8,442.9,181.4z M179.2,183.2c4.7,6.6,7.1,12.7,7.1,18.4
		c-1.5,11-6.6,16.6-15.4,16.6c-2,0-3,4.3-3,13c0,10.6-12.2,23.4-36.6,38.4c-12.3,6.3-22.8,10-31.5,11.1s-14.9,1.3-18.7,0.6
		c-2.3-0.3-2.5-0.9-0.6-1.8c5.1-2.3,9.8-4,13.9-5.2s12.6-4.4,25.3-9.7s25.1-13.7,37-25.1c5.1-4.5,7.6-8,7.6-10.6v-0.6
		c0-2.7-2.5-9-7.6-18.9l-0.6-4.1c0.5-2.8,1.3-4.2,2.4-4.2c4,4.7,6.4,7.1,7.1,7.1h2.4c5.7,0,9.8-1.6,12.5-4.7v-1.2l-4.2-11.2v-0.6
		C176.8,185.5,177.8,183.2,179.2,183.2z M290.9,190.3l0.6,0.6c-1.6,5.1-2.6,9.8-3,14.2c0.9,9.5,2.5,14.2,4.7,14.2h1.2
		c0.7,0,1.9-1.6,3.5-4.7h0.6v1.2c-0.9,8.7-2.9,13-5.9,13c-5.1-2.9-7.7-8-7.7-15.4C285,202.3,287,194.6,290.9,190.3z M120.1,192.1
		l1.2,1.2l-2.4,15.9v4.7c0,8.7,2.4,13,7.1,13c0.9,0,1.9-1.8,2.9-5.3l0.6-0.6h1.7l0.6,3.5c-1.1,7.1-3.7,10.6-7.7,10.6
		c-6.3-1.1-9.5-7-9.5-17.7C116.7,200.5,118.4,192.1,120.1,192.1z M332.3,193.3c4.4,1.8,7.9,4.9,10.6,9.5c0,1.9-1.8,4.5-5.3,7.6
		l-8.9-4.7h-0.6c-1.1,0-3.3,1.8-6.5,5.4h-0.6c-2.5,0-5.5-2.2-8.9-6.5v-1.2c0-2.6,1.8-5.2,5.4-7.6c1.9,0.4,4.7,1.9,8.3,4.7
		L332.3,193.3z M205.8,202.7c0,27.8,4.5,43.7,13.6,47.8c2.6,1.2,5.6,1.8,8.8,1.8c9.8-2.7,17.3-7.4,22.5-14.2v-0.6
		c-3-9.8-17.4-21.4-43.1-34.8H205.8z M515.5,216.9l4.2,1.2h2.4l5.9-0.6v-1.7c-1.8-2.8-4.2-4.2-7.1-4.2
		C517.3,212.5,515.5,214.3,515.5,216.9z M421,228.7c0,2.5,2,3.8,5.9,4.1c4.1,0,9-2.9,14.8-8.8v-1.2c-5.4-5.1-9.7-7.7-13-7.7h-0.6
		C423.3,220.2,421,224.8,421,228.7z M607.8,237v1.7c0,6.3-2.5,10.4-7.6,12.5l-5.9-0.6c-3.5,2.4-6.1,3.5-7.7,3.5l-5.3-2.4h-2.4
		c-2,0-10.5,5.1-25.5,15.4l-5.9,1.2h-0.6v-0.6l28.9-20.7l5.4-1.7c3.4,1.6,6,2.4,7.6,2.4h1.8c3.9-3.2,5.9-5.3,5.9-6.5h0.6
		c1.5,2,3.1,3,4.7,3h1.2c0.8,0,1.8-2.2,3-6.5l0.6-0.6H607.8z M184,242.3h1.2v0.6l-1.8,14.2c1.5,5.5,3.3,8.3,5.4,8.3l3.5-3.5h0.6
		c0,5.1-1.8,8.7-5.3,10.6c-3.4,0-5.7-3.5-7.1-10.6C180.4,255.5,181.6,249,184,242.3z M323.5,248.2h0.6l-2.4,10.1c0,4.3,1,6.5,3,6.5
		l2.9-1.2v0.6c-0.8,5.1-2.4,7.6-4.7,7.6c-3.2-0.9-4.7-4.3-4.7-10C319.4,254.6,321.2,250,323.5,248.2z M272,251.7h0.6l-1.8,11.3v0.6
		c0.5,3.9,1.3,5.9,2.4,5.9h1.8c1,0,1.8-1.4,2.4-4.1h1.7v1.7c0,5-2,8-5.9,8.9c-3.9-1.4-5.9-4.1-5.9-8.3v-1.2
		C267.3,260.7,268.8,255.8,272,251.7z M171,263.6h0.6l1.2,1.2v0.6c0,2.6-10,7.1-30.1,13.6h-1.2v-1.2
		C141.7,275.8,151.6,271,171,263.6z"/>
</g>
</svg>
