<?xml version="1.0" encoding="utf-8"?>
<!-- Generator: Adobe Illustrator 25.2.3, SVG Export Plug-In . SVG Version: 6.00 Build 0)  -->
<svg version="1.1" xmlns="http://www.w3.org/2000/svg" xmlns:xlink="http://www.w3.org/1999/xlink" x="0px" y="0px"
	 viewBox="0 0 700 395" style="enable-background:new 0 0 700 395;" xml:space="preserve">
<style type="text/css">
	.st0{fill:#000222;}
	.st1{fill:#FFFFFF;}
</style>
<g id="Layer_1">
	<rect class="st0" width="700" height="395"/>
</g>
<g id="Layer_3">
	<g>
		<path class="st1" d="M273.5,368.6l1.1,4.2c0.2,0.9,0.5,1.8,0.6,2.6h0.1c0.2-0.8,0.5-1.7,0.7-2.6l1.3-4.2h1.3l1.3,4.1
			c0.3,1,0.5,1.9,0.7,2.7h0.1c0.1-0.8,0.4-1.7,0.6-2.7l1.2-4.1h1.5l-2.7,8.2H280l-1.3-3.9c-0.3-0.9-0.5-1.7-0.7-2.7h0
			c-0.2,1-0.5,1.8-0.7,2.7l-1.3,3.9h-1.4l-2.5-8.2H273.5z"/>
		<path class="st1" d="M286.3,368.6l1.1,4.2c0.2,0.9,0.5,1.8,0.6,2.6h0.1c0.2-0.8,0.5-1.7,0.7-2.6l1.3-4.2h1.3l1.3,4.1
			c0.3,1,0.5,1.9,0.7,2.7h0.1c0.1-0.8,0.4-1.7,0.6-2.7l1.2-4.1h1.5l-2.7,8.2h-1.4l-1.3-3.9c-0.3-0.9-0.5-1.7-0.7-2.7h0
			c-0.2,1-0.5,1.8-0.7,2.7l-1.3,3.9h-1.4l-2.5-8.2H286.3z"/>
		<path class="st1" d="M299,368.6l1.1,4.2c0.2,0.9,0.5,1.8,0.6,2.6h0.1c0.2-0.8,0.5-1.7,0.7-2.6l1.3-4.2h1.3l1.3,4.1
			c0.3,1,0.5,1.9,0.7,2.7h0.1c0.1-0.8,0.4-1.7,0.6-2.7l1.2-4.1h1.5l-2.7,8.2h-1.4l-1.3-3.9c-0.3-0.9-0.5-1.7-0.7-2.7h0
			c-0.2,1-0.5,1.8-0.7,2.7l-1.3,3.9h-1.4l-2.5-8.2H299z"/>
		<path class="st1" d="M309.9,375.9c0-0.6,0.4-1.1,1-1.1c0.6,0,1,0.4,1,1.1c0,0.6-0.4,1.1-1,1.1C310.3,377,309.9,376.5,309.9,375.9z
			"/>
		<path class="st1" d="M313.5,375.3c0.4,0.3,1.2,0.6,2,0.6c1.1,0,1.6-0.5,1.6-1.2c0-0.7-0.4-1.1-1.5-1.5c-1.5-0.5-2.2-1.3-2.2-2.3
			c0-1.3,1.1-2.4,2.8-2.4c0.8,0,1.6,0.2,2,0.5l-0.4,1.1c-0.3-0.2-0.9-0.5-1.7-0.5c-0.9,0-1.4,0.5-1.4,1.1c0,0.7,0.5,1,1.6,1.4
			c1.4,0.5,2.2,1.3,2.2,2.5c0,1.4-1.1,2.5-3.1,2.5c-0.9,0-1.7-0.2-2.3-0.6L313.5,375.3z"/>
		<path class="st1" d="M327.4,374.6c0,0.9,0,1.6,0.1,2.2h-1.3l-0.1-1.3h0c-0.4,0.7-1.3,1.5-2.7,1.5c-1.3,0-2.8-0.7-2.8-3.6v-4.8h1.5
			v4.6c0,1.6,0.5,2.6,1.8,2.6c1,0,1.7-0.7,2-1.4c0.1-0.2,0.1-0.5,0.1-0.8v-5h1.5V374.6z"/>
		<path class="st1" d="M329.8,371.1c0-1,0-1.8-0.1-2.6h1.3l0.1,1.6h0.1c0.4-1.1,1.3-1.8,2.3-1.8c0.2,0,0.3,0,0.4,0.1v1.4
			c-0.2,0-0.3-0.1-0.5-0.1c-1.1,0-1.8,0.8-2,1.9c0,0.2-0.1,0.4-0.1,0.7v4.4h-1.5V371.1z"/>
		<path class="st1" d="M339.9,376.8l-0.1-1h-0.1c-0.5,0.6-1.3,1.2-2.5,1.2c-1.7,0-2.5-1.2-2.5-2.4c0-2,1.8-3.1,4.9-3.1v-0.2
			c0-0.7-0.2-1.9-1.9-1.9c-0.8,0-1.6,0.2-2.1,0.6l-0.3-1c0.7-0.4,1.7-0.7,2.7-0.7c2.5,0,3.1,1.7,3.1,3.4v3.1c0,0.7,0,1.4,0.1,2
			H339.9z M339.7,372.6c-1.6,0-3.5,0.3-3.5,1.9c0,1,0.6,1.4,1.4,1.4c1.1,0,1.8-0.7,2-1.4c0.1-0.2,0.1-0.3,0.1-0.5V372.6z"/>
		<path class="st1" d="M343.5,364.7h1.5v5.1h0c0.2-0.4,0.6-0.8,1.1-1.1c0.4-0.3,1-0.4,1.5-0.4c1.1,0,2.9,0.7,2.9,3.5v4.9H349v-4.7
			c0-1.3-0.5-2.4-1.9-2.4c-1,0-1.7,0.7-2,1.5c-0.1,0.2-0.1,0.4-0.1,0.7v5h-1.5V364.7z"/>
		<path class="st1" d="M358.6,375.5L358.6,375.5c-0.5,0.8-1.4,1.5-2.7,1.5c-1.9,0-3.5-1.7-3.5-4.2c0-3.1,2-4.4,3.7-4.4
			c1.3,0,2.1,0.6,2.5,1.4h0l0.1-1.2h1.4c0,0.7-0.1,1.4-0.1,2.3v9.3h-1.5V375.5z M358.6,371.9c0-0.2,0-0.4-0.1-0.6
			c-0.2-0.9-1-1.7-2.1-1.7c-1.5,0-2.5,1.3-2.5,3.2c0,1.6,0.8,3.1,2.4,3.1c1,0,1.8-0.6,2.1-1.6c0.1-0.2,0.1-0.5,0.1-0.7V371.9z"/>
		<path class="st1" d="M369.4,374.6c0,0.9,0,1.6,0.1,2.2h-1.3l-0.1-1.3h0c-0.4,0.7-1.3,1.5-2.7,1.5c-1.3,0-2.8-0.7-2.8-3.6v-4.8h1.5
			v4.6c0,1.6,0.5,2.6,1.8,2.6c1,0,1.7-0.7,2-1.4c0.1-0.2,0.1-0.5,0.1-0.8v-5h1.5V374.6z"/>
		<path class="st1" d="M371.9,371.1c0-1,0-1.8-0.1-2.6h1.3l0.1,1.6h0.1c0.4-1.1,1.3-1.8,2.3-1.8c0.2,0,0.3,0,0.4,0.1v1.4
			c-0.2,0-0.3-0.1-0.5-0.1c-1.1,0-1.8,0.8-2,1.9c0,0.2-0.1,0.4-0.1,0.7v4.4h-1.5V371.1z"/>
		<path class="st1" d="M381.9,376.8l-0.1-1h-0.1c-0.5,0.6-1.3,1.2-2.5,1.2c-1.7,0-2.5-1.2-2.5-2.4c0-2,1.8-3.1,4.9-3.1v-0.2
			c0-0.7-0.2-1.9-1.9-1.9c-0.8,0-1.6,0.2-2.1,0.6l-0.3-1c0.7-0.4,1.7-0.7,2.7-0.7c2.5,0,3.1,1.7,3.1,3.4v3.1c0,0.7,0,1.4,0.1,2
			H381.9z M381.7,372.6c-1.6,0-3.5,0.3-3.5,1.9c0,1,0.6,1.4,1.4,1.4c1.1,0,1.8-0.7,2-1.4c0.1-0.2,0.1-0.3,0.1-0.5V372.6z"/>
		<path class="st1" d="M385.6,370.8c0-0.9,0-1.5-0.1-2.2h1.3l0.1,1.4h0c0.4-0.8,1.4-1.5,2.7-1.5c1.1,0,2.9,0.7,2.9,3.5v4.9h-1.5
			v-4.7c0-1.3-0.5-2.4-1.9-2.4c-1,0-1.8,0.7-2,1.5c-0.1,0.2-0.1,0.4-0.1,0.7v4.9h-1.5V370.8z"/>
		<path class="st1" d="M394.6,375.9c0-0.6,0.4-1.1,1-1.1c0.6,0,1,0.4,1,1.1c0,0.6-0.4,1.1-1,1.1C395,377,394.6,376.5,394.6,375.9z"
			/>
		<path class="st1" d="M404.4,376.5c-0.4,0.2-1.3,0.5-2.4,0.5c-2.5,0-4.1-1.7-4.1-4.2c0-2.5,1.7-4.4,4.4-4.4c0.9,0,1.7,0.2,2.1,0.4
			l-0.3,1.2c-0.4-0.2-0.9-0.4-1.7-0.4c-1.9,0-2.9,1.4-2.9,3.1c0,1.9,1.2,3.1,2.9,3.1c0.8,0,1.4-0.2,1.8-0.4L404.4,376.5z"/>
		<path class="st1" d="M413.5,372.6c0,3-2.1,4.4-4.1,4.4c-2.2,0-3.9-1.6-3.9-4.2c0-2.8,1.8-4.4,4.1-4.4
			C411.9,368.4,413.5,370.1,413.5,372.6z M406.9,372.7c0,1.8,1,3.2,2.5,3.2c1.4,0,2.5-1.3,2.5-3.2c0-1.4-0.7-3.2-2.5-3.2
			S406.9,371.1,406.9,372.7z"/>
		<path class="st1" d="M415.4,370.8c0-0.9,0-1.5-0.1-2.2h1.3l0.1,1.3h0.1c0.5-0.8,1.2-1.5,2.6-1.5c1.1,0,2,0.7,2.3,1.6h0
			c0.3-0.5,0.6-0.8,0.9-1.1c0.5-0.4,1-0.6,1.8-0.6c1.1,0,2.7,0.7,2.7,3.6v4.8h-1.5v-4.7c0-1.6-0.6-2.5-1.8-2.5
			c-0.9,0-1.5,0.6-1.8,1.4c-0.1,0.2-0.1,0.5-0.1,0.7v5.1h-1.5v-4.9c0-1.3-0.6-2.3-1.7-2.3c-0.9,0-1.6,0.7-1.9,1.5
			c-0.1,0.2-0.1,0.5-0.1,0.7v5h-1.5V370.8z"/>
	</g>
</g>
<g id="Layer_4">
	<path class="st1" d="M570.8,111.1h2.4c2.8,1.9,4.2,4.6,4.2,7.9l-1.8,2.4h-0.6c-2.4-2.1-4.2-3.1-5.4-3.1c-2.4,0-3.6,4.9-3.6,14.6
		c-0.6,11.8-1.8,17.7-3.6,17.7c-5.5-11.8-10.8-17.7-15.8-17.7c-3.7-2-5.5-4.2-5.5-6.7v-0.6c0-2.2,1-3.8,3.1-4.9
		c3.1,0,8.9,5.3,17.6,15.8c1.2-10.3,2.4-16.8,3.6-19.5C568.2,113.3,570,111.3,570.8,111.1z M441.2,112.3c2.9,1.2,4.3,3.3,4.3,6.1
		v1.9l-0.6,9.1c4.1,3.2,6.1,6,6.1,8.5c-0.6,1.6-1.2,2.4-1.8,2.4c-4.3-2.8-7.1-4.2-8.5-4.2c-8.3,9.2-16.6,15.7-25,19.5l-5.4,1.8h-0.6
		v-1.2c12.1-8.1,21.2-15.4,27.4-21.9l-3.6-7.3l-0.6-1.8C432.7,120,435.6,115.7,441.2,112.3z M617.1,112.3c2.9,0,4.5,6.1,4.9,18.2
		c2.8,2,4.2,4.2,4.2,6.7v0.6c0,0.8-0.6,1.2-1.8,1.2l-4.9-1.8c-1.7,0-4.7,2.4-9.2,7.3c-7.2,7.3-19.2,14.8-35.8,22.5h-3.1v-0.6
		c0.4-1.1,8.8-6.6,25-16.5c11.7-7.7,17.6-12.9,17.6-15.8c-3.7-4.1-5.8-7.1-6.1-9.1C610,116.6,613,112.3,617.1,112.3z M393.8,113.6
		c4.3,7,8.3,16.5,12.2,28.6l-0.6,1.8h-1.2l-3.6-3h-1.2c6.1,53.6,9.1,85.1,9.1,94.4s-1.8,16.4-5.4,21.1l-0.6-0.6v-6.1
		c0-9.1-3.8-50.9-11.5-125.3l-1.2-1.8C391.1,117.3,392.5,114.3,393.8,113.6z M521,114.2l0.6,1.8c0,3.7-10.9,11.2-32.8,22.5
		L468,151.9h-1.8v-1.2c0-4.1,4.5-8.1,13.4-12.2C486.9,133.2,500.7,125.1,521,114.2z M362.8,115.4h1.2c1.1,0.9,4.9,10.2,11.5,28
		l-0.6,2.4h-1.9l-3-2.4h-0.6v1.8l7.9,78.5l0.6,6.7c0,13.8-4.2,22.6-12.7,26.2c-3.1,1.7-8.6,3.1-16.5,4.2c-6.1,0-11.7-3.2-17-9.7
		h-1.2c-15.4,7.3-29.4,10.9-41.9,10.9l-0.6,0.6h-0.6c-14.9,0-24.9-5.9-29.8-17.7c-2.7-7.9-5.9-37.7-9.7-89.4
		c-2-13.6-3.8-22.5-5.4-26.8l3.6-10.4h0.6c2.6,0,5.4,17.8,8.5,53.5l2.4,27.4h0.6l-0.6,0.6c0,21.7,3.5,36.5,10.4,44.4
		c5.5,4.1,12.4,6.1,20.7,6.1c13.4,0,26.4-3.2,38.9-9.7v-0.6c-0.6-5.7-1.3-8.5-1.9-8.5c2.1-14.6,4.9-21.9,8.5-21.9c1-2,2.6-3,4.9-3
		c4.4,0,8.1,4.2,10.9,12.7v5.5c0,6.5-3.2,13.2-9.7,20c1.1,2.4,4.7,3.6,10.9,3.6c13.8-2.5,20.7-6,20.7-10.3l-12.7-113.8L362.8,115.4z
		 M298.3,116.6c1.7,0,3.9,2,6.7,6.1c-0.7,2-1.7,3-3,3l-4.9-1.8h-1.2c-1.4,0-2.4,6.9-3.1,20.7c-0.5,0-0.9,1.2-1.2,3.6H291
		c-5.8-11-11.7-16.5-17.7-16.5l-2.4-3v-3.1c0.3-2.4,0.9-3.6,1.9-3.6c4.1,0,9.8,4.5,17,13.4C292.3,122.9,295.1,116.6,298.3,116.6z
		 M611.6,121.5c0.7,3.6,2.7,5.4,6.1,5.4h0.6v-4.9c-1.2-2-2.4-3-3.6-3C612.7,119.9,611.7,120.7,611.6,121.5z M437,121.5
		c0,2.8,1.4,4.2,4.2,4.2h0.6v-1.8c0-2.1-0.6-3.3-1.9-3.6h-1.8L437,121.5z M124.9,120.9c2.1,0,4.1,2,6.1,6.1c0,1.6-1,2.4-3,2.4v0.6
		l-5.5-1.9l-1.2,3.6v3.1c0,8.2-0.8,14.5-2.4,18.8h-0.6l-8.5-12.2c-8.7-3.4-13.2-6.2-13.4-8.5l-0.6-1.8c0.5-2.9,1.4-4.3,2.4-4.3h1.2
		c3.4,0,9.2,5.1,17.7,15.2h1.2v-10.4C118.3,125.5,120.5,121.8,124.9,120.9z M211.3,120.9c1.4,0.4,2.2,1.2,2.4,2.4
		c0,2.8-6.1,6-18.2,9.7c-38.7,17.4-60.2,29.4-64.5,35.9v0.6c0,1.5,0.8,3.1,2.4,4.9v2.4l-1.2,1.2c-3.2,0-4.9-2.6-4.9-7.9
		C127.4,159.2,155.4,142.8,211.3,120.9z M71.4,135.5l-1.2,8.5v4.9c0,3.2,1.4,4.9,4.3,4.9l2.4-1.8h0.6v0.6c0,3.7-1.4,6.5-4.2,8.5
		h-1.9c-2.2,0-3.8-3.6-4.9-10.9C68.4,140.3,70,135.5,71.4,135.5z M354.9,135.5l0.6,0.6v0.6c0,3.4-5.5,6.9-16.5,10.4L314.2,158
		c-6.1,3.6-14.8,7.9-26.2,12.7c-8.9,3.9-13.4,7.6-13.4,10.9c3.7,2.2,5.5,4.6,5.5,7.3c-0.4,1.6-1.2,2.4-2.4,2.4
		c-4.5-2.6-6.7-5.5-6.7-8.5c0-7.9,8.7-15.4,26.2-22.5C322.6,148,341.9,139.7,354.9,135.5z M220.5,136.7h1.2l-3.6,12.2v6.1
		c0,5.3,1.8,7.9,5.4,7.9h0.6l3.6-3.6v0.6c-1.3,6.9-3.1,10.4-5.5,10.4c-5.2-1.2-7.9-4.7-7.9-10.4v-3.6
		C215.6,149.4,217.6,142.9,220.5,136.7z M528.3,151.3h0.6l-2.4,8.5v3.1c0.4,6.1,1.6,9.1,3.6,9.1h1.9c0.6,0,1.4-1.6,2.4-4.9h0.6
		l0.6,0.6v0.6c-1.1,7.3-2.8,10.9-4.9,10.9H530c-4.9-1.1-7.3-4.9-7.3-11.5C522.8,163.2,524.6,157.7,528.3,151.3z M617.6,155.6h0.6
		l0.6,0.6h0.6l-3.1,7.3v4.9c0,3.2,1,5.2,3.1,6.1h1.2l3-2.4l0.6,0.6v0.6c-1.7,5.3-3.3,7.9-4.9,7.9h-0.6c-3.6,0-5.4-2.6-5.4-7.7
		C613.4,168.3,614.8,162.4,617.6,155.6z M450.4,156.1c6.1,3.5,9.1,6.9,9.1,10.4c-2,4.6-3.6,7-4.9,7.3c-5.2-3.7-8.4-5.5-9.7-5.5
		c-2.8,4.9-4.8,7.3-6.1,7.3c-6.3-3.5-9.5-6.1-9.7-7.9c1.8-6.1,3.8-9.2,6.1-9.2l7.9,4.9l6.7-7.3H450.4z M485.7,169.5
		c8.7,7.8,13.2,12.5,13.4,14c-3.2,0.2-4.9,1-4.9,2.4c6.5,10.8,9.7,18.5,9.7,23.1v1.8c0,11-4.7,19.5-14,25.5
		c-2.4,2.4-3.6,5.1-3.6,7.9v6.1c2.8,10.5,8,15.8,15.8,15.8h8.5c10.4,0,25.8-10.8,46.2-32.3l1.2-3.6c-0.4-1.6-1.6-2.4-3.6-2.4
		c-5.9,1.6-10.5,2.4-13.9,2.4c-9.4,0-14-4.2-14-12.7c2.5-12.6,7.4-18.9,14.6-18.9c5.5,0,11.8,4.7,18.9,14h2.4
		c12-8.5,18.7-12.8,20-12.8l1.9,2.4l-0.6,0.6v4.9c0,4.9,4.3,8.2,12.8,9.7c9.6,0,16.5-5.5,20.7-16.5c1.7-2.8,2.9-4.2,3.6-4.2h0.6
		l0.6,0.6h0.6c-2,4.5-3,7.5-3,9.2c4,4,8.1,6,12.2,6.1h3.6c1.6-0.8,2.4-1.8,2.4-3.1l-3.6-6.1l2.4-9.1h1.2c2.2,0,4,4.6,5.4,13.9
		c-1.1,11-5.2,16.5-12.2,16.5h-0.6c-5.3,0-10.4-2.6-15.2-7.9l-7.9,7.9c-4.1,2.6-7.9,4.1-11.6,4.2H594c-7.3,0-12.4-4.9-15.2-14.6V214
		h-1.8c-8.8,6.5-13.3,10.7-13.4,12.7c0,16.5-14.8,32.9-44.4,49.3l-12.2,2.4h-3c-10.2,0-17.3-6.3-21.3-18.9l-0.6-5.4l0.6-9.7
		l-0.6-0.6h-1.2c-21.1,15.7-39,24.8-53.5,27.4l-25.5,4.9h-1.9v-0.6c1.5-1.5,13.3-6.7,35.3-15.8c20-10.1,39.2-22.7,57.8-37.7
		c4.1-3.8,6.1-6.8,6.1-9.1c-6.8-11.5-12.3-23.3-16.5-35.3C483.6,172.2,484.7,169.5,485.7,169.5z M64.8,175v1.2h0.6
		c-3.2,10.9-4.9,18.2-4.9,21.9v3.6c0,4.4,1.8,8.1,5.5,10.9h1.8c1.2-0.2,2.4-2.2,3.6-6.1h0.6l1.2,1.2v0.6c0,7-2.8,11.8-8.5,14.6
		l-0.6,0.6v0.6c0,17.5,5.1,28.9,15.2,34.1l6.1,0.6c3.7-1.9,8.1-11.4,13.4-28.6c7.6-12.5,14.3-18.8,20-18.8c3.5,0,6.8,4.2,9.7,12.7
		c6.2,7.7,13.3,11.6,21.3,11.6h3c0-0.9-2.8-5.6-8.5-14c-2-5.8-3-10-3-12.7v-1.9c0-13.2,7.1-22.2,21.2-26.8l6.7-1.2
		c10.7,0,19.2,2.6,25.5,7.9v1.8l-10.9-2.4c-13.1,0-24.9,3.9-35.3,11.6l-0.6,0.6v4.9c0,7.3,5.1,15.2,15.2,23.8
		c4.1,1.2,7.8,1.8,10.9,1.8c5.9,0,17.7-6.9,35.3-20.7h0.6l0.6,1.9c0,9.2-14.8,20.7-44.4,34.6c-6.5,2.1-12.6,3.1-18.2,3.1
		c-11.1,0-20.4-7.9-28-23.8l-0.6-0.6h-1.9c-5.5,0-11.1,5.7-17,17c-5.5,19.8-11.2,29.8-17,29.8h-1.2c-5.6,0-11.3-5.9-17-17.6
		c-2.4-6.9-4.1-14.4-4.9-22.5l0.6-0.6v-2.4l-0.6-0.6l0.6-0.6v-5.5c-2.9-6.5-4.3-11.4-4.3-14.6v-3.6c0-6.6,2.2-15.7,6.7-27.3H64.8z
		 M112.8,177.5c2.4,0.8,5.3,3.2,8.5,7.3v3c-2.3,4.1-4.1,6.1-5.4,6.1l-7.9-4.9l-4.9,6.1c-2.9-1-5.9-3.5-9.1-7.3v-3l4.2-6.1h1.9
		l6.7,4.9L112.8,177.5z M461.4,178h0.6v0.6c0,5.4-3.2,12.7-9.7,21.9v1.2c8.1,6.9,12.2,12.3,12.2,16.4c0,12.7-7.9,21-23.7,25
		c-4.2,0-7.1-3.1-8.5-9.2c0-7.5,2-16,6.1-25.5v-0.6c-11-8.8-16.5-15.1-16.5-18.9v-1.2c0-3,0.6-4.6,1.9-4.9c10.5,3,15.8,5.2,15.8,6.7
		v0.6l-1.9,2.4v1.2c3,2.9,5.4,4.3,7.3,4.3C445.6,198.1,451.1,191.4,461.4,178z M337.8,179.9c1.9,0,5.2,3,9.7,9.1
		c-1.5,3.6-3.7,6.3-6.7,7.9c-5.1-4.5-8.3-6.7-9.7-6.7l-5.5,6.1c-5.7-2.7-8.5-5.5-8.5-8.5c0-1.9,1.6-4.3,4.9-7.3
		c1.4,0,4.2,1.8,8.5,5.5h1.2L337.8,179.9z M222.9,186.6c6.2,5.7,10.5,10.4,12.7,14v1.8l-4.2-0.6l-0.6,0.6v0.6
		c5.3,10.2,7.9,16.9,7.9,20v6.1c0,13.1-16.8,27.5-50.5,43.2c-7,3.5-23.4,7.4-49.2,11.5l-1.2-1.2c1.4-1.2,16.6-7.5,45.6-18.8
		c13.4-6.8,22.1-11.6,26.2-14.6c7.6-3.5,15.7-10,24.3-19.5v-1.9c-9.4-20.1-14-30.8-14-32.2C220.5,189.6,221.6,186.6,222.9,186.6z
		 M298.9,198.7l0.6,0.6h0.6c-2.4,9.8-3.6,16.3-3.6,19.5c0,4.9,2,7.7,6.1,8.5l3.6-4.9l0.6,0.6v0.6c-0.8,8.9-3.1,13.4-6.7,13.4
		c-4.9-2.4-7.3-7.4-7.3-15S294.8,206.7,298.9,198.7z M534.3,215.2v0.6c0,1.1,2,1.9,6.1,2.4h0.6c4.5,0,6.7-0.6,6.7-1.8v-0.6
		c-1.5-2.4-3.3-3.6-5.5-3.6h-4.9L534.3,215.2z M437,226.1c0,2.2,1,3.8,3,4.9h3.6c9.7-3.8,14.6-7.2,14.6-10.4
		c-5.3-4.6-9.8-7.2-13.4-7.9c-2.8,0-5.4,4.2-7.9,12.7V226.1z M330.5,227.3c1.3,6.1,2.9,9.1,4.9,9.1c5-2.6,8.3-5.4,9.7-8.5
		c-1.6-6.1-4.5-9.1-8.5-9.1h-0.6C332.4,220.9,330.5,223.7,330.5,227.3z M627.4,239.5h1.2v1.2h0.6c-2.2,8.5-4.6,12.7-7.3,12.7h-1.9
		l-4.2-1.2c-4.1,2.9-7.4,4.3-9.7,4.3l-6.1-2.4h-1.2c-2.4,0-10.8,4.6-25,13.9l-7.9,2.4l-0.6-0.6v-0.6l30.4-20l6.1-1.9l6.7,2.4h1.2
		c2.4,0,5.2-2.2,8.5-6.7c0.5,1.7,1.5,2.9,3,3.6h2.4C624.7,246.8,625.9,244.4,627.4,239.5z M137.1,257.1l0.6,1.9
		c0,2.7-2.2,4.3-6.7,4.9c-14.6,7.3-23.5,10.9-26.8,10.9l-0.6-0.6v-0.6C105.3,269.8,116.4,264.3,137.1,257.1z M250.9,257.8v0.6
		c0,3.7-3.5,6.3-10.4,7.9c-12.1,6.1-19,9.1-20.7,9.1c-0.8,0-1.2-0.6-1.2-1.8c0-2.8,10.4-8.1,31.1-15.8H250.9z"/>
</g>
</svg>
