<?xml version="1.0" encoding="utf-8"?>
<!-- Generator: Adobe Illustrator 25.2.3, SVG Export Plug-In . SVG Version: 6.00 Build 0)  -->
<svg version="1.1" xmlns="http://www.w3.org/2000/svg" xmlns:xlink="http://www.w3.org/1999/xlink" x="0px" y="0px"
	 viewBox="0 0 700 395" style="enable-background:new 0 0 700 395;" xml:space="preserve">
<style type="text/css">
	.st0{fill:#000222;}
	.st1{fill:#FFFFFF;}
</style>
<g id="Layer_1">
	<rect class="st0" width="700" height="395"/>
</g>
<g id="Layer_3">
	<g>
		<path class="st1" d="M273.5,368.6l1.1,4.2c0.2,0.9,0.5,1.8,0.6,2.6h0.1c0.2-0.8,0.5-1.7,0.7-2.6l1.3-4.2h1.3l1.3,4.1
			c0.3,1,0.5,1.9,0.7,2.7h0.1c0.1-0.8,0.4-1.7,0.6-2.7l1.2-4.1h1.5l-2.7,8.2H280l-1.3-3.9c-0.3-0.9-0.5-1.7-0.7-2.7h0
			c-0.2,1-0.5,1.8-0.7,2.7l-1.3,3.9h-1.4l-2.5-8.2H273.5z"/>
		<path class="st1" d="M286.3,368.6l1.1,4.2c0.2,0.9,0.5,1.8,0.6,2.6h0.1c0.2-0.8,0.5-1.7,0.7-2.6l1.3-4.2h1.3l1.3,4.1
			c0.3,1,0.5,1.9,0.7,2.7h0.1c0.1-0.8,0.4-1.7,0.6-2.7l1.2-4.1h1.5l-2.7,8.2h-1.4l-1.3-3.9c-0.3-0.9-0.5-1.7-0.7-2.7h0
			c-0.2,1-0.5,1.8-0.7,2.7l-1.3,3.9h-1.4l-2.5-8.2H286.3z"/>
		<path class="st1" d="M299,368.6l1.1,4.2c0.2,0.9,0.5,1.8,0.6,2.6h0.1c0.2-0.8,0.5-1.7,0.7-2.6l1.3-4.2h1.3l1.3,4.1
			c0.3,1,0.5,1.9,0.7,2.7h0.1c0.1-0.8,0.4-1.7,0.6-2.7l1.2-4.1h1.5l-2.7,8.2h-1.4l-1.3-3.9c-0.3-0.9-0.5-1.7-0.7-2.7h0
			c-0.2,1-0.5,1.8-0.7,2.7l-1.3,3.9h-1.4l-2.5-8.2H299z"/>
		<path class="st1" d="M309.9,375.9c0-0.6,0.4-1.1,1-1.1c0.6,0,1,0.4,1,1.1c0,0.6-0.4,1.1-1,1.1C310.3,377,309.9,376.5,309.9,375.9z
			"/>
		<path class="st1" d="M313.5,375.3c0.4,0.3,1.2,0.6,2,0.6c1.1,0,1.6-0.5,1.6-1.2c0-0.7-0.4-1.1-1.5-1.5c-1.5-0.5-2.2-1.3-2.2-2.3
			c0-1.3,1.1-2.4,2.8-2.4c0.8,0,1.6,0.2,2,0.5l-0.4,1.1c-0.3-0.2-0.9-0.5-1.7-0.5c-0.9,0-1.4,0.5-1.4,1.1c0,0.7,0.5,1,1.6,1.4
			c1.4,0.5,2.2,1.3,2.2,2.5c0,1.4-1.1,2.5-3.1,2.5c-0.9,0-1.7-0.2-2.3-0.6L313.5,375.3z"/>
		<path class="st1" d="M327.4,374.6c0,0.9,0,1.6,0.1,2.2h-1.3l-0.1-1.3h0c-0.4,0.7-1.3,1.5-2.7,1.5c-1.3,0-2.8-0.7-2.8-3.6v-4.8h1.5
			v4.6c0,1.6,0.5,2.6,1.8,2.6c1,0,1.7-0.7,2-1.4c0.1-0.2,0.1-0.5,0.1-0.8v-5h1.5V374.6z"/>
		<path class="st1" d="M329.8,371.1c0-1,0-1.8-0.1-2.6h1.3l0.1,1.6h0.1c0.4-1.1,1.3-1.8,2.3-1.8c0.2,0,0.3,0,0.4,0.1v1.4
			c-0.2,0-0.3-0.1-0.5-0.1c-1.1,0-1.8,0.8-2,1.9c0,0.2-0.1,0.4-0.1,0.7v4.4h-1.5V371.1z"/>
		<path class="st1" d="M339.9,376.8l-0.1-1h-0.1c-0.5,0.6-1.3,1.2-2.5,1.2c-1.7,0-2.5-1.2-2.5-2.4c0-2,1.8-3.1,4.9-3.1v-0.2
			c0-0.7-0.2-1.9-1.9-1.9c-0.8,0-1.6,0.2-2.1,0.6l-0.3-1c0.7-0.4,1.7-0.7,2.7-0.7c2.5,0,3.1,1.7,3.1,3.4v3.1c0,0.7,0,1.4,0.1,2
			H339.9z M339.7,372.6c-1.6,0-3.5,0.3-3.5,1.9c0,1,0.6,1.4,1.4,1.4c1.1,0,1.8-0.7,2-1.4c0.1-0.2,0.1-0.3,0.1-0.5V372.6z"/>
		<path class="st1" d="M343.5,364.7h1.5v5.1h0c0.2-0.4,0.6-0.8,1.1-1.1c0.4-0.3,1-0.4,1.5-0.4c1.1,0,2.9,0.7,2.9,3.5v4.9H349v-4.7
			c0-1.3-0.5-2.4-1.9-2.4c-1,0-1.7,0.7-2,1.5c-0.1,0.2-0.1,0.4-0.1,0.7v5h-1.5V364.7z"/>
		<path class="st1" d="M358.6,375.5L358.6,375.5c-0.5,0.8-1.4,1.5-2.7,1.5c-1.9,0-3.5-1.7-3.5-4.2c0-3.1,2-4.4,3.7-4.4
			c1.3,0,2.1,0.6,2.5,1.4h0l0.1-1.2h1.4c0,0.7-0.1,1.4-0.1,2.3v9.3h-1.5V375.5z M358.6,371.9c0-0.2,0-0.4-0.1-0.6
			c-0.2-0.9-1-1.7-2.1-1.7c-1.5,0-2.5,1.3-2.5,3.2c0,1.6,0.8,3.1,2.4,3.1c1,0,1.8-0.6,2.1-1.6c0.1-0.2,0.1-0.5,0.1-0.7V371.9z"/>
		<path class="st1" d="M369.4,374.6c0,0.9,0,1.6,0.1,2.2h-1.3l-0.1-1.3h0c-0.4,0.7-1.3,1.5-2.7,1.5c-1.3,0-2.8-0.7-2.8-3.6v-4.8h1.5
			v4.6c0,1.6,0.5,2.6,1.8,2.6c1,0,1.7-0.7,2-1.4c0.1-0.2,0.1-0.5,0.1-0.8v-5h1.5V374.6z"/>
		<path class="st1" d="M371.9,371.1c0-1,0-1.8-0.1-2.6h1.3l0.1,1.6h0.1c0.4-1.1,1.3-1.8,2.3-1.8c0.2,0,0.3,0,0.4,0.1v1.4
			c-0.2,0-0.3-0.1-0.5-0.1c-1.1,0-1.8,0.8-2,1.9c0,0.2-0.1,0.4-0.1,0.7v4.4h-1.5V371.1z"/>
		<path class="st1" d="M381.9,376.8l-0.1-1h-0.1c-0.5,0.6-1.3,1.2-2.5,1.2c-1.7,0-2.5-1.2-2.5-2.4c0-2,1.8-3.1,4.9-3.1v-0.2
			c0-0.7-0.2-1.9-1.9-1.9c-0.8,0-1.6,0.2-2.1,0.6l-0.3-1c0.7-0.4,1.7-0.7,2.7-0.7c2.5,0,3.1,1.7,3.1,3.4v3.1c0,0.7,0,1.4,0.1,2
			H381.9z M381.7,372.6c-1.6,0-3.5,0.3-3.5,1.9c0,1,0.6,1.4,1.4,1.4c1.1,0,1.8-0.7,2-1.4c0.1-0.2,0.1-0.3,0.1-0.5V372.6z"/>
		<path class="st1" d="M385.6,370.8c0-0.9,0-1.5-0.1-2.2h1.3l0.1,1.4h0c0.4-0.8,1.4-1.5,2.7-1.5c1.1,0,2.9,0.7,2.9,3.5v4.9h-1.5
			v-4.7c0-1.3-0.5-2.4-1.9-2.4c-1,0-1.8,0.7-2,1.5c-0.1,0.2-0.1,0.4-0.1,0.7v4.9h-1.5V370.8z"/>
		<path class="st1" d="M394.6,375.9c0-0.6,0.4-1.1,1-1.1c0.6,0,1,0.4,1,1.1c0,0.6-0.4,1.1-1,1.1C395,377,394.6,376.5,394.6,375.9z"
			/>
		<path class="st1" d="M404.4,376.5c-0.4,0.2-1.3,0.5-2.4,0.5c-2.5,0-4.1-1.7-4.1-4.2c0-2.5,1.7-4.4,4.4-4.4c0.9,0,1.7,0.2,2.1,0.4
			l-0.3,1.2c-0.4-0.2-0.9-0.4-1.7-0.4c-1.9,0-2.9,1.4-2.9,3.1c0,1.9,1.2,3.1,2.9,3.1c0.8,0,1.4-0.2,1.8-0.4L404.4,376.5z"/>
		<path class="st1" d="M413.5,372.6c0,3-2.1,4.4-4.1,4.4c-2.2,0-3.9-1.6-3.9-4.2c0-2.8,1.8-4.4,4.1-4.4
			C411.9,368.4,413.5,370.1,413.5,372.6z M406.9,372.7c0,1.8,1,3.2,2.5,3.2c1.4,0,2.5-1.3,2.5-3.2c0-1.4-0.7-3.2-2.5-3.2
			S406.9,371.1,406.9,372.7z"/>
		<path class="st1" d="M415.4,370.8c0-0.9,0-1.5-0.1-2.2h1.3l0.1,1.3h0.1c0.5-0.8,1.2-1.5,2.6-1.5c1.1,0,2,0.7,2.3,1.6h0
			c0.3-0.5,0.6-0.8,0.9-1.1c0.5-0.4,1-0.6,1.8-0.6c1.1,0,2.7,0.7,2.7,3.6v4.8h-1.5v-4.7c0-1.6-0.6-2.5-1.8-2.5
			c-0.9,0-1.5,0.6-1.8,1.4c-0.1,0.2-0.1,0.5-0.1,0.7v5.1h-1.5v-4.9c0-1.3-0.6-2.3-1.7-2.3c-0.9,0-1.6,0.7-1.9,1.5
			c-0.1,0.2-0.1,0.5-0.1,0.7v5h-1.5V370.8z"/>
	</g>
</g>
<g id="Layer_4">
	<path class="st1" d="M331.5,119.4c1.5,0,2.8,2.1,3.7,6.4l-1.1,7.5c2.9,3.5,4.3,6,4.3,7.5v1.1l-2.1,2.1l-4.3-3.8h-1.1
		c-8.1,8.8-18.8,15.6-32.2,20.4h-0.5v-1.1l26.3-18.3l2.7-3.7v-0.6c-2.4-2.6-3.8-4.7-4.3-6.4C324.5,123.1,327.3,119.4,331.5,119.4z
		 M357.3,120.9h1.6l-1.6,9.7v1.1c0,4.1,0.9,6.4,2.6,7h0.6l2.6-2.7l1.1,1.1c-1,5.4-2,8.1-3.2,8.1h-0.5c-4.7,0-7-3.2-7-9.7
		C353.5,132.1,354.7,127.3,357.3,120.9z M235.9,121.5l0.5,1.6c-2.5,5.2-3.7,9-3.7,11.3v2.1c0,1.8,1.1,3.7,3.2,5.9l3.7-3.2h0.6v1.1
		h0.5c-1.1,5.4-3.2,8.1-6.4,8.1c-3.2-1.7-4.8-4.4-4.8-8.1c0.6-7.2,2.6-13.5,5.9-18.8H235.9z M504.5,122c1.9,0,3.5,2,4.8,5.9
		c0,2.5-0.7,3.7-2.1,3.7c-2.4-1.8-4.2-2.6-5.4-2.6h-0.5c-1.4,0.6-2.1,1.8-2.1,3.7v1.6c0,13.5-1.1,21.2-3.2,23.1l-8.1-12.9l-9.7-4.8
		c-1.4-1.6-2.1-3.2-2.1-4.9c0.9-2.5,1.6-3.7,2.1-3.7h1.1c3.3,0,8.5,4.7,15.6,14l0.5-0.6v-2.1l0.6-6.4h-0.6
		C497.3,126.7,500.3,122,504.5,122z M542.6,122.6c4,0,5.9,5.5,5.9,16.6c2.1,2,3.2,3.8,3.2,5.4v1.6c0,0.7-0.5,1.1-1.6,1.1
		c-2.1-1.4-3.7-2.1-4.8-2.1c-13.9,13.3-25.9,21.6-36,24.7l-4.8,1.6h-1.1v-0.5l32.2-21.5l5.4-6.4c-3.6-3.7-5.4-6.2-5.4-7.5
		C535.6,129.1,537.9,124.8,542.6,122.6z M175.7,123.1c3.9,2,5.9,4.3,5.9,7v1.1l-1.1,1.1h-1.1l-5.4-1.6l-1.1,1.1v11.8
		c-1.8,15.8-3.7,23.6-5.9,23.6c-1.2,3.6-4.8,6.9-10.7,9.7l-0.6-0.5v-0.6c8.3-10.2,12.4-15.9,12.4-17.2c-3-8.6-7.4-12.9-13.5-12.9
		l-4.3-5.9c0.9-3.2,2-4.9,3.2-4.9c4.5,0.9,9.7,5.4,15.6,13.5l0.5-0.6v-5.4l-0.5-2.1l0.5-2.1v-1.1l-0.5-0.5
		C170.7,127.6,172.8,123.1,175.7,123.1z M388.4,123.7c2.5,0.7,3.7,3.3,3.7,8l-0.5,7c3.6,2.6,5.4,5.1,5.4,7.5v0.5l-1.6,2.1
		c-3.4-2.5-5.8-3.7-6.9-3.7h-0.6c-10.7,10.5-18.4,16.2-23.1,17.2l-3.2,1.1l-0.6-0.6h-0.5c0.5-1.7,6.6-6.4,18.3-14l5.4-5.9
		c0-1.2-1.1-3.2-3.2-5.9v-3.2C380.9,128.9,383.4,125.5,388.4,123.7z M459.3,125.2l0.5,0.6v0.5c0,3.6-10.2,10.8-30.6,21.5l-17.8,11.3
		h-1.1l-0.5-2.7c0-2.8,11.5-10.5,34.4-23.1C453,127.9,458,125.2,459.3,125.2z M327.2,128c0.2,1.2,1.3,2.3,3.2,3.2h1.1v-3.8l-1.1-1.1
		h-2.1C327.5,126.3,327.2,126.9,327.2,128z M279.3,126.9h2.1c4.7,0,7.7,1.1,9.2,3.2v0.5c-4.1,9.3-9.1,14-15,14
		c-0.9,1.1-2.1,1.6-3.8,1.6v-1.1c2.1-2.7,5-4.8,8.6-6.4v-2.1h-4.8c-4.8,0-8.2,1.1-10.2,3.2h-0.5l-1.1-1.1
		C267.1,130.8,272.3,126.9,279.3,126.9z M539.3,131.2v1.1l3.8,3.7h1.6v-2.6c0-2-0.7-3.2-2.1-3.8H541L539.3,131.2z M384.6,132.3v1.1
		l2.7,2.6h1.1v-4.3l-1.6-1.6L384.6,132.3z M203.6,134.9l1.1,1.1l-5.4,23.6v4.9c0.4,4.6,2.2,6.9,5.4,6.9l2.6-4.3h1.6l0.5,2.1
		c-1.7,8.6-4,12.9-6.9,12.9c-4.4,0-7.1-4.1-8.1-12.3V165c0-7.7,2.9-17.8,8.6-30.1H203.6z M238,153.2c2.9,0,5.5,2.9,8,8.6v0.6
		c-1.3,2.4-3.1,4.5-5.4,6.4c-5-3.6-7.5-6.4-7.5-8.6C235.3,155.7,237,153.4,238,153.2z M343.8,155.9h0.6c1.1,0,3.8,2.7,8,8
		c0,2.9-2.3,5.3-6.9,7c-2.1-2.8-4.1-4.6-5.9-5.4H339l-5.4,5.4c-2.2,0-5.3-2.3-9.2-7c0-2.1,1.8-4.7,5.4-7.5l8.1,4.3h0.5L343.8,155.9z
		 M465.8,157l0.5,0.5c-1.8,4.5-2.7,8.6-2.7,12.4c1,3.9,2.6,5.9,4.8,5.9l2.7-4.8h0.5l0.6,1.6c-0.8,6.8-2.8,10.2-5.9,10.2
		c-3.9-2.4-5.9-5.8-5.9-10.2c1.1-7.3,2.6-12.4,4.8-15.5H465.8z M274,160.2h0.6c7.2,7.5,10.7,12.7,10.7,15.5l-0.6,0.6h-0.5l-3.8-0.6
		v0.6c4.7,13.5,7,21,7,22.6v2.6c-1,11.1-4.5,16.7-10.7,16.7l-2.1,0.5h-1.6c-3.3,0-7.4-2.1-12.3-6.4c-3.3,6.1-6.9,9.2-10.7,9.2
		l-1.6,0.5c-5.2-1.3-8.7-3.8-10.7-7.5h-1.6c0,3.1-5.4,5.6-16.1,7.5c0,13.4-7,23.4-21,30.1c-12,8.3-24.9,12.4-38.7,12.4h-1.6
		c-10.9,0-19-6.1-24.2-18.3l-1.1-7.5v-2.7l4.3-23.1c-2.5-2.5-3.7-6.6-3.7-12.4s2.7-15.4,8-29h0.6l1.1,1.1
		c-3.6,10.6-5.4,17.8-5.4,21.5c0,5.5,1.6,9.5,4.8,11.8h0.6c1.1-0.1,2.1-1.9,3.2-5.4l0.5-0.5h0.6l1.1,1.1
		c-1.4,10.4-4.1,15.5-8.1,15.5c-2.1,3.8-3.2,8.1-3.2,12.9c0,16.1,9.3,24.2,27.9,24.2c10.8,0,24-5.2,39.7-15.6
		c6.1-4.4,9.2-7.8,9.2-10.2v-0.6c0-2.5-2.3-8.8-7-18.8c0.6-5,1.5-7.5,2.7-7.5h0.5c3.2,6.8,7.5,10.2,12.9,10.2
		c6.8,0,13.1-4.3,18.8-12.9l1.6,0.6v0.5l-1.1,5.9v1.1c2.1,3.2,5.1,4.8,9.2,4.8c3,0,6.4-4.7,10.2-14h1.1c0.7,0,1.1,1.6,1.1,4.9
		c1.7,2.3,4.8,4.3,9.2,5.9c6.1,0,9.1-1.1,9.1-3.2c-4.3-12.4-8-24.6-11.2-36.5C272.1,162.9,273,160.2,274,160.2z M545.8,160.7v1.1
		c-1.8,4.4-2.7,7.5-2.7,9.2c0,4.3,1.1,6.4,3.2,6.4l3.2-2.7h0.5v1.6c0,3.7-1.8,6.4-5.4,8c-2.1,0-3.7-3-4.8-9.1
		c0.7-5.3,2.3-10.1,4.8-14.5H545.8z M396.4,162.3c1.6,0,4.5,2.7,8.6,8c-1,3.1-2.6,5.6-4.8,7.5c-4.5-3.2-7.4-4.8-8.6-4.8
		c-0.5,0-1.6,2-3.2,5.9l-2.1,0.6c-6.1-3.6-9.2-6.3-9.2-8.1c2.2-4.5,3.8-6.8,4.9-6.9h1.6l5.4,3.7h1.6
		C393.8,164.3,395.7,162.3,396.4,162.3z M248.2,166.6c6.1,4.5,9.2,7.9,9.2,10.2c0,1.1-2,3.1-5.9,5.9c-4.8-3.6-7.6-5.4-8.6-5.4
		l-5.9,5.4h-0.6c-4.2-2.6-7-5.1-8.6-7.5c1.8-5,3.8-7.5,5.9-7.5l7.5,4.8h0.5L248.2,166.6z M427.6,173.1h0.6
		c7.9,7.4,11.8,11.9,11.8,13.4h-0.6l-2.1,0.6h-1.6v0.5l8.6,17.8l0.5,5.9c0,8.6-4.8,16.5-14.5,23.6c-1.1,1.9-1.8,4.4-2.1,7.5
		c0,9.8,5.4,15.6,16.1,17.2h3.7c6.6-1.1,12.9-3.6,18.8-7.5c8.3-5.6,16.5-13.5,24.7-23.6v-1.6l-2.1-1.6c-1.3,1.1-6.3,2-15,2.7
		c-6.4,0-9.9-3.8-10.7-11.3c0-8.4,4.1-14.1,12.3-17.2h0.6c4.9,0,10.6,4.1,17.2,12.4h0.5c1.6,0,7.5-3.8,17.8-11.3h2.1
		c0.2,2.1,0.6,3.2,1.1,3.2l-0.6,0.6v3.2c0,5.1,4.7,8,14,8.6c3.9-1,7.4-3.2,10.7-6.4c3.2-7,5.9-11.1,8.1-12.4h0.5l0.6,1.6l-2.1,6.4
		c0,2.8,3,4.8,9.1,5.9h4.3l1.6-1.6l-2.7-5.9c0.4-3.3,1.1-6.2,2.1-8.6h1.1c3.2,2.9,4.9,7.2,4.9,12.9v3.2c0,5.3-3.4,9.2-10.2,11.8
		c-8.9-2.1-13.4-4.4-13.4-6.9h-1.6c-5.6,7.2-11.7,10.7-18.3,10.7c-4.3,0-8.5-3.1-12.3-9.2l-1.1-4.3h-1.1c-8.3,4.9-12.4,9.6-12.4,14
		c0,10.6-11.6,23.7-34.9,39.2c-6.3,2.5-10.8,3.7-13.5,3.7h-3.7c-11.1,0-17.7-7.2-19.9-21.5l0.6-8l-1.6-0.6
		c-22.4,15.8-38.9,23.6-49.4,23.6c-11.1,2.9-18.8,4.5-23.1,4.9v-0.6c0-1.4,8.6-5.3,25.8-11.8c20.5-9.6,39.5-21.6,56.9-36
		c3.9-3.2,5.9-5.6,5.9-7.3c0-1.7-2.3-6.4-6.9-14.2l-7.5-17.8C425.8,175.8,426.6,173.1,427.6,173.1z M322.3,174.2l0.6,0.5v1.1
		c0,2.8-4.8,6-14.5,9.7c-9.5,5.4-14.9,8.1-16.1,8.1h-0.5l-0.6-1.6c0-3.3,6.8-7.4,20.4-12.3C311.6,178.9,315.2,177.1,322.3,174.2z
		 M341.7,176.3c6.4,0,12.4,6.8,17.8,20.4l1.1,4.8c0,10.3-2.5,16.9-7.5,19.9l-12.9,4.8l-0.6-0.5l-6.4,0.5h-3.2c-0.5,0-1.6,4.7-3.2,14
		c-6.4,9.5-20.5,18.8-42.4,27.9c-7.8,3.6-18.2,5.4-31.2,5.4c-8.3,1-12.4,1.7-12.4,2.1l-0.5-0.5h-3.2V273
		c37.5-10.1,63.7-20.5,78.4-31.2c6.1-4.2,9.1-7.4,9.1-9.7v-2.7l-5.4-15v-1.1l1.6-6.9h1.6c1.1,6.1,6.4,9.1,15.6,9.1
		c9.3-1.8,14.8-3.9,16.6-6.4v-1.6c-1.4-2.1-3.2-3.2-5.4-3.2h-11.2c-5.4,0-8.6-3.6-9.7-10.7c0-6.1,3.6-11.7,10.7-16.7L341.7,176.3z
		 M405.6,181.1h0.5c0.7,0,1.1,0.5,1.1,1.6c0,3.9-3,10.2-9.1,18.8v1.1c7.2,5.2,10.7,10.1,10.7,14.5c0,11.3-6.6,18.6-19.9,22
		c-5.7-0.4-8.6-2.9-8.6-7.5v-5.9c0-3,1.6-8.6,4.9-16.7c0-1-2.9-3.8-8.6-8.6c0-0.7-1.8-2.7-5.4-5.9l-0.6-4.9c0-3.2,0.9-4.8,2.7-4.8
		c9.3,3.4,14,5.9,14,7.5l-2.7,2.6l5.4,3.8h0.6c2.2,0,6.1-4.7,11.8-14L405.6,181.1z M335.2,190.8c0,1.5,2.3,2.4,7,2.7
		c2.5-0.4,3.7-0.9,3.7-1.6c0-1.8-2-3.2-5.9-4.3h-0.6C337.4,187.5,335.9,188.6,335.2,190.8z M179.4,196.1l0.6,0.6
		c-2.5,9.3-3.8,15.2-3.8,17.7v1.1c0.5,5.7,1.7,8.6,3.8,8.6c0.8,0,1.7-1.2,2.6-3.7h1.6v1.1h0.5c-1.1,7.2-3,10.7-5.9,10.7
		c-3.8,0-6.1-4.1-7-12.4v-0.5c1.4-10.9,3.8-18.6,7-23.1H179.4z M471.1,215.5l4.3,1.1h3.7c1.9,0,2.9-0.5,3.2-1.6
		c-1.2-2.5-3.7-3.8-7.5-3.8C472.4,211.9,471.1,213.3,471.1,215.5z M384.6,224.1v1.6l2.1,2.1h3.2c3.8,0,8.1-2.5,12.9-7.5v-1.1
		c-2.2-2.6-5.6-4.9-10.2-7h-1.6C386.8,216.6,384.6,220.5,384.6,224.1z M289,229.4h0.6c4.8,3,7.5,5.7,8,8.1c-1.2,4.6-3.2,6.9-5.9,6.9
		l-5.9-4.8h-0.5c-1.8,0-4,1.8-6.4,5.4h-1.6c-3.2-2.1-5.9-4.4-8-7c1-3.1,2.6-5.4,4.8-6.9h1.6c3.9,2.9,6.6,4.3,8,4.3L289,229.4z
		 M342.2,230l0.5,0.5h0.6l-1.6,11.3c0,6.1,1.3,9.7,3.8,10.7h1.1c1,0,1.8-1.6,2.6-4.9h1.1l0.6,0.6h0.5c0,4.8-1.4,8.4-4.3,10.7h-1.6
		c-4.1,0-6.4-3.8-7-11.3C339.6,235.9,340.9,230,342.2,230z M553.3,234.8l1.1,1.1v1.1c-1.4,7.5-4.1,11.3-8,11.3l-4.3-1.6
		c-2.9,2.8-5.4,4.2-7.5,4.3l-5.9-2.6c-3,0-10.5,4.3-22.6,12.9l-8,2.1l-0.6-0.6v-0.5l28.5-18.8c1.4-0.7,3.3-1.1,5.9-1.1
		c1.9,1.4,3.8,2.1,5.9,2.1c1.5-0.3,3.8-2.2,6.9-5.9l3.2,3.2h1.1c1.2,0,2.3-2.1,3.2-6.4l0.6-0.6H553.3z M248.2,242.3l0.6,1.6
		c0,2.4-2,4-5.9,4.8l-25.2,11.8h-1.1L216,259c0-3.1,10.4-8.7,31.2-16.7H248.2z M248.8,250.9l1.1,1.6c0,3.1-10.6,8.5-31.7,16.1V266
		c0-2.3,9.5-7,28.5-14C246.6,251.3,247.3,250.9,248.8,250.9z"/>
</g>
</svg>
